<?xml version="1.0" encoding="utf-8"?>
<svg version="1.1" id="Layer_1" xmlns="http://www.w3.org/2000/svg" xmlns:xlink="http://www.w3.org/1999/xlink" x="0px" y="0px"
	 width="72px" viewBox="0 0 612 792" fill="#ED1C2E" enable-background="new 0 0 612 792" xml:space="preserve">
<title>ADP_Logo</title>
<path d="M502.86,316.633h-34.784v34.709h34.784c8.222,1.669,13.533,9.688,11.863,17.909c-1.214,5.978-5.885,10.65-11.863,11.863
	h-34.784v34.785h34.784c27.412-1.072,48.764-24.163,47.691-51.575C549.538,338.417,528.769,317.646,502.86,316.633 M304.937,500.202
	c40.133-0.098,76.632-23.268,93.798-59.544h44.278v59.544h24.76v-59.544h34.784c41.086,1.313,75.457-30.93,76.77-72.015
	c1.313-41.086-30.929-75.457-72.015-76.77c-1.585-0.051-3.17-0.051-4.755,0h-59.24v89.24H408
	c-7.369-51.245-51.292-89.276-103.063-89.24H182.81L61.291,500.202h28.937l35.088-59.544h124.557v59.544H304.937z M612,366.228
	c0,60.276-48.863,109.139-109.14,109.139l0,0v59.544h-94.253v-46.48c-26.31,29.619-64.054,46.542-103.671,46.48h-89.848v-59.544
	h-70.101l-34.861,59.544H0l162-277.822h142.937c39.611-0.032,77.343,16.885,103.671,46.481v-46.481h94.253
	C563.119,257.13,611.958,305.969,612,366.228 M215.088,316.633v64.481h-55.291l-20.278,34.785h110.354v-99.266H215.088z
	 M384.304,396c0,43.833-35.534,79.367-79.367,79.367h-30.379v-34.709h30.379c24.664,0.003,44.661-19.988,44.664-44.652
	c0.003-24.665-19.989-44.661-44.653-44.664c-0.004,0-0.007,0-0.011,0h-30.379v-34.709h30.379
	C348.77,316.633,384.304,352.167,384.304,396 M534.152,515.544v-5.24h3.797c2.507,0,3.19,0.836,3.19,2.354
	c0,1.52-0.684,2.811-3.646,2.886H534.152z M536.811,518.658c1.063,0,2.126,0,2.962,0.911c0.737,1.294,1.104,2.765,1.063,4.254
	c0,1.215,0.456,2.506,0.76,3.646h4.025c-0.594-1.905-1.001-3.864-1.215-5.849c0-2.202-0.608-3.493-3.418-4.025l0,0
	c2.366-0.237,4.152-2.255,4.102-4.633c0-4.633-3.798-5.62-7.596-5.62h-6.607v20.506h3.19v-9.189H536.811z M537.798,534.911
	c9.563-0.126,17.213-7.979,17.087-17.543c-0.126-9.563-7.98-17.213-17.543-17.087c-9.444,0.125-17.047,7.793-17.089,17.237
	c-0.084,9.521,7.566,17.309,17.088,17.393c0.076,0,0.152,0.001,0.229,0 M537.569,531.798c-7.886,0.042-14.313-6.317-14.354-14.203
	c-0.042-7.886,6.316-14.312,14.202-14.354s14.313,6.316,14.354,14.202c0.001,0.025,0.001,0.051,0.001,0.075
	c0.042,7.844-6.283,14.236-14.127,14.278C537.62,531.798,537.595,531.798,537.569,531.798"/>
</svg>