<svg version="1.1" id="Layer_1" xmlns="http://www.w3.org/2000/svg" xmlns:xlink="http://www.w3.org/1999/xlink" x="0px" y="0px"
	 width="211px" height="85px" viewBox="0 0 211 85" enable-background="new 0 0 211 85" xml:space="preserve">
<title>be you be great</title>
<desc>Created with Sketch.</desc>
<g id="Careers-Mobile">
	<g id="Mobile" transform="translate(-55.000000, -175.000000)">
		<g id="Hero" transform="translate(-6.000000, -54.000000)">
			<g id="be-you-be-great" transform="translate(61.000000, 229.000000)">
				<g id="be-you" transform="translate(31.000000, 0.000000)">
					<g id="Group-3">
						<g id="Clip-2">
						</g>
						<defs>
							<filter id="Adobe_OpacityMaskFilter" filterUnits="userSpaceOnUse" x="0" y="0.62" width="38.119" height="39.685">
								<feColorMatrix  type="matrix" values="1 0 0 0 0  0 1 0 0 0  0 0 1 0 0  0 0 0 1 0"/>
							</filter>
						</defs>
						<mask maskUnits="userSpaceOnUse" x="0" y="0.62" width="38.119" height="39.685" id="mask-2">
							<g filter="url(#Adobe_OpacityMaskFilter)">
								<polygon id="path-1" fill="#FFFFFF" points="0.096,0.62 38.119,0.62 38.119,40.305 0.096,40.305 								"/>
							</g>
						</mask>
						<path id="Fill-1" mask="url(#mask-2)" fill="#FFFFFE" d="M38.119,27.171c0,0.301-0.081,0.571-0.244,0.815
							c-0.163,0.24-0.209,0.525-0.139,0.846c-0.094,0.163-0.216,0.29-0.368,0.381c-0.151,0.093-0.204,0.266-0.156,0.521
							c-0.489,0.253-0.938,0.571-1.346,0.951c-0.407,0.381-0.845,0.745-1.31,1.093c-0.28,0.206-0.519,0.351-0.717,0.43
							c-0.198,0.083-0.437,0.204-0.716,0.366l-0.874,0.555c-0.395,0.206-0.797,0.415-1.205,0.623
							c-0.407,0.208-0.773,0.473-1.099,0.796c-0.491,0.023-0.991,0.158-1.503,0.4c-0.513,0.242-1.002,0.456-1.467,0.643
							c-0.187,0.068-0.374,0.12-0.56,0.155c-0.187,0.035-0.372,0.098-0.559,0.19l-0.559,0.242c-0.326,0.164-0.711,0.33-1.154,0.504
							c-0.442,0.172-0.837,0.259-1.187,0.261c-0.209,0.091-0.385,0.253-0.524,0.484c-0.769,0.253-1.561,0.451-2.375,0.59
							c-0.815,0.139-1.607,0.359-2.376,0.658c-0.256,0.117-0.52,0.273-0.786,0.47c-0.269,0.196-0.553,0.283-0.856,0.259
							c-0.07,0.116-0.117,0.253-0.141,0.416c-0.022,0.162-0.058,0.323-0.104,0.484h-0.104c-0.094,0-0.134-0.048-0.123-0.14
							c0.011-0.091-0.029-0.137-0.123-0.137c-0.068,0-0.115,0.014-0.139,0.036c-0.304,0.068-0.588,0.126-0.856,0.172
							c-0.269,0.046-0.564,0.07-0.89,0.07c-0.187,0.003-0.484-0.021-0.892-0.066c-0.408-0.047-0.705-0.108-0.892-0.176
							c-0.139-0.073-0.256-0.199-0.348-0.384c-0.093-0.185-0.181-0.383-0.262-0.592c-0.082-0.21-0.152-0.424-0.211-0.645
							c-0.058-0.222-0.11-0.402-0.157-0.543c0.07-0.256,0.187-0.465,0.35-0.626c0.163-0.164,0.291-0.375,0.383-0.631
							c0.209-0.024,0.42-0.059,0.63-0.104c0.209-0.046,0.418-0.059,0.629-0.036c0.721-0.208,1.449-0.408,2.183-0.603
							c0.733-0.198,1.462-0.397,2.184-0.603c0.722-0.21,1.432-0.438,2.132-0.69c0.698-0.256,1.374-0.564,2.026-0.933l0.733-0.001
							c0.42-0.228,0.885-0.426,1.398-0.585c0.513-0.16,0.932-0.425,1.257-0.792c0.769-0.16,1.572-0.378,2.411-0.656
							c0.839-0.275,1.537-0.71,2.097-1.308c0.35-0.046,0.652-0.133,0.909-0.261c0.255-0.126,0.5-0.259,0.733-0.397l0.698-0.451
							c0.233-0.163,0.501-0.29,0.804-0.381c0.187-0.185,0.361-0.381,0.524-0.588c0.163-0.209,0.361-0.381,0.594-0.521
							c-0.07-0.369-0.257-0.646-0.559-0.829c-0.304-0.183-0.57-0.403-0.804-0.656h-0.769c-0.605-0.367-1.252-0.65-1.938-0.845
							c-0.689-0.194-1.37-0.41-2.045-0.639c-0.046-0.022-0.105-0.033-0.174-0.033c-0.163,0-0.262,0.057-0.297,0.172
							c-0.035,0.116-0.134,0.163-0.297,0.14c-0.209-0.138-0.431-0.225-0.665-0.26c-0.232-0.033-0.478-0.051-0.733-0.051
							c-0.326,0-0.646,0.019-0.96,0.053c-0.315,0.035-0.634,0.054-0.96,0.054c-0.163,0-0.326-0.011-0.489-0.035
							c-0.163-0.022-0.328-0.079-0.49-0.172h-0.454c-0.489,0.001-0.973,0.019-1.451,0.054c-0.476,0.035-0.948,0.052-1.414,0.052
							c-0.256,0.002-0.502-0.005-0.733-0.016c-0.233-0.011-0.467-0.04-0.7-0.085c-0.489,0.231-1.013,0.392-1.572,0.486
							c-0.56,0.093-1.136,0.163-1.729,0.208c-0.594,0.047-1.183,0.088-1.764,0.124c-0.583,0.035-1.141,0.1-1.678,0.193
							c-0.139-0.024-0.273-0.041-0.401-0.052c-0.128-0.011-0.251-0.018-0.368-0.018S9.79,25.58,9.661,25.591
							c-0.128,0.013-0.251,0.028-0.366,0.052c-0.303-0.323-0.669-0.558-1.101-0.708c-0.432-0.147-0.856-0.245-1.275-0.291
							c-0.326-0.393-0.565-0.79-0.716-1.194c-0.152-0.403-0.25-0.859-0.297-1.365h0.139c0.163,0,0.238-0.081,0.227-0.242
							c-0.011-0.161,0.042-0.3,0.158-0.416c0.115-0.138,0.273-0.235,0.471-0.292c0.198-0.06,0.39-0.124,0.575-0.193
							c0.187-0.07,0.368-0.155,0.542-0.26c0.176-0.104,0.31-0.272,0.402-0.501h0.454c0.094-0.002,0.193,0.004,0.297,0.016
							c0.105,0.013,0.193,0.052,0.262,0.12c0.094-0.092,0.209-0.172,0.35-0.24c0.139-0.071,0.273-0.139,0.401-0.209
							c0.128-0.069,0.24-0.15,0.333-0.244c0.092-0.092,0.151-0.229,0.174-0.415c0.024,0.07,0.082,0.104,0.176,0.104
							c0.093-0.001,0.181-0.023,0.262-0.069c0.082-0.048,0.181-0.059,0.297-0.035c0.115-0.322,0.313-0.497,0.593-0.521
							c0.281-0.023,0.537-0.104,0.77-0.242c0.163-0.093,0.313-0.203,0.454-0.329c0.139-0.128,0.291-0.249,0.454-0.364l2.096-1.593
							l3.215-2.425c1.072-0.808,2.167-1.56,3.284-2.252c0.048-0.138,0.116-0.24,0.21-0.31c0.093-0.069,0.186-0.144,0.28-0.225
							c0.093-0.082,0.168-0.169,0.227-0.261c0.058-0.093,0.075-0.231,0.051-0.415c0.326-0.07,0.577-0.196,0.752-0.381
							c0.174-0.185,0.331-0.386,0.471-0.606c0.139-0.22,0.285-0.438,0.436-0.658c0.152-0.22,0.356-0.386,0.612-0.503
							c-0.024-0.068-0.035-0.172-0.035-0.31c0-0.186,0.018-0.369,0.053-0.554c0.034-0.185,0.121-0.347,0.262-0.484
							c-0.209-0.484-0.57-0.835-1.083-1.055c-0.513-0.219-1.002-0.408-1.468-0.57h-0.104c-0.117,0-0.181,0.054-0.193,0.157
							c-0.011,0.104-0.075,0.179-0.192,0.225c-0.372-0.092-0.791-0.138-1.257-0.138c-0.465,0-0.927,0.037-1.38,0.106
							c-0.454,0.07-0.914,0.081-1.379,0.037c-0.07,0.092-0.147,0.184-0.228,0.277c-0.082,0.092-0.181,0.172-0.296,0.242
							c-0.49,0.024-0.979,0.094-1.468,0.209l-1.467,0.347l-0.804,0.174c-0.117,0.047-0.198,0.128-0.245,0.244
							c-0.048,0.114-0.082,0.24-0.105,0.379C13.8,7.387,13.714,7.33,13.679,7.237c-0.035-0.092-0.122-0.161-0.262-0.207
							c-0.535,0.323-1.112,0.59-1.729,0.797c-0.618,0.207-1.171,0.531-1.66,0.969C9.865,8.613,9.632,8.521,9.33,8.521
							c-0.257,0-0.537,0.082-0.839,0.244C8.188,8.926,8.002,9.133,7.932,9.387C7.698,9.341,7.524,9.318,7.408,9.318
							c-0.257,0-0.472,0.07-0.647,0.209C6.586,9.667,6.417,9.822,6.254,9.994s-0.337,0.342-0.524,0.503s-0.419,0.253-0.698,0.277
							c0,0.115,0.006,0.236,0.018,0.362s0.018,0.259,0.018,0.398c0,1.038-0.058,2.069-0.176,3.097
							c-0.115,1.025-0.174,2.057-0.174,3.096c0,0.229,0.011,0.454,0.035,0.674s0.035,0.456,0.035,0.709
							c0,0.069-0.053,0.22-0.158,0.449c-0.104,0.23-0.181,0.405-0.227,0.52c0.094,0.253,0.134,0.506,0.123,0.759
							c-0.013,0.255,0.04,0.497,0.157,0.728c-0.209,0.185-0.313,0.438-0.313,0.761c0,0.138,0.004,0.277,0.016,0.416
							c0.013,0.138,0.018,0.275,0.018,0.415v0.414c-0.068,0.462-0.117,0.929-0.139,1.402c-0.024,0.473-0.035,0.939-0.035,1.4
							c0,0.208,0.006,0.56,0.018,1.057c0.011,0.495,0.04,1.049,0.088,1.659c0.044,0.612,0.115,1.239,0.209,1.886
							c0.093,0.646,0.216,1.238,0.368,1.781c0.15,0.541,0.342,0.985,0.575,1.33c0.233,0.347,0.513,0.519,0.839,0.519
							c0.07,0,0.157-0.012,0.262-0.035c0.105-0.023,0.156-0.081,0.156-0.174c0-0.092-0.018-0.172-0.051-0.242
							c-0.035-0.069-0.053-0.148-0.053-0.242l0.035-0.068c0.185,0.092,0.39,0.149,0.61,0.171c0.222,0.024,0.449,0.046,0.682,0.07
							c0.233,0.022,0.454,0.063,0.663,0.12s0.396,0.177,0.559,0.364c-0.093,0.184-0.139,0.38-0.139,0.587
							c0,0.277,0.068,0.536,0.209,0.778c0.139,0.242,0.233,0.489,0.28,0.743c-0.443,0.14-0.845,0.294-1.205,0.468
							c-0.361,0.172-0.718,0.334-1.066,0.486c-0.35,0.15-0.724,0.288-1.119,0.416c-0.396,0.126-0.85,0.215-1.363,0.261
							c-0.326-0.208-0.605-0.392-0.839-0.555c-0.233-0.16-0.548-0.262-0.943-0.308C2.4,36.639,1.898,35.733,1.502,34.73
							c-0.395-1.002-0.705-2.045-0.925-3.128c-0.222-1.083-0.372-2.174-0.455-3.27C0.042,27.237,0,26.206,0,25.236
							c0-1.06,0.042-2.115,0.122-3.165c0.083-1.049,0.193-2.104,0.332-3.165c0.046-0.323,0.094-0.65,0.141-0.986
							c0.046-0.333,0.093-0.663,0.139-0.985c0.048-0.115,0.088-0.249,0.123-0.397c0.034-0.15,0.053-0.283,0.053-0.398
							c0-0.393-0.013-0.783-0.035-1.176c-0.024-0.392-0.035-0.773-0.035-1.142c0-0.576,0.035-1.165,0.105-1.764
							c0.022-0.115,0.064-0.266,0.122-0.451c0.057-0.185,0.086-0.346,0.086-0.484c0-0.185-0.044-0.312-0.139-0.381
							c-0.093-0.068-0.174-0.184-0.245-0.345c0.07-0.231,0.128-0.456,0.176-0.674c0.045-0.22,0.069-0.446,0.069-0.676
							c0-0.438-0.082-0.817-0.245-1.14c0.117-0.6,0.291-1.19,0.524-1.766c0.233-0.577,0.641-1.015,1.223-1.316
							c0.466,0.022,0.938,0.068,1.416,0.138c0.478,0.068,0.892,0.264,1.242,0.587C5.335,5.458,5.521,5.4,5.73,5.378l0.665-0.071
							c0.233-0.022,0.442-0.063,0.628-0.122c0.187-0.058,0.35-0.179,0.489-0.364c0.467-0.093,0.967-0.226,1.504-0.398
							c0.535-0.174,1.001-0.376,1.396-0.607h0.769c0.163-0.116,0.35-0.196,0.559-0.242l0.665-0.174
							c0.232-0.07,0.449-0.139,0.646-0.209c0.198-0.069,0.356-0.185,0.473-0.346h0.139c0.535,0,1.061-0.116,1.572-0.348
							c0.513-0.231,1.013-0.439,1.502-0.623c0.116-0.046,0.297-0.128,0.542-0.244c0.246-0.114,0.414-0.172,0.508-0.172
							c0.326-0.048,0.652-0.076,0.978-0.087c0.326-0.013,0.652-0.054,0.978-0.122c0.745-0.117,1.484-0.25,2.218-0.402
							c0.735-0.148,1.475-0.225,2.219-0.226c0.257,0,0.496,0.006,0.716,0.018c0.222,0.011,0.46,0.028,0.717,0.05
							c0.022,0.092,0.082,0.168,0.174,0.225c0.093,0.057,0.181,0.109,0.262,0.155s0.158,0.109,0.227,0.19
							c0.07,0.081,0.095,0.191,0.07,0.329c0.046,0.046,0.093,0.07,0.139,0.07c0.07,0,0.134-0.035,0.193-0.104
							c0.058-0.068,0.146-0.104,0.262-0.104h0.174c0.304,0.323,0.6,0.628,0.892,0.916c0.291,0.288,0.659,0.523,1.101,0.708
							c0.186,0.691,0.406,1.372,0.663,2.039c0.256,0.669,0.383,1.384,0.383,2.145c0,0.462-0.068,0.911-0.208,1.349
							c-0.328,0.162-0.561,0.416-0.7,0.763c-0.139,0.345-0.269,0.679-0.385,1.001c-0.652,0.324-1.198,0.751-1.643,1.283
							c-0.441,0.53-0.896,1.062-1.361,1.591l-0.559,0.001c-0.093,0-0.163,0.035-0.209,0.104l-0.315,0.346
							c-0.209,0.185-0.436,0.369-0.682,0.554c-0.243,0.184-0.425,0.427-0.542,0.726c-0.721,0.394-1.414,0.832-2.079,1.316
							c-0.663,0.487-1.298,0.994-1.903,1.525c-0.257,0.207-0.513,0.444-0.77,0.71c-0.256,0.266-0.511,0.49-0.767,0.674
							c-0.141,0.116-0.297,0.215-0.473,0.296c-0.174,0.081-0.331,0.179-0.472,0.294c-0.302,0.231-0.582,0.469-0.839,0.71
							c-0.255,0.241-0.524,0.468-0.804,0.675c1.05-0.047,2.109-0.077,3.18-0.09c1.072-0.013,2.132-0.03,3.18-0.054
							c0.537-0.002,1.06-0.021,1.572-0.056c0.513-0.035,1.037-0.052,1.572-0.052c0.094,0,0.174,0.016,0.245,0.051
							s0.152,0.063,0.244,0.087c0.396,0.068,0.747,0.149,1.048,0.241c1.119,0.207,2.237,0.391,3.355,0.55
							c1.117,0.16,2.213,0.424,3.284,0.792c0.304,0.115,0.53,0.242,0.681,0.38c0.152,0.137,0.427,0.172,0.823,0.104
							c0.326,0.321,0.681,0.576,1.066,0.759c0.383,0.184,0.773,0.345,1.169,0.482c0.302,0.46,0.588,0.9,0.856,1.313
							C37.987,26.1,38.119,26.595,38.119,27.171"/>
					</g>
					<path id="Fill-4" fill="#FFFFFE" d="M63.913,11.205v0.138c-0.17,0.047-0.256,0.162-0.256,0.348
						c-0.267,0.116-0.548,0.203-0.84,0.262c-0.292,0.057-0.571,0.145-0.84,0.26c-0.267-0.023-0.542-0.04-0.822-0.051
						c-0.281-0.011-0.553-0.017-0.822-0.017c-0.73,0.001-1.46,0.025-2.192,0.071c-0.73,0.047-1.462,0.047-2.192,0.003
						c-0.341,0.186-0.711,0.331-1.114,0.435c-0.401,0.104-0.785,0.156-1.151,0.157c-0.292,0-0.548-0.035-0.767-0.105
						c-0.585,0.28-1.223,0.512-1.918,0.697c-0.693,0.186-1.394,0.367-2.1,0.54c-0.707,0.175-1.384,0.372-2.029,0.592
						c-0.645,0.221-1.211,0.527-1.699,0.922c-0.049,0.324-0.085,0.642-0.11,0.954c-0.023,0.313-0.035,0.619-0.035,0.919
						c0,0.324,0.018,0.625,0.055,0.903c0.037,0.278,0.115,0.556,0.237,0.833c0.12,0.046,0.26,0.081,0.419,0.103
						c0.159,0.024,0.299,0.035,0.421,0.035c0.12,0,0.242-0.018,0.364-0.053c0.122-0.035,0.207-0.111,0.255-0.227
						c0.366-0.046,0.732-0.063,1.096-0.052c0.366,0.011,0.73,0.018,1.096,0.016c0.366,0,0.725-0.011,1.078-0.035
						c0.354-0.024,0.702-0.083,1.042-0.175c0.389-0.093,0.773-0.151,1.149-0.176c0.377-0.022,0.75-0.046,1.114-0.069
						c0.366-0.022,0.744-0.065,1.133-0.123c0.39-0.057,0.792-0.179,1.207-0.365c0.317,0.116,0.638,0.173,0.967,0.173
						s0.652,0.021,0.969,0.068c0.17,0.114,0.311,0.243,0.419,0.381c0.11,0.138,0.165,0.3,0.165,0.486
						c0,0.324-0.122,0.649-0.366,0.973c-0.244,0.324-0.438,0.624-0.585,0.902l-0.401,0.001c-0.585,0-1.151,0.076-1.699,0.227
						s-1.096,0.324-1.644,0.522c-0.548,0.197-1.096,0.372-1.644,0.522s-1.114,0.227-1.699,0.227c-0.097,0-0.152,0.052-0.164,0.156
						c-0.014,0.104-0.043,0.179-0.092,0.226c-0.122-0.022-0.304-0.034-0.548-0.034c-0.56,0-1.096,0.059-1.607,0.175
						s-1.036,0.174-1.571,0.176c-0.147,0-0.294-0.006-0.439-0.018s-0.292-0.028-0.438-0.051c-0.122,0.184-0.281,0.305-0.475,0.363
						c-0.195,0.059-0.377,0.157-0.55,0.297c-0.073,0.208-0.115,0.462-0.127,0.764c-0.013,0.3-0.025,0.606-0.037,0.919
						s-0.043,0.608-0.092,0.886c-0.049,0.278-0.146,0.497-0.292,0.659c0.025,0.116,0.122,0.157,0.292,0.123
						c0.17-0.035,0.255,0.04,0.255,0.225c0,0.208-0.023,0.429-0.073,0.661c-0.047,0.23-0.072,0.462-0.072,0.694
						c0,0.44,0.055,0.919,0.164,1.44c0.11,0.521,0.281,1.001,0.511,1.44c0.232,0.439,0.543,0.805,0.932,1.094
						s0.877,0.434,1.462,0.432c0.389,0,0.755-0.07,1.096-0.209c0.341-0.138,0.62-0.372,0.84-0.695l0.182-0.033
						c0.099,0,0.189,0.011,0.274,0.033c0.085,0.024,0.177,0.035,0.274,0.035c0.147,0,0.334-0.087,0.566-0.26
						c0.232-0.175,0.488-0.378,0.767-0.61c0.281-0.23,0.566-0.457,0.859-0.676c0.292-0.221,0.573-0.378,0.84-0.47
						c0.17-0.324,0.334-0.649,0.493-0.974c0.159-0.324,0.396-0.578,0.713-0.765v-1.005c0.243-0.255,0.505-0.487,0.786-0.695
						c0.279-0.209,0.493-0.475,0.638-0.798c0.124,0.044,0.239,0.079,0.347,0.103c0.11,0.024,0.226,0.033,0.348,0.033
						s0.249-0.011,0.384-0.033c0.134-0.024,0.262-0.059,0.383-0.105c0.195,0.252,0.347,0.537,0.458,0.85
						c0.109,0.313,0.249,0.608,0.419,0.884c-0.219,0.417-0.475,0.916-0.767,1.494c-0.292,0.58-0.61,1.158-0.951,1.737
						c-0.341,0.58-0.7,1.129-1.078,1.65c-0.378,0.522-0.749,0.92-1.115,1.198c-0.073,0.072-0.23,0.152-0.475,0.245
						c-0.267,0.186-0.511,0.364-0.73,0.538c-0.221,0.175-0.428,0.378-0.622,0.61c-0.707,0.208-1.383,0.486-2.028,0.835
						c-0.645,0.348-1.285,0.683-1.918,1.008c-0.292-0.07-0.608-0.104-0.949-0.104c-0.292,0-0.585,0.018-0.877,0.051
						c-0.292,0.037-0.61,0.054-0.951,0.054c-0.097-0.114-0.237-0.19-0.419-0.224c-0.184-0.036-0.25-0.157-0.2-0.365
						c-0.829-0.045-1.499-0.259-2.01-0.642c-0.511-0.381-0.944-0.848-1.296-1.405c-0.354-0.554-0.64-1.156-0.86-1.804
						c-0.217-0.648-0.45-1.271-0.693-1.874v-0.104c0-0.116,0.048-0.186,0.147-0.208c0.097-0.024,0.146-0.094,0.146-0.209
						c0-0.046-0.012-0.08-0.037-0.104c-0.073-0.255-0.134-0.475-0.182-0.66c-0.048-0.184-0.073-0.405-0.073-0.659
						c0-0.37,0.025-0.735,0.073-1.094s0.074-0.724,0.074-1.092c0-0.371-0.05-0.695-0.147-0.973c0.097-0.116,0.177-0.271,0.237-0.468
						c0.062-0.197,0.104-0.4,0.128-0.608c0.023-0.208,0.043-0.416,0.055-0.625c0.012-0.208,0.042-0.392,0.092-0.556
						c-0.099-0.254-0.184-0.479-0.257-0.676c-0.073-0.195-0.108-0.434-0.108-0.711v-0.243c0.242-0.394,0.449-0.8,0.62-1.216
						s0.354-0.845,0.548-1.284v-0.105c0-0.67-0.023-1.341-0.072-2.013c-0.05-0.671-0.073-1.341-0.073-2.013v-0.661
						c0-0.232,0.012-0.451,0.037-0.659c0.194-0.094,0.341-0.221,0.438-0.383c0.097-0.163,0.244-0.291,0.439-0.382l1.205-0.001
						l0.219-0.346c0.074-0.116,0.122-0.245,0.147-0.384c0.268-0.068,0.53-0.167,0.785-0.294c0.256-0.128,0.493-0.262,0.712-0.401
						c0.341-0.184,0.653-0.353,0.932-0.503c0.279-0.151,0.56-0.278,0.84-0.382c0.281-0.105,0.578-0.191,0.896-0.262
						c0.315-0.07,0.682-0.127,1.096-0.175c0.196,0,0.323-0.035,0.383-0.104c0.062-0.068,0.154-0.149,0.274-0.241
						c0.292,0.044,0.586,0.085,0.877,0.119c0.292,0.035,0.585,0.053,0.877,0.053c0.584,0,1.133-0.105,1.644-0.314
						c0.732,0,1.455-0.013,2.174-0.038c0.718-0.022,1.443-0.035,2.173-0.037c0.635,0,1.268,0.024,1.9,0.068
						c0.633,0.046,1.255,0.125,1.865,0.243c0.219-0.071,0.461-0.106,0.73-0.106c0.292,0,0.591,0.028,0.896,0.085
						c0.304,0.059,0.603,0.065,0.894,0.018c0.025,0.254,0.092,0.468,0.202,0.642C63.858,10.77,63.913,10.973,63.913,11.205"/>
					<path id="Fill-5" fill="#FFFFFE" d="M93.473,8.748c0,0.208-0.089,0.382-0.265,0.521c-0.178,0.141-0.265,0.244-0.265,0.314
						c0,0.138,0.021,0.236,0.07,0.295c0.045,0.057,0.07,0.121,0.07,0.19v0.173c-0.236,0.232-0.412,0.481-0.53,0.746
						c-0.118,0.267-0.212,0.544-0.282,0.833s-0.137,0.585-0.194,0.885c-0.06,0.301-0.136,0.59-0.229,0.868
						c-0.118,0.278-0.271,0.514-0.461,0.711c-0.188,0.197-0.34,0.423-0.459,0.679c-0.188,0.416-0.328,0.843-0.422,1.284
						c-0.096,0.439-0.295,0.842-0.602,1.213v0.175c-0.022,0.162,0.022,0.3,0.143,0.416c-0.449,0.579-0.802,1.266-1.063,2.065
						c-0.258,0.798-0.469,1.629-0.635,2.497c-0.164,0.868-0.307,1.736-0.423,2.604c-0.12,0.868-0.26,1.648-0.425,2.342
						c0.118,0.509,0.301,0.988,0.548,1.44c0.247,0.449,0.489,0.917,0.724,1.404c0.472,0.114,0.924,0.276,1.36,0.484
						c0.437,0.208,0.748,0.542,0.937,1.004c-0.047,0.463-0.2,0.822-0.46,1.077c-0.259,0.254-0.577,0.521-0.953,0.798
						c-0.259-0.092-0.472-0.168-0.637-0.224c-0.165-0.059-0.412-0.065-0.741-0.018c-0.447-0.346-0.866-0.624-1.254-0.831
						c-0.389-0.208-0.736-0.566-1.043-1.074c-0.046-0.07-0.117-0.104-0.211-0.104h-0.318c-0.117-0.278-0.26-0.573-0.424-0.884
						c-0.166-0.313-0.33-0.636-0.495-0.971c-0.165-0.336-0.306-0.671-0.423-1.006c-0.118-0.335-0.178-0.641-0.178-0.919
						c0-1.18,0.113-2.354,0.336-3.521c0.225-1.169,0.336-2.354,0.336-3.557V20.31c-0.471,0.114-0.938,0.278-1.396,0.485
						c-0.459,0.209-0.925,0.371-1.395,0.489c-0.166,0.046-0.26,0.127-0.282,0.243c-0.024,0.116-0.096,0.208-0.213,0.278
						c-0.236,0.023-0.459,0.041-0.671,0.052c-0.214,0.013-0.412,0.017-0.601,0.017c-0.401,0-0.82-0.016-1.254-0.051
						c-0.437-0.033-0.866-0.107-1.291-0.224c-0.424-0.114-0.817-0.276-1.183-0.485c-0.365-0.206-0.688-0.473-0.973-0.796
						c-0.045,0.024-0.104,0.046-0.176,0.07c-0.069,0.022-0.141,0.035-0.212,0.035c-0.071,0-0.14-0.011-0.211-0.035
						c-0.071-0.022-0.129-0.046-0.178-0.068c-0.188-0.255-0.341-0.531-0.459-0.833l-0.352-0.901
						c-0.118-0.301-0.247-0.59-0.389-0.868c-0.141-0.278-0.33-0.531-0.565-0.762c-0.071-0.417-0.105-0.821-0.105-1.215
						c0-0.416,0.029-0.82,0.089-1.214c0.058-0.394,0.146-0.785,0.263-1.179c-0.094-0.277-0.158-0.566-0.194-0.868
						s-0.053-0.601-0.053-0.903c0-0.346,0.036-0.706,0.106-1.074c0.071-0.372,0.188-0.714,0.354-1.025
						c0.163-0.313,0.394-0.573,0.688-0.781c0.294-0.209,0.654-0.314,1.078-0.314c0.47,0,0.906,0.121,1.308,0.363
						c0.4,0.243,0.789,0.49,1.164,0.744c0.049,0.277,0.084,0.55,0.106,0.815c0.024,0.267,0.036,0.549,0.036,0.85
						c0,0.555-0.029,1.115-0.09,1.683c-0.058,0.566-0.088,1.138-0.088,1.717c0,0.601,0.077,1.163,0.23,1.682
						c0.154,0.521,0.43,1.011,0.83,1.474h0.141c0.189-0.022,0.354,0.011,0.494,0.104c0.143,0.092,0.308,0.139,0.496,0.139
						c0.164,0,0.295-0.063,0.389-0.192c0.094-0.127,0.211-0.19,0.354-0.19c0.141,0,0.247,0.022,0.318,0.068
						c0.068,0.046,0.129,0.07,0.176,0.07c0.258-0.001,0.553-0.094,0.884-0.279c0.329-0.184,0.541-0.394,0.635-0.625
						c0.095,0.07,0.212,0.105,0.354,0.105c0.188,0,0.365-0.059,0.53-0.175c0.164-0.116,0.376-0.174,0.635-0.174
						c0.143,0,0.195-0.087,0.16-0.26c-0.036-0.173,0.004-0.282,0.123-0.33c0.283-0.114,0.594-0.282,0.937-0.504
						c0.341-0.219,0.618-0.352,0.829-0.398c0.119-0.3,0.266-0.585,0.441-0.85c0.177-0.267,0.361-0.516,0.549-0.746
						c0.07-0.533,0.211-1.042,0.424-1.528s0.436-0.973,0.671-1.458s0.459-0.973,0.672-1.458c0.212-0.485,0.353-0.995,0.423-1.528
						c0.26-0.253,0.466-0.531,0.619-0.831c0.152-0.301,0.287-0.601,0.406-0.903c0.235-0.07,0.529-0.111,0.883-0.122
						c0.353-0.013,0.659-0.019,0.918-0.019h0.602c0.07,0.138,0.164,0.265,0.282,0.382l0.353,0.344
						c-0.211,0.325-0.317,0.65-0.317,0.974c0,0.254,0.058,0.503,0.177,0.744C93.201,8.315,93.33,8.54,93.473,8.748"/>
					<path id="Fill-6" fill="#FFFFFE" d="M113.129,14.849c0-0.115-0.014-0.22-0.036-0.313c-0.234-0.07-0.458-0.163-0.669-0.28
						c-0.21-0.115-0.444-0.174-0.701-0.174c-0.164,0-0.328,0.035-0.492,0.105c-0.024-0.163-0.088-0.28-0.194-0.349
						c-0.104-0.07-0.222-0.134-0.351-0.193c-0.129-0.058-0.259-0.104-0.387-0.137c-0.129-0.035-0.24-0.099-0.335-0.193
						c-0.069-0.187-0.145-0.379-0.228-0.577c-0.082-0.197-0.229-0.344-0.439-0.435c-0.211,0.209-0.456,0.377-0.737,0.506
						s-0.569,0.251-0.861,0.368c-0.292,0.116-0.573,0.257-0.844,0.42c-0.269,0.163-0.498,0.361-0.685,0.594h-0.632
						c-0.142,0.257-0.341,0.451-0.599,0.579s-0.479,0.308-0.668,0.542c-0.374,0.187-0.72,0.414-1.036,0.682
						c-0.316,0.269-0.627,0.548-0.933,0.841c-0.303,0.291-0.602,0.588-0.895,0.891c-0.294,0.302-0.603,0.582-0.932,0.839
						c-0.305,0.652-0.639,1.217-1.002,1.695c-0.363,0.478-0.702,0.962-1.019,1.451s-0.585,1.02-0.809,1.59
						c-0.222,0.572-0.334,1.276-0.334,2.115v0.35c0,0.117,0.013,0.231,0.035,0.35c0.306,0.325,0.556,0.673,0.757,1.046
						c0.197,0.373,0.532,0.639,1.002,0.802c0.467,0.186,0.965,0.267,1.492,0.243c0.527-0.022,1.037,0.034,1.528,0.174
						c1.125-0.211,2.208-0.556,3.251-1.034c1.043-0.479,2.033-1.056,2.971-1.732c0.139-0.118,0.303-0.24,0.491-0.369
						c0.187-0.127,0.339-0.26,0.456-0.401c0.117-0.117,0.217-0.246,0.299-0.385c0.082-0.141,0.171-0.268,0.264-0.385
						c0.188-0.302,0.398-0.605,0.633-0.909c0.233-0.304,0.479-0.582,0.738-0.839c0.117-0.511,0.269-1.008,0.457-1.486
						c0.188-0.478,0.373-0.949,0.562-1.414c0.187-0.466,0.346-0.944,0.474-1.433c0.129-0.491,0.193-1.002,0.193-1.539
						c0-0.115-0.005-0.245-0.016-0.383c-0.014-0.141-0.031-0.269-0.053-0.385C113.033,15.432,113.129,15.152,113.129,14.849z
						 M116.641,13.029c-0.139,0.209-0.221,0.443-0.245,0.7c-0.022,0.256-0.036,0.489-0.036,0.698c0,0.28,0.008,0.553,0.019,0.821
						s0.018,0.53,0.018,0.786v0.524c-0.047,0.163-0.117,0.326-0.21,0.489c-0.094,0.163-0.164,0.326-0.211,0.489
						c-0.328,0.863-0.494,1.724-0.494,2.587v0.068c-0.115,0.281-0.228,0.537-0.332,0.77c-0.104,0.233-0.205,0.46-0.299,0.681
						c-0.094,0.222-0.164,0.454-0.211,0.7c-0.047,0.245-0.059,0.529-0.035,0.855c-0.328,0.816-0.762,1.556-1.3,2.221
						c-0.538,0.665-1.067,1.347-1.581,2.045c-0.492,0.188-0.943,0.431-1.354,0.735s-0.803,0.641-1.178,1.015
						c-0.725,0.233-1.44,0.503-2.145,0.805c-0.701,0.304-1.335,0.712-1.896,1.226c-0.444,0.046-0.891,0.116-1.335,0.211
						c-0.445,0.094-0.879,0.233-1.3,0.42l-0.423,0.001c-0.21,0-0.363-0.048-0.456-0.141c-0.306,0.165-0.622,0.275-0.95,0.333
						c-0.327,0.059-0.655,0.089-0.983,0.089c-0.421,0-0.838-0.029-1.247-0.086c-0.409-0.057-0.826-0.123-1.247-0.19
						c-0.234-0.328-0.563-0.577-0.985-0.751c-0.421-0.176-0.796-0.343-1.123-0.506c-0.68-0.93-1.171-1.833-1.478-2.705
						c-0.305-0.874-0.619-1.858-0.949-2.953c0.049-0.326,0.131-0.646,0.248-0.96c0.117-0.315,0.164-0.658,0.139-1.031
						c0.424-1.212,0.979-2.313,1.67-3.304c0.691-0.991,1.482-1.94,2.373-2.849c0-0.141,0.028-0.257,0.088-0.35
						c0.058-0.093,0.064-0.232,0.018-0.419c0.022,0.022,0.069,0.034,0.14,0.034c0.188,0,0.306-0.053,0.353-0.157
						c0.047-0.105,0.058-0.227,0.033-0.367c0.844-0.537,1.611-1.154,2.303-1.854s1.482-1.283,2.372-1.75
						c0.071-0.211,0.188-0.385,0.353-0.524c0.164-0.141,0.292-0.304,0.385-0.489c0.751-0.211,1.43-0.527,2.04-0.946
						c0.608-0.42,1.251-0.794,1.932-1.12c0.374-0.211,0.732-0.356,1.071-0.438c0.342-0.083,0.709-0.169,1.107-0.264
						c0.142-0.048,0.27-0.082,0.386-0.105c0.118-0.022,0.247-0.035,0.388-0.035c0.422,0,0.832,0.075,1.229,0.227
						c0.399,0.15,0.809,0.225,1.231,0.224c0.118,0,0.218-0.005,0.3-0.016c0.081-0.013,0.168-0.028,0.263-0.053
						c0.399,0.489,0.901,0.861,1.511,1.115c0.14,0.35,0.311,0.652,0.51,0.909c0.199,0.256,0.403,0.505,0.615,0.75
						c0.211,0.246,0.403,0.513,0.58,0.804C116.484,12.289,116.595,12.633,116.641,13.029z"/>
					<path id="Fill-7" fill="#FFFFFE" d="M140.609,27.413c-0.093,0.332-0.241,0.61-0.45,0.832c-0.208,0.222-0.445,0.421-0.71,0.599
						c-0.266,0.176-0.548,0.339-0.849,0.482c-0.301,0.145-0.589,0.307-0.866,0.484h-0.449c-0.97,0.001-1.714-0.225-2.233-0.678
						c-0.519-0.455-0.919-1.021-1.195-1.696c-0.277-0.675-0.479-1.402-0.606-2.178c-0.127-0.775-0.282-1.484-0.466-2.127
						c-0.276,0.222-0.509,0.482-0.693,0.782c-0.186,0.3-0.376,0.595-0.571,0.882c-0.197,0.288-0.416,0.555-0.658,0.799
						c-0.242,0.245-0.561,0.41-0.951,0.5c-0.07,0.155-0.146,0.311-0.227,0.465c-0.08,0.155-0.133,0.322-0.155,0.499
						c-0.509,0.268-0.97,0.578-1.386,0.934c-0.414,0.354-0.831,0.719-1.246,1.098c-0.415,0.377-0.838,0.737-1.264,1.081
						c-0.428,0.345-0.906,0.628-1.438,0.85c-0.022-0.021-0.068-0.034-0.139-0.034c-0.276,0-0.529,0.061-0.762,0.184
						c-0.23,0.122-0.484,0.183-0.762,0.183c-0.185,0-0.353-0.032-0.503-0.099c-0.149-0.065-0.3-0.145-0.45-0.232
						c-0.148-0.088-0.304-0.154-0.467-0.199c-0.162-0.042-0.334-0.055-0.52-0.032c-0.23-0.4-0.537-0.769-0.916-1.113
						c-0.383-0.344-0.618-0.736-0.71-1.18c-0.048-0.199-0.076-0.404-0.087-0.616c-0.014-0.21-0.041-0.426-0.088-0.648
						c-0.069-0.333-0.161-0.671-0.277-1.014c-0.115-0.344-0.207-0.692-0.276-1.046c0.115-0.599,0.227-1.259,0.329-1.98
						c0.104-0.719,0.23-1.44,0.382-2.161c0.149-0.721,0.356-1.408,0.622-2.063c0.266-0.654,0.607-1.213,1.021-1.68l-0.035-0.231
						c0-0.355,0.07-0.687,0.209-0.999c0.139-0.31,0.289-0.608,0.45-0.897c0.161-0.289,0.3-0.578,0.415-0.865
						c0.115-0.289,0.139-0.61,0.07-0.964c0.276-0.134,0.564-0.245,0.863-0.333c0.302-0.09,0.613-0.134,0.937-0.135
						c0.301,0,0.576,0.045,0.831,0.132c-0.045,0.178,0.035,0.289,0.242,0.333v0.099c0,0.467-0.059,0.92-0.172,1.364
						c-0.115,0.444-0.256,0.882-0.417,1.315c-0.161,0.432-0.316,0.864-0.467,1.295c-0.15,0.432-0.26,0.872-0.329,1.314
						c-0.092,0.023-0.156,0.067-0.19,0.134s-0.063,0.134-0.087,0.199c-0.023,0.067-0.057,0.122-0.104,0.167
						c-0.047,0.044-0.115,0.067-0.209,0.067c-0.138,0.775-0.281,1.546-0.432,2.312c-0.15,0.765-0.225,1.534-0.225,2.312
						c0,0.465,0.045,0.941,0.137,1.429c0.094,0.488,0.267,0.952,0.52,1.395l0.14-0.032c0.253,0,0.456,0.055,0.606,0.164
						c0.148,0.112,0.352,0.222,0.605,0.333c0.185-0.044,0.359-0.106,0.52-0.183c0.162-0.079,0.23-0.217,0.207-0.417
						c0.301-0.023,0.556-0.094,0.764-0.217c0.207-0.122,0.391-0.26,0.553-0.416l0.519-0.467c0.186-0.155,0.404-0.266,0.659-0.332
						c0-0.134,0.035-0.234,0.104-0.301l0.208-0.199c0.067-0.067,0.121-0.139,0.154-0.216c0.035-0.078,0.041-0.195,0.018-0.35
						c0.277-0.023,0.49-0.088,0.64-0.201c0.15-0.111,0.29-0.239,0.417-0.382c0.127-0.145,0.248-0.293,0.363-0.448
						c0.116-0.155,0.266-0.291,0.45-0.4c0.161-0.333,0.387-0.777,0.675-1.332c0.289-0.553,0.578-1.13,0.866-1.729
						s0.543-1.171,0.762-1.714c0.22-0.542,0.329-0.958,0.329-1.245c0-0.113-0.029-0.211-0.087-0.3
						c-0.058-0.09-0.074-0.188-0.051-0.299v-0.101c0.184-0.222,0.352-0.465,0.501-0.731c0.15-0.268,0.312-0.521,0.486-0.765
						c0.172-0.245,0.361-0.467,0.569-0.667c0.209-0.201,0.474-0.355,0.797-0.467c0.37,0.111,0.745,0.187,1.126,0.233
						c0.381,0.042,0.744,0.131,1.091,0.265c0.022,0.553,0.081,1.197,0.173,1.928s0.253,1.352,0.484,1.861
						c0,0.287-0.005,0.565-0.016,0.83c-0.013,0.268-0.02,0.532-0.02,0.798c0,0.444,0.02,0.899,0.053,1.364
						c0.035,0.465,0.109,0.898,0.227,1.297c-0.162,0.333-0.244,0.688-0.244,1.063c0,0.511,0.082,0.993,0.244,1.448
						c0.161,0.453,0.277,0.937,0.345,1.446c0.302,0.398,0.692,0.598,1.179,0.598c0.113,0,0.212-0.012,0.294-0.035
						c0.079-0.021,0.167-0.055,0.26-0.099c0.185,0.199,0.352,0.394,0.502,0.581C140.223,27.086,140.401,27.258,140.609,27.413"/>
					<g id="Group-11" transform="translate(139.010870, 26.529412)">
						<path id="Fill-8" fill="#FFFFFE" d="M7.674,2.128c0,0.361-0.067,0.702-0.201,1.028C7.339,3.479,7.186,3.798,7.015,4.111
							L6.503,5.047C6.331,5.358,6.198,5.682,6.099,6.02L5.951,5.984c-0.342,0-0.67,0.043-0.988,0.127
							C4.645,6.195,4.327,6.285,4.011,6.382C3.692,6.478,3.37,6.575,3.04,6.671C2.71,6.767,2.374,6.815,2.032,6.815
							C1.983,6.481,1.88,6.18,1.721,5.916C1.561,5.653,1.274,5.519,0.859,5.521C0.786,5.328,0.744,5.124,0.732,4.908
							C0.719,4.693,0.712,4.482,0.712,4.279c0-0.204-0.017-0.408-0.053-0.613C0.622,3.462,0.555,3.263,0.458,3.072
							c0.438-0.336,0.805-0.74,1.097-1.208c0.295-0.468,0.624-0.896,0.99-1.28c0.294,0.071,0.599,0.107,0.917,0.107
							c0.365,0,0.732-0.043,1.099-0.127c0.365-0.084,0.732-0.127,1.099-0.127c0.391,0,0.758,0.094,1.1,0.287
							c0.072,0.12,0.123,0.252,0.146,0.396C6.93,1.265,6.972,1.404,7.034,1.536c0.06,0.131,0.133,0.247,0.219,0.341
							c0.086,0.095,0.227,0.145,0.421,0.145V2.128"/>
					</g>
				</g>
				<g id="be-great" transform="translate(0.000000, 45.000000)">
					<path id="Fill-10" fill="#FFFFFE" d="M38.364,26.762c0,0.302-0.082,0.576-0.248,0.82c-0.163,0.244-0.209,0.529-0.139,0.854
						c-0.095,0.163-0.217,0.29-0.37,0.382c-0.153,0.095-0.206,0.269-0.159,0.525c-0.492,0.255-0.944,0.575-1.353,0.959
						c-0.41,0.383-0.851,0.75-1.32,1.1c-0.281,0.21-0.521,0.355-0.72,0.437s-0.439,0.202-0.72,0.366l-0.88,0.561
						c-0.399,0.208-0.802,0.417-1.212,0.627c-0.412,0.209-0.78,0.477-1.108,0.803c-0.492,0.023-0.997,0.159-1.513,0.401
						c-0.515,0.245-1.007,0.462-1.476,0.647c-0.187,0.07-0.375,0.123-0.562,0.158c-0.189,0.035-0.376,0.099-0.564,0.192
						l-0.563,0.244c-0.328,0.163-0.714,0.331-1.16,0.505c-0.445,0.178-0.844,0.266-1.195,0.266c-0.21,0.092-0.388,0.254-0.529,0.487
						c-0.773,0.257-1.57,0.454-2.39,0.595c-0.822,0.143-1.618,0.361-2.393,0.666c-0.257,0.115-0.521,0.273-0.79,0.471
						c-0.27,0.197-0.558,0.283-0.862,0.262c-0.071,0.116-0.117,0.258-0.142,0.419c-0.022,0.165-0.058,0.327-0.104,0.489h-0.106
						c-0.093,0-0.135-0.046-0.122-0.141c0.011-0.092-0.031-0.14-0.124-0.14c-0.071,0-0.117,0.013-0.142,0.036
						c-0.304,0.07-0.592,0.128-0.86,0.174C14.27,39.975,13.971,40,13.643,40c-0.188,0-0.487-0.023-0.896-0.07
						c-0.412-0.046-0.709-0.104-0.897-0.174c-0.14-0.071-0.259-0.199-0.352-0.387c-0.093-0.188-0.182-0.39-0.264-0.599
						c-0.082-0.212-0.153-0.429-0.21-0.651c-0.058-0.223-0.111-0.405-0.158-0.546c0.069-0.258,0.187-0.469,0.351-0.633
						c0.164-0.163,0.294-0.374,0.388-0.632c0.21-0.025,0.421-0.061,0.632-0.109c0.212-0.047,0.423-0.058,0.633-0.033
						c0.727-0.209,1.458-0.413,2.198-0.609c0.738-0.197,1.47-0.4,2.198-0.607c0.726-0.211,1.441-0.441,2.144-0.695
						c0.705-0.258,1.383-0.57,2.041-0.94h0.738c0.421-0.233,0.891-0.429,1.406-0.592c0.516-0.161,0.939-0.427,1.267-0.798
						c0.773-0.162,1.582-0.382,2.426-0.66c0.843-0.279,1.547-0.718,2.11-1.32c0.351-0.047,0.656-0.135,0.914-0.262
						c0.259-0.129,0.503-0.264,0.74-0.403l0.701-0.453c0.236-0.163,0.505-0.29,0.809-0.384c0.19-0.187,0.365-0.385,0.527-0.594
						c0.166-0.209,0.365-0.384,0.6-0.523c-0.071-0.372-0.259-0.649-0.563-0.836c-0.306-0.187-0.574-0.406-0.809-0.662l-0.774,0.002
						c-0.609-0.371-1.26-0.656-1.952-0.854c-0.691-0.197-1.378-0.41-2.058-0.643c-0.047-0.023-0.104-0.035-0.175-0.035
						c-0.164,0-0.264,0.06-0.299,0.174c-0.034,0.117-0.135,0.163-0.297,0.141c-0.212-0.139-0.434-0.227-0.669-0.26
						c-0.235-0.035-0.481-0.055-0.738-0.051c-0.328,0-0.649,0.016-0.968,0.053c-0.315,0.035-0.639,0.051-0.966,0.053
						c-0.164,0-0.328-0.012-0.492-0.035c-0.164-0.022-0.328-0.082-0.494-0.174h-0.457c-0.491,0.002-0.978,0.02-1.459,0.056
						c-0.48,0.033-0.955,0.051-1.424,0.053c-0.257,0-0.503-0.005-0.738-0.017s-0.468-0.041-0.703-0.088
						c-0.492,0.233-1.02,0.396-1.583,0.49s-1.143,0.164-1.742,0.212c-0.596,0.046-1.188,0.088-1.775,0.123
						c-0.585,0.034-1.148,0.101-1.687,0.192c-0.142-0.021-0.276-0.039-0.405-0.051c-0.128-0.012-0.252-0.018-0.368-0.018
						c-0.119,0-0.241,0.006-0.37,0.018c-0.128,0.012-0.252,0.03-0.37,0.055c-0.304-0.327-0.674-0.564-1.108-0.715
						c-0.433-0.151-0.86-0.248-1.283-0.295c-0.328-0.396-0.568-0.795-0.721-1.202c-0.152-0.408-0.252-0.866-0.299-1.378h0.142
						c0.164,0,0.239-0.08,0.228-0.243c-0.013-0.163,0.041-0.304,0.158-0.418c0.117-0.14,0.276-0.239,0.475-0.298
						c0.199-0.059,0.394-0.123,0.58-0.191c0.188-0.072,0.37-0.158,0.545-0.264c0.175-0.104,0.31-0.271,0.405-0.505l0.457-0.001
						c0.093,0,0.193,0.006,0.299,0.017c0.104,0.013,0.193,0.053,0.264,0.123c0.093-0.095,0.21-0.175,0.351-0.245
						c0.142-0.068,0.276-0.139,0.405-0.209c0.128-0.07,0.239-0.152,0.334-0.246c0.093-0.092,0.152-0.232,0.175-0.418
						c0.022,0.07,0.082,0.105,0.175,0.105c0.095,0,0.182-0.023,0.264-0.07c0.082-0.046,0.182-0.057,0.299-0.035
						c0.118-0.326,0.317-0.5,0.598-0.522c0.282-0.024,0.539-0.106,0.773-0.245c0.164-0.094,0.317-0.205,0.457-0.332
						c0.142-0.127,0.294-0.25,0.458-0.367l2.11-1.605l3.234-2.443c1.079-0.814,2.181-1.57,3.305-2.27
						c0.048-0.139,0.119-0.243,0.212-0.313c0.095-0.07,0.188-0.146,0.281-0.227c0.095-0.083,0.17-0.169,0.23-0.261
						c0.058-0.095,0.076-0.233,0.051-0.42c0.328-0.07,0.581-0.199,0.757-0.385c0.174-0.186,0.333-0.391,0.475-0.609
						c0.138-0.223,0.286-0.443,0.439-0.664c0.153-0.22,0.357-0.389,0.616-0.506c-0.024-0.069-0.037-0.174-0.037-0.313
						c0-0.187,0.018-0.372,0.055-0.557c0.034-0.187,0.122-0.351,0.264-0.491c-0.212-0.487-0.576-0.84-1.09-1.062
						c-0.516-0.22-1.008-0.411-1.478-0.573h-0.104c-0.119,0-0.183,0.052-0.194,0.157s-0.076,0.181-0.193,0.227
						c-0.375-0.091-0.797-0.139-1.265-0.138c-0.47,0-0.933,0.035-1.39,0.105s-0.92,0.083-1.389,0.037
						c-0.071,0.092-0.146,0.187-0.229,0.279c-0.082,0.094-0.182,0.174-0.299,0.243c-0.492,0.024-0.984,0.095-1.477,0.21L15.19,6.041
						l-0.809,0.176c-0.117,0.046-0.198,0.127-0.246,0.243c-0.046,0.116-0.082,0.244-0.106,0.383
						c-0.14-0.022-0.229-0.081-0.262-0.174c-0.035-0.093-0.124-0.163-0.264-0.207c-0.541,0.325-1.121,0.593-1.742,0.802
						c-0.621,0.211-1.177,0.535-1.669,0.979c-0.164-0.186-0.399-0.28-0.705-0.278c-0.257,0-0.539,0.081-0.844,0.245
						C8.24,8.372,8.052,8.58,7.982,8.838c-0.235-0.049-0.412-0.07-0.527-0.07c-0.259,0-0.476,0.07-0.651,0.21
						c-0.177,0.139-0.346,0.297-0.51,0.472C6.13,9.623,5.953,9.791,5.767,9.953c-0.188,0.163-0.421,0.259-0.705,0.281
						c0,0.116,0.007,0.238,0.018,0.366c0.013,0.128,0.018,0.262,0.018,0.4c0,1.046-0.058,2.085-0.175,3.12
						c-0.118,1.035-0.177,2.074-0.177,3.12c0,0.232,0.013,0.459,0.035,0.681c0.024,0.22,0.035,0.459,0.035,0.715
						c0,0.069-0.051,0.219-0.157,0.452c-0.106,0.234-0.182,0.408-0.229,0.524c0.093,0.256,0.135,0.512,0.122,0.768
						c-0.011,0.256,0.042,0.498,0.159,0.729c-0.21,0.188-0.316,0.443-0.316,0.769c0,0.141,0.006,0.279,0.018,0.42
						c0.011,0.139,0.018,0.278,0.018,0.417v0.418c-0.071,0.466-0.117,0.936-0.142,1.413c-0.022,0.477-0.035,0.946-0.035,1.412
						c0,0.209,0.006,0.563,0.019,1.063c0.011,0.499,0.041,1.057,0.087,1.673c0.048,0.615,0.118,1.249,0.212,1.9
						c0.093,0.65,0.215,1.248,0.368,1.795c0.153,0.545,0.346,0.993,0.581,1.34c0.233,0.35,0.516,0.523,0.844,0.523
						c0.069,0,0.158-0.011,0.262-0.035c0.106-0.023,0.159-0.082,0.159-0.176c0-0.092-0.018-0.174-0.053-0.243
						c-0.035-0.07-0.051-0.151-0.051-0.244l0.034-0.07c0.188,0.095,0.392,0.151,0.616,0.176c0.224,0.022,0.452,0.044,0.685,0.068
						c0.235,0.022,0.458,0.063,0.669,0.121c0.211,0.058,0.399,0.179,0.563,0.365c-0.095,0.187-0.142,0.384-0.142,0.593
						c0,0.279,0.071,0.541,0.21,0.785c0.142,0.244,0.235,0.494,0.283,0.749c-0.447,0.14-0.851,0.296-1.214,0.47
						c-0.364,0.178-0.721,0.34-1.073,0.492c-0.352,0.149-0.727,0.289-1.125,0.417c-0.399,0.129-0.855,0.217-1.372,0.263
						c-0.328-0.207-0.607-0.395-0.842-0.555c-0.235-0.164-0.552-0.268-0.951-0.314c-0.609-0.813-1.113-1.723-1.511-2.733
						c-0.399-1.013-0.709-2.063-0.933-3.155c-0.222-1.092-0.375-2.191-0.457-3.294C0.04,26.828,0,25.788,0,24.813
						c0-1.07,0.04-2.133,0.122-3.19c0.082-1.059,0.195-2.12,0.334-3.19c0.047-0.324,0.093-0.656,0.14-0.994
						c0.048-0.337,0.093-0.668,0.142-0.994c0.046-0.115,0.086-0.25,0.122-0.401c0.035-0.149,0.053-0.284,0.053-0.399
						c0-0.396-0.011-0.791-0.036-1.186c-0.022-0.395-0.035-0.779-0.035-1.15c0-0.582,0.035-1.174,0.106-1.778
						c0.024-0.118,0.064-0.268,0.122-0.454c0.06-0.186,0.088-0.348,0.088-0.488c0-0.185-0.046-0.313-0.14-0.383
						c-0.095-0.069-0.177-0.186-0.246-0.349c0.069-0.233,0.129-0.459,0.175-0.679C0.996,8.953,1.02,8.728,1.02,8.494
						c0-0.441-0.082-0.824-0.246-1.148c0.117-0.606,0.292-1.198,0.527-1.779c0.233-0.581,0.645-1.024,1.23-1.327
						C3,4.264,3.475,4.31,3.956,4.378c0.48,0.07,0.896,0.267,1.248,0.592c0.164-0.093,0.351-0.151,0.563-0.176l0.667-0.069
						C6.668,4.7,6.879,4.66,7.067,4.602C7.255,4.544,7.419,4.421,7.56,4.236c0.468-0.094,0.973-0.229,1.512-0.403
						c0.54-0.176,1.008-0.38,1.407-0.61l0.773-0.002c0.164-0.117,0.353-0.197,0.563-0.246l0.669-0.174
						c0.235-0.07,0.45-0.14,0.65-0.21c0.199-0.07,0.357-0.185,0.474-0.349h0.142c0.539,0,1.066-0.119,1.583-0.35
						c0.514-0.234,1.019-0.443,1.511-0.63c0.118-0.048,0.299-0.128,0.545-0.244c0.246-0.118,0.417-0.175,0.51-0.175
						c0.328-0.047,0.656-0.077,0.984-0.09c0.33-0.011,0.658-0.051,0.986-0.123c0.75-0.115,1.494-0.25,2.232-0.401
						C22.838,0.076,23.583,0,24.333,0c0.257,0,0.498,0.005,0.72,0.018c0.224,0.012,0.463,0.029,0.722,0.051
						c0.022,0.093,0.08,0.169,0.175,0.227c0.093,0.058,0.18,0.109,0.264,0.156c0.082,0.048,0.157,0.111,0.228,0.193
						c0.071,0.081,0.093,0.191,0.071,0.331c0.047,0.045,0.093,0.069,0.14,0.069c0.069,0,0.135-0.035,0.194-0.105
						c0.058-0.07,0.145-0.105,0.264-0.105h0.175c0.306,0.325,0.603,0.633,0.897,0.923c0.291,0.29,0.661,0.528,1.106,0.714
						c0.187,0.697,0.41,1.383,0.667,2.057c0.259,0.674,0.387,1.395,0.387,2.16c0,0.467-0.071,0.919-0.21,1.361
						c-0.33,0.162-0.563,0.417-0.703,0.768c-0.142,0.348-0.271,0.686-0.388,1.011c-0.656,0.325-1.208,0.756-1.653,1.292
						c-0.445,0.533-0.902,1.069-1.372,1.605h-0.563c-0.093,0-0.163,0.035-0.211,0.105l-0.317,0.348
						c-0.21,0.186-0.439,0.373-0.685,0.559c-0.246,0.188-0.428,0.431-0.543,0.732c-0.729,0.396-1.425,0.838-2.094,1.326
						c-0.667,0.489-1.307,1.002-1.917,1.537c-0.257,0.211-0.515,0.447-0.773,0.716c-0.257,0.268-0.515,0.494-0.773,0.681
						c-0.14,0.116-0.299,0.215-0.475,0.297c-0.175,0.081-0.334,0.18-0.475,0.297c-0.305,0.232-0.587,0.47-0.844,0.715
						c-0.257,0.244-0.527,0.471-0.809,0.682c1.055-0.049,2.121-0.078,3.2-0.092c1.077-0.012,2.145-0.029,3.2-0.055
						c0.539,0,1.066-0.018,1.583-0.053c0.516-0.037,1.043-0.055,1.583-0.055c0.093,0,0.175,0.018,0.246,0.053
						c0.071,0.033,0.153,0.063,0.246,0.086c0.399,0.07,0.75,0.15,1.055,0.242c1.125,0.209,2.251,0.395,3.375,0.555
						c1.126,0.163,2.228,0.43,3.307,0.801c0.304,0.115,0.534,0.242,0.687,0.381c0.151,0.141,0.426,0.176,0.825,0.104
						c0.328,0.325,0.687,0.582,1.073,0.768c0.386,0.185,0.78,0.347,1.179,0.486c0.304,0.465,0.592,0.904,0.862,1.322
						C38.229,25.682,38.364,26.182,38.364,26.762"/>
					<path id="Fill-12" fill="#FFFFFE" d="M63.14,9.549v0.137c-0.17,0.048-0.256,0.163-0.256,0.346
						c-0.267,0.116-0.548,0.203-0.84,0.262s-0.573,0.144-0.841,0.259c-0.268-0.022-0.542-0.04-0.822-0.051s-0.555-0.016-0.822-0.016
						c-0.732,0-1.462,0.023-2.193,0.071c-0.73,0.045-1.462,0.045-2.193,0.002c-0.343,0.183-0.714,0.328-1.115,0.431
						c-0.403,0.106-0.786,0.158-1.152,0.158c-0.292,0-0.548-0.033-0.767-0.103c-0.585,0.276-1.225,0.507-1.918,0.691
						c-0.695,0.186-1.396,0.365-2.103,0.537c-0.707,0.174-1.382,0.37-2.027,0.59c-0.647,0.219-1.213,0.524-1.702,0.918
						c-0.047,0.322-0.083,0.639-0.108,0.949c-0.025,0.312-0.035,0.616-0.035,0.916c0,0.322,0.017,0.621,0.053,0.898
						c0.037,0.275,0.115,0.553,0.237,0.827c0.124,0.048,0.263,0.082,0.419,0.104c0.159,0.021,0.299,0.035,0.421,0.035
						c0.122-0.002,0.244-0.018,0.366-0.053s0.207-0.11,0.255-0.225c0.366-0.047,0.73-0.064,1.097-0.053
						c0.364,0.01,0.73,0.017,1.096,0.017c0.366,0,0.724-0.015,1.078-0.036c0.353-0.023,0.7-0.082,1.042-0.174
						c0.391-0.094,0.773-0.15,1.151-0.174s0.749-0.047,1.115-0.071c0.366-0.023,0.744-0.063,1.133-0.122
						c0.389-0.057,0.792-0.178,1.205-0.363c0.317,0.115,0.64,0.173,0.969,0.171c0.329,0,0.652,0.024,0.968,0.069
						c0.172,0.114,0.311,0.242,0.421,0.379c0.11,0.139,0.164,0.299,0.164,0.484c0,0.322-0.12,0.645-0.366,0.967
						c-0.242,0.324-0.436,0.624-0.583,0.9h-0.403c-0.583,0-1.15,0.076-1.698,0.227c-0.548,0.149-1.096,0.323-1.646,0.52
						c-0.548,0.195-1.097,0.369-1.645,0.52c-0.548,0.15-1.115,0.227-1.698,0.227c-0.099,0-0.152,0.051-0.166,0.156
						c-0.012,0.102-0.043,0.176-0.092,0.224c-0.121-0.023-0.303-0.034-0.548-0.034c-0.56,0-1.095,0.059-1.608,0.175
						c-0.511,0.116-1.035,0.174-1.571,0.174c-0.145,0-0.292-0.005-0.438-0.017c-0.147-0.012-0.292-0.029-0.44-0.053
						c-0.122,0.187-0.281,0.307-0.475,0.365c-0.195,0.057-0.377,0.154-0.548,0.293c-0.073,0.206-0.115,0.462-0.127,0.761
						c-0.013,0.298-0.025,0.604-0.038,0.916c-0.01,0.31-0.042,0.604-0.09,0.88c-0.05,0.277-0.146,0.496-0.292,0.658
						c0.025,0.115,0.122,0.154,0.292,0.119c0.17-0.036,0.255,0.039,0.255,0.225c0,0.207-0.025,0.427-0.073,0.656
						c-0.048,0.231-0.074,0.463-0.074,0.691c0,0.438,0.055,0.915,0.166,1.434c0.109,0.518,0.281,0.996,0.512,1.433
						c0.23,0.438,0.543,0.8,0.933,1.087c0.388,0.289,0.875,0.432,1.46,0.432c0.39,0,0.755-0.07,1.097-0.207
						c0.341-0.14,0.622-0.37,0.84-0.692l0.184-0.034c0.097-0.002,0.189,0.009,0.274,0.033c0.083,0.023,0.176,0.034,0.274,0.034
						c0.147,0,0.334-0.085,0.566-0.259c0.23-0.174,0.488-0.377,0.767-0.605c0.281-0.232,0.565-0.457,0.857-0.676
						c0.294-0.219,0.573-0.375,0.842-0.467c0.17-0.322,0.334-0.645,0.493-0.967c0.159-0.324,0.395-0.576,0.712-0.762v-1.002
						c0.244-0.252,0.506-0.484,0.787-0.691s0.492-0.473,0.639-0.795c0.122,0.045,0.237,0.079,0.346,0.104
						c0.112,0.021,0.227,0.034,0.347,0.034c0.124,0,0.251-0.013,0.385-0.034c0.134-0.025,0.262-0.059,0.383-0.105
						c0.197,0.254,0.348,0.536,0.458,0.846c0.11,0.312,0.25,0.605,0.421,0.881c-0.221,0.415-0.475,0.911-0.767,1.486
						c-0.294,0.576-0.61,1.153-0.953,1.729c-0.341,0.576-0.699,1.125-1.077,1.643c-0.379,0.517-0.749,0.916-1.115,1.193
						c-0.073,0.067-0.232,0.148-0.475,0.241c-0.267,0.185-0.513,0.363-0.732,0.536c-0.219,0.174-0.426,0.375-0.622,0.606
						c-0.707,0.207-1.382,0.485-2.027,0.829c-0.646,0.346-1.286,0.683-1.919,1.005c-0.292-0.069-0.608-0.104-0.951-0.104
						c-0.291,0-0.585,0.02-0.878,0.055c-0.292,0.034-0.608,0.052-0.949,0.052c-0.099-0.116-0.237-0.19-0.419-0.225
						c-0.184-0.033-0.25-0.156-0.202-0.362c-0.827-0.045-1.499-0.259-2.009-0.638c-0.513-0.38-0.946-0.844-1.299-1.398
						c-0.354-0.552-0.64-1.149-0.859-1.794c-0.219-0.646-0.45-1.268-0.695-1.865v-0.104c0-0.115,0.05-0.186,0.147-0.209
						c0.099-0.021,0.146-0.092,0.146-0.207c0-0.046-0.012-0.08-0.035-0.103c-0.074-0.255-0.134-0.473-0.184-0.655
						c-0.048-0.186-0.073-0.403-0.073-0.658c0-0.367,0.025-0.729,0.073-1.088c0.05-0.357,0.074-0.719,0.074-1.089
						c0-0.368-0.048-0.69-0.147-0.967c0.099-0.115,0.179-0.272,0.239-0.466c0.06-0.196,0.104-0.398,0.127-0.605
						c0.025-0.207,0.043-0.416,0.055-0.623s0.043-0.391,0.092-0.553c-0.097-0.252-0.182-0.477-0.255-0.673
						c-0.074-0.196-0.11-0.431-0.11-0.708v-0.243c0.244-0.39,0.451-0.793,0.622-1.208c0.17-0.414,0.353-0.841,0.548-1.278v-0.104
						c0-0.668-0.025-1.335-0.072-2.004c-0.05-0.668-0.074-1.336-0.074-2.004v-0.656c0-0.23,0.012-0.449,0.035-0.657
						c0.195-0.092,0.341-0.218,0.439-0.379c0.097-0.161,0.242-0.288,0.439-0.381l1.205-0.002l0.219-0.345
						c0.073-0.115,0.122-0.242,0.147-0.381c0.268-0.068,0.528-0.167,0.786-0.295c0.255-0.126,0.493-0.259,0.712-0.396
						c0.343-0.185,0.652-0.352,0.933-0.502c0.279-0.15,0.56-0.277,0.841-0.381c0.279-0.104,0.578-0.191,0.894-0.26
						c0.317-0.069,0.682-0.127,1.096-0.175c0.196,0,0.324-0.033,0.385-0.103c0.06-0.07,0.152-0.15,0.274-0.244
						c0.292,0.047,0.585,0.088,0.876,0.122c0.294,0.033,0.586,0.051,0.879,0.051c0.583,0,1.133-0.104,1.645-0.313
						c0.73-0.001,1.454-0.012,2.174-0.035C55.032,8.013,55.756,8,56.488,8c0.633-0.002,1.267,0.022,1.9,0.066
						c0.633,0.046,1.253,0.127,1.865,0.24c0.217-0.069,0.461-0.103,0.729-0.103c0.294-0.002,0.592,0.026,0.896,0.083
						c0.306,0.059,0.603,0.063,0.896,0.018c0.025,0.253,0.092,0.467,0.203,0.641C63.085,9.117,63.14,9.318,63.14,9.549"/>
					<path id="Fill-13" fill="#FFFFFE" d="M111.095,12.658c-0.071,0.205-0.206,0.349-0.403,0.429
						c-0.199,0.08-0.406,0.145-0.616,0.19c-0.212,0.045-0.405,0.121-0.581,0.223c-0.175,0.105-0.287,0.271-0.332,0.5l-0.071,0.034
						c-0.095,0-0.159-0.03-0.192-0.086c-0.037-0.057-0.064-0.115-0.089-0.171c-0.022-0.059-0.054-0.115-0.087-0.172
						c-0.037-0.059-0.088-0.086-0.159-0.086c-0.257,0-0.511,0.023-0.757,0.068c-0.244,0.046-0.486,0.069-0.721,0.069
						c-0.353,0-0.668-0.046-0.949-0.136c-0.164,0.047-0.252,0.15-0.263,0.311c-0.013,0.16-0.089,0.262-0.23,0.308
						c-0.116,0.046-0.257,0.063-0.42,0.054c-0.166-0.013-0.328,0.004-0.494,0.05l-1.124,0.276c-0.376,0.094-0.751,0.139-1.125,0.139
						c-0.211,0-0.364-0.011-0.458-0.033c-0.351,0.275-0.75,0.477-1.195,0.602c-0.445,0.127-0.909,0.242-1.389,0.345
						c-0.481,0.104-0.951,0.235-1.407,0.397c-0.457,0.16-0.86,0.414-1.212,0.758c-0.188-0.046-0.352-0.069-0.492-0.069
						c-0.306,0-0.574,0.063-0.809,0.19c-0.235,0.127-0.481,0.246-0.738,0.361c-0.119,0.045-0.235,0.069-0.352,0.069
						c-0.116,0-0.246,0.023-0.386,0.069c-0.142,0.045-0.23,0.119-0.264,0.223c-0.035,0.104-0.112,0.201-0.23,0.293
						c0,0.824,0.083,1.643,0.246,2.455c0.166,0.814,0.248,1.633,0.248,2.459v0.138c0.047,0.388,0.175,0.75,0.386,1.081
						c0.212,0.332,0.316,0.67,0.316,1.014c0,0.115-0.024,0.24-0.07,0.379c0.609,0.137,1.015,0.438,1.212,0.908
						c0.199,0.471,0.365,0.975,0.494,1.512c0.128,0.537,0.304,1.037,0.527,1.494c0.224,0.459,0.663,0.744,1.319,0.859
						c0.045,0.229,0.082,0.465,0.106,0.703c0.022,0.24,0.034,0.475,0.034,0.704c0,0.321-0.034,0.637-0.104,0.946
						s-0.21,0.591-0.423,0.842c-0.352,0.022-0.609,0.035-0.773,0.035s-0.41,0.07-0.738,0.207c-0.468-0.274-0.884-0.589-1.25-0.942
						c-0.362-0.356-0.701-0.733-1.02-1.135c-0.315-0.401-0.625-0.813-0.931-1.235c-0.304-0.424-0.632-0.831-0.984-1.219
						c-1.221,0.298-2.467,0.499-3.745,0.604c-1.278,0.104-2.549,0.157-3.816,0.157c-0.047,0.047-0.116,0.068-0.211,0.068
						c-0.095,0.002-0.182,0.008-0.264,0.02c-0.082,0.011-0.153,0.033-0.21,0.067c-0.06,0.034-0.077,0.098-0.053,0.19
						c-0.164-0.093-0.346-0.156-0.545-0.188c-0.2-0.034-0.381-0.052-0.545-0.052c-0.117,0-0.233,0.006-0.352,0.018
						c-0.117,0.012-0.233,0.053-0.351,0.12c-0.891-0.159-1.753-0.382-2.586-0.667c-0.831-0.285-1.682-0.52-2.549-0.703
						c0-0.182-0.046-0.314-0.141-0.395c-0.092-0.08-0.175-0.199-0.245-0.361c-0.984-0.594-1.813-1.314-2.479-2.161
						c-0.669-0.849-0.944-1.878-0.827-3.093l-0.246-0.48c0-0.366,0.082-0.631,0.246-0.791c-0.093-0.16-0.257-0.32-0.492-0.48
						c0.212-0.32,0.399-0.654,0.562-0.996c0.166-0.346,0.283-0.711,0.352-1.102c0.024-0.113,0.035-0.217,0.035-0.309
						c0-0.091,0.024-0.195,0.071-0.31c0.047-0.137,0.113-0.292,0.195-0.465c0.08-0.171,0.157-0.325,0.227-0.462
						c0.376-0.781,0.791-1.531,1.25-2.254c0.457-0.721,1.037-1.347,1.742-1.873c0.045-0.391,0.162-0.717,0.351-0.98
						c0.187-0.265,0.392-0.505,0.614-0.722c0.223-0.219,0.445-0.443,0.669-0.673c0.223-0.228,0.392-0.503,0.511-0.823
						c0.468-0.392,0.94-0.769,1.421-1.136c0.481-0.368,0.886-0.804,1.214-1.309c0.423-0.138,0.82-0.315,1.195-0.532
						c0.376-0.218,0.693-0.499,0.95-0.844c0.563-0.046,1.119-0.149,1.671-0.31c0.55-0.16,1.13-0.242,1.74-0.244
						c0.257,0,0.569,0.053,0.931,0.154c0.365,0.102,0.64,0.281,0.828,0.533c0.022,0.045,0.034,0.104,0.034,0.171l0.036,0.173
						c0.024,0.044,0.053,0.085,0.088,0.119c0.035,0.033,0.1,0.039,0.193,0.016c0,0.505-0.058,1.014-0.175,1.531
						c-0.117,0.516-0.421,0.911-0.915,1.185c-0.304-0.089-0.634-0.135-0.984-0.135c-0.468,0-0.897,0.087-1.284,0.259
						c-0.386,0.172-0.762,0.367-1.125,0.585s-0.731,0.436-1.108,0.653c-0.375,0.219-0.773,0.375-1.195,0.466
						c-0.046,0.184-0.088,0.349-0.124,0.498c-0.035,0.149-0.029,0.315,0.02,0.498c-0.119,0-0.206-0.016-0.264-0.05
						c-0.061-0.035-0.148-0.053-0.265-0.053c-0.164,0-0.275,0.094-0.334,0.275c-0.058,0.184-0.111,0.333-0.158,0.446
						c-0.445,0.186-0.815,0.443-1.108,0.774c-0.293,0.334-0.562,0.689-0.809,1.067c-0.246,0.378-0.51,0.739-0.791,1.083
						c-0.282,0.344-0.632,0.607-1.055,0.792c-0.187,0.732-0.368,1.454-0.545,2.164c-0.175,0.712-0.379,1.423-0.616,2.131
						c0.071,0.276,0.106,0.563,0.106,0.86c0,0.367-0.035,0.699-0.106,0.997c0.119,0.183,0.236,0.401,0.352,0.652l0.423,0.789
						c0.142,0.274,0.286,0.528,0.439,0.757s0.299,0.4,0.44,0.515c0.257,0.183,0.656,0.349,1.195,0.497
						c0.539,0.148,1.02,0.394,1.441,0.738c0.048,0,0.106-0.007,0.177-0.018c0.071-0.013,0.129-0.02,0.175-0.02
						c0.282,0,0.585,0.07,0.914,0.207c0.33,0.137,0.541,0.205,0.634,0.205c1.312,0,2.743-0.09,4.29-0.261
						c1.547-0.175,2.977-0.387,4.291-0.642c0.046-0.229,0.071-0.424,0.071-0.584c0-0.297-0.047-0.59-0.142-0.875
						c-0.093-0.287-0.245-0.533-0.457-0.739c0-0.343,0.006-0.687,0.018-1.03c0.011-0.345,0.018-0.688,0.018-1.031
						c0-0.572-0.022-1.18-0.071-1.821c-0.046-0.642-0.164-1.237-0.351-1.787H90.56c-0.305,0.001-0.581,0.075-0.827,0.225
						c-0.246,0.147-0.498,0.225-0.757,0.225c-0.14,0-0.257-0.034-0.352-0.104c-0.28,0.322-0.619,0.563-1.018,0.724
						c-0.398,0.16-0.82,0.305-1.265,0.43c-0.447,0.127-0.886,0.258-1.32,0.398c-0.433,0.137-0.825,0.332-1.177,0.584
						c-0.187-0.069-0.363-0.104-0.527-0.102c-0.164,0-0.322,0.01-0.475,0.034c-0.153,0.022-0.321,0.046-0.511,0.069
						c-0.49-0.414-0.738-0.93-0.738-1.547c0-0.32,0.055-0.637,0.159-0.944c0.105-0.31,0.251-0.603,0.439-0.877
						c0.117-0.069,0.259-0.11,0.421-0.121c0.166-0.011,0.328-0.034,0.494-0.069c0.163-0.034,0.298-0.086,0.404-0.155
						s0.17-0.194,0.195-0.377c0.069,0.067,0.128,0.103,0.175,0.103c0.047,0,0.094-0.012,0.14-0.035
						c0.048-0.021,0.095-0.033,0.142-0.033c0.046,0,0.088,0.021,0.122,0.068c0.036,0.045,0.053,0.092,0.053,0.137
						c1.008-0.527,2.039-0.977,3.094-1.344c1.057-0.367,2.129-0.699,3.218-1c1.09-0.299,2.187-0.58,3.289-0.844
						s2.192-0.559,3.269-0.879c0.166-0.14,0.341-0.242,0.529-0.311c0.187-0.069,0.351-0.174,0.492-0.311
						c0.164,0.092,0.363,0.137,0.596,0.137c0.328,0,0.687-0.064,1.073-0.189c0.386-0.126,0.711-0.281,0.968-0.465
						c0.093,0.023,0.175,0.034,0.246,0.034l0.245-0.001c0.47,0,0.91-0.068,1.32-0.207c0.41-0.138,0.815-0.322,1.214-0.55h0.175
						c0.726-0.001,1.446-0.083,2.163-0.243c0.714-0.162,1.447-0.242,2.196-0.244c0.962-0.001,1.807,0.24,2.533,0.721v0.412
						c0,0.184,0.004,0.35,0.018,0.499C110.984,12.342,111.023,12.498,111.095,12.658"/>
					<path id="Fill-14" fill="#FFFFFE" d="M146.262,24.919c-0.049,0.347-0.171,0.612-0.371,0.795
						c-0.199,0.185-0.428,0.358-0.685,0.521c-0.118-0.023-0.229-0.041-0.335-0.053c-0.104-0.011-0.217-0.018-0.334-0.016
						c-0.728-0.023-1.413,0.069-2.059,0.278c-0.643,0.207-1.308,0.356-1.986,0.452c-0.234,0.044-0.452,0.063-0.651,0.051
						c-0.2-0.012-0.405,0.006-0.616,0.052c-0.75,0.117-1.547,0.208-2.393,0.28c-0.843,0.069-1.689,0.156-2.532,0.262
						c-0.843,0.104-1.671,0.232-2.48,0.381c-0.81,0.152-1.565,0.365-2.269,0.644c-0.07-0.048-0.142-0.099-0.211-0.156
						c-0.07-0.058-0.152-0.087-0.246-0.087c-0.234,0-0.459,0.036-0.668,0.105c-0.212,0.07-0.423,0.092-0.635,0.07
						c-0.233,0.139-0.486,0.236-0.756,0.293c-0.271,0.058-0.539,0.105-0.81,0.14s-0.534,0.087-0.792,0.156s-0.504,0.196-0.738,0.38
						c-0.187-0.09-0.416-0.143-0.688-0.154c-0.268-0.01-0.449-0.098-0.543-0.259c-0.539,0.255-1.109,0.416-1.707,0.485
						c-0.598,0.07-1.201,0.095-1.812,0.071c-0.399-0.022-0.856-0.079-1.37-0.171c-0.519-0.092-1.033-0.225-1.55-0.396
						c-0.517-0.171-0.996-0.379-1.443-0.619c-0.444-0.242-0.785-0.537-1.021-0.881c-0.164-0.23-0.279-0.484-0.35-0.761
						c-0.071-0.276-0.235-0.483-0.492-0.622c0.068-0.529,0.152-1.049,0.244-1.556c0.095-0.506,0.189-1.026,0.281-1.556
						c0.47-0.394,0.916-0.808,1.337-1.245c0.423-0.438,0.822-0.899,1.197-1.385c0.445-0.207,0.86-0.46,1.25-0.762
						c0.386-0.299,0.772-0.605,1.159-0.917c0.389-0.31,0.774-0.616,1.16-0.917c0.389-0.3,0.805-0.565,1.249-0.795
						c0.071-0.163,0.172-0.296,0.301-0.398c0.128-0.104,0.264-0.207,0.403-0.312c0.143-0.104,0.271-0.219,0.389-0.348
						c0.115-0.126,0.197-0.281,0.244-0.466c0.822-0.483,1.537-1.096,2.146-1.834c0.609-0.737,1.008-1.567,1.198-2.489
						c-0.399-0.322-0.853-0.534-1.356-0.639c-0.504-0.103-1.026-0.177-1.565-0.223c-0.47-0.022-0.956-0.021-1.459,0.002
						c-0.505,0.023-1.015,0.012-1.53-0.033c-0.518,0.16-1.051,0.267-1.601,0.313c-0.552,0.046-1.097,0.087-1.636,0.123
						c-0.541,0.035-1.073,0.104-1.602,0.209c-0.527,0.103-1.039,0.294-1.529,0.57c-0.096,0-0.184-0.011-0.264-0.035
						c-0.082-0.02-0.171-0.033-0.264-0.033c-0.752-0.021-1.457,0.122-2.113,0.436c-0.656,0.311-1.3,0.616-1.934,0.916
						c-0.047,0.094-0.07,0.162-0.07,0.209c0,0.138,0.03,0.271,0.088,0.396c0.059,0.127,0.087,0.26,0.087,0.398
						c-0.022,0.022-0.034,0.046-0.034,0.07c0,0.021-0.012,0.044-0.037,0.067c-0.021,0.115-0.051,0.22-0.086,0.312
						s-0.076,0.195-0.123,0.31c-0.258,0.738-0.398,1.464-0.422,2.179c-0.025,0.599-0.025,1.187,0,1.764
						c0.023,0.575,0.023,1.163,0,1.762c-0.047,0.737-0.165,1.43-0.354,2.074c0.118,0.553,0.225,1.135,0.317,1.745
						c0.093,0.612,0.211,1.216,0.353,1.814c0.14,0.599,0.311,1.181,0.51,1.745s0.463,1.1,0.791,1.605
						c-0.023,0.048-0.011,0.082,0.034,0.105c0.048,0.023,0.095,0.034,0.142,0.034l0.281-0.001c0.117,0,0.166,0.047,0.143,0.139
						c0.046,0.069,0.082,0.133,0.104,0.189c0.024,0.059,0.071,0.111,0.143,0.156c0.046,0.068,0.046,0.162,0,0.277
						c-0.023,0.459-0.143,0.887-0.354,1.278c-0.21,0.391-0.339,0.819-0.387,1.278c-0.281,0.07-0.539,0.104-0.772,0.104
						c-0.399-0.023-0.751-0.131-1.056-0.327c-0.306-0.194-0.587-0.432-0.846-0.708c-0.258-0.274-0.502-0.558-0.738-0.846
						c-0.234-0.288-0.492-0.534-0.772-0.741c-0.166-0.645-0.325-1.361-0.477-2.144c-0.153-0.784-0.404-1.45-0.756-2.004
						c0.095-0.207,0.14-0.46,0.14-0.761c0.024-0.461-0.018-0.915-0.122-1.365c-0.106-0.449-0.135-0.904-0.088-1.364
						c0-0.255,0.03-0.507,0.088-0.762c0.058-0.253,0.1-0.507,0.122-0.761c0.024-0.392-0.018-0.771-0.122-1.139
						c-0.106-0.371-0.146-0.75-0.122-1.142c0.022-0.185,0.064-0.364,0.122-0.536s0.146-0.327,0.264-0.467
						c-0.117-0.275-0.153-0.541-0.106-0.795c0.024-0.392,0.071-0.76,0.14-1.105c0.071-0.346,0.119-0.691,0.142-1.037
						c0-0.184-0.011-0.362-0.034-0.536c-0.024-0.173-0.06-0.34-0.108-0.501l-0.315-0.104c-0.142,0-0.277,0.035-0.406,0.104
						c-0.128,0.069-0.24,0.151-0.333,0.243c-0.095,0.092-0.175,0.166-0.246,0.225s-0.142,0.087-0.21,0.087
						c-0.047,0-0.102-0.006-0.16-0.018c-0.059-0.011-0.111-0.018-0.157-0.016c-0.048,0-0.135,0.044-0.264,0.138
						c-0.13,0.091-0.281,0.189-0.458,0.294c-0.175,0.103-0.344,0.207-0.51,0.311c-0.164,0.105-0.293,0.168-0.386,0.19
						c-0.257-0.046-0.463-0.132-0.616-0.258s-0.293-0.253-0.423-0.38c-0.128-0.126-0.264-0.242-0.404-0.346
						c-0.141-0.103-0.317-0.143-0.527-0.12c-0.071-0.139-0.111-0.288-0.123-0.448c-0.013-0.163-0.006-0.324,0.018-0.486v-0.551
						c0.162-0.301,0.379-0.547,0.65-0.743c0.27-0.198,0.558-0.365,0.862-0.503l0.914-0.416c0.306-0.139,0.587-0.313,0.845-0.52
						h0.317c0.423,0.021,0.792-0.059,1.108-0.242c0.317-0.186,0.615-0.399,0.896-0.642c0.282-0.243,0.57-0.489,0.862-0.743
						c0.293-0.256,0.616-0.451,0.969-0.589c0.257,0.115,0.526,0.212,0.81,0.294c0.281,0.079,0.572,0.131,0.878,0.153
						c0.304,0,0.622-0.046,0.95-0.14c0.329-0.092,0.586-0.266,0.774-0.518c0.116,0.045,0.218,0.074,0.3,0.085
						c0.08,0.013,0.182,0.018,0.297,0.018c0.353,0.022,0.705-0.03,1.056-0.157c0.353-0.127,0.692-0.282,1.021-0.467
						c0.469,0.021,0.933-0.007,1.39-0.089c0.458-0.081,0.915-0.168,1.372-0.259c0.457-0.094,0.914-0.181,1.374-0.262
						c0.457-0.08,0.919-0.109,1.388-0.088c0.774,0.021,1.537-0.048,2.287-0.209c0.75-0.163,1.512-0.221,2.287-0.174
						c0.539,0.021,1.073,0.062,1.602,0.119c0.527,0.055,1.06,0.074,1.6,0.049c0.305,0.139,0.58,0.259,0.826,0.363
						c0.248,0.103,0.557,0.131,0.934,0.085c0.749,0.621,1.43,1.347,2.039,2.175v0.588c-0.023,0.529-0.117,1.049-0.281,1.556
						s-0.357,1.009-0.581,1.503c-0.222,0.496-0.462,0.98-0.721,1.453c-0.257,0.473-0.505,0.94-0.738,1.4
						c-1.525,1.361-3.05,2.711-4.573,4.049s-3.096,2.631-4.715,3.877c-0.047,0.23-0.11,0.436-0.194,0.621
						c-0.082,0.185-0.134,0.381-0.155,0.59c0,0.113,0.009,0.207,0.033,0.275c0.166,0.045,0.311,0.132,0.439,0.258
						c0.13,0.127,0.17,0.295,0.123,0.502h0.317c0.118,0,0.175,0.045,0.175,0.137l0.563,0.035c0.892,0.044,1.782,0.021,2.674-0.072
						c0.892-0.094,1.788-0.198,2.692-0.313c0.902-0.117,1.8-0.226,2.691-0.331c0.889-0.105,1.78-0.168,2.674-0.192
						c0.211-0.069,0.432-0.126,0.667-0.174c0.233-0.046,0.446-0.139,0.632-0.276h0.107c0.164,0,0.287,0.046,0.369,0.136
						c0.082,0.093,0.205,0.15,0.37,0.174c0.116,0,0.239-0.023,0.368-0.069s0.264-0.08,0.404-0.104
						c0.328-0.092,0.674-0.149,1.039-0.174c0.362-0.023,0.721-0.059,1.073-0.104c1.359-0.117,2.708-0.192,4.044-0.229
						c1.338-0.035,2.676-0.204,4.013-0.505c0.116,0.161,0.28,0.271,0.491,0.327s0.434,0.115,0.669,0.172
						c0.235,0.059,0.452,0.121,0.651,0.19S146.192,24.712,146.262,24.919"/>
					<path id="Fill-15" fill="#FFFFFE" d="M159.849,9.549v0.139c-0.169,0.046-0.256,0.161-0.256,0.344
						c-0.268,0.115-0.547,0.203-0.841,0.262c-0.293,0.058-0.572,0.143-0.841,0.259c-0.268-0.022-0.542-0.04-0.821-0.051
						c-0.28-0.011-0.555-0.016-0.822-0.016c-0.732,0-1.463,0.023-2.194,0.069c-0.73,0.047-1.461,0.049-2.191,0.003
						c-0.341,0.185-0.714,0.329-1.115,0.433c-0.403,0.104-0.787,0.155-1.153,0.155c-0.291,0.001-0.547-0.033-0.768-0.101
						c-0.583,0.275-1.223,0.507-1.917,0.691c-0.695,0.187-1.396,0.363-2.103,0.537s-1.383,0.369-2.029,0.59
						c-0.646,0.221-1.211,0.523-1.699,0.918c-0.049,0.322-0.084,0.639-0.109,0.951c-0.023,0.309-0.037,0.613-0.037,0.914
						c0,0.322,0.019,0.623,0.055,0.897c0.035,0.276,0.115,0.554,0.238,0.829c0.121,0.046,0.262,0.08,0.419,0.104
						c0.159,0.023,0.3,0.034,0.421,0.034c0.123,0,0.244-0.018,0.367-0.052c0.119-0.035,0.205-0.111,0.256-0.227
						c0.363-0.046,0.73-0.063,1.096-0.052c0.366,0.013,0.73,0.016,1.097,0.016s0.726-0.011,1.078-0.034
						c0.353-0.024,0.7-0.083,1.043-0.174c0.388-0.092,0.772-0.152,1.15-0.174c0.378-0.024,0.749-0.047,1.114-0.07
						c0.367-0.023,0.742-0.064,1.134-0.121c0.39-0.059,0.791-0.18,1.205-0.365c0.317,0.115,0.641,0.172,0.97,0.172
						s0.652,0.022,0.97,0.068c0.169,0.113,0.31,0.24,0.419,0.379s0.164,0.301,0.164,0.485c0,0.322-0.121,0.645-0.365,0.967
						c-0.243,0.322-0.438,0.622-0.584,0.899h-0.401c-0.587,0-1.153,0.075-1.702,0.226c-0.548,0.149-1.094,0.323-1.643,0.52
						s-1.098,0.37-1.646,0.52c-0.549,0.15-1.115,0.226-1.698,0.226c-0.099,0-0.153,0.053-0.165,0.156
						c-0.012,0.105-0.043,0.18-0.092,0.225c-0.123-0.023-0.305-0.034-0.549-0.033c-0.561,0-1.097,0.059-1.608,0.174
						c-0.511,0.115-1.036,0.173-1.571,0.174c-0.146,0-0.293-0.004-0.439-0.018c-0.146-0.011-0.293-0.027-0.438-0.05
						c-0.123,0.185-0.279,0.305-0.477,0.361c-0.194,0.059-0.377,0.157-0.547,0.296c-0.074,0.207-0.115,0.459-0.129,0.76
						c-0.012,0.3-0.025,0.605-0.035,0.916c-0.014,0.31-0.043,0.604-0.092,0.881c-0.049,0.275-0.146,0.495-0.293,0.656
						c0.025,0.114,0.121,0.155,0.293,0.12c0.169-0.034,0.256,0.041,0.256,0.225c0,0.208-0.023,0.427-0.074,0.657
						c-0.048,0.229-0.072,0.459-0.072,0.69c0,0.438,0.055,0.916,0.165,1.433c0.108,0.519,0.278,0.997,0.511,1.434
						c0.231,0.438,0.542,0.801,0.932,1.088c0.391,0.287,0.879,0.43,1.463,0.43c0.391,0,0.756-0.069,1.096-0.207
						c0.344-0.139,0.623-0.369,0.842-0.691l0.184-0.035c0.096,0,0.188,0.01,0.273,0.033s0.176,0.035,0.275,0.035
						c0.145,0,0.334-0.088,0.566-0.26c0.23-0.174,0.486-0.374,0.768-0.605c0.28-0.23,0.566-0.456,0.857-0.674
						c0.292-0.22,0.572-0.376,0.84-0.468c0.172-0.322,0.336-0.645,0.494-0.967s0.396-0.578,0.713-0.762v-1.001
						c0.244-0.255,0.507-0.484,0.787-0.692c0.279-0.207,0.494-0.472,0.639-0.794c0.123,0.045,0.238,0.078,0.348,0.102
						s0.225,0.035,0.348,0.035c0.121,0,0.25-0.012,0.383-0.035c0.135-0.023,0.262-0.059,0.385-0.104
						c0.195,0.252,0.348,0.533,0.457,0.845c0.107,0.312,0.248,0.605,0.419,0.88c-0.219,0.418-0.475,0.912-0.767,1.486
						c-0.293,0.577-0.609,1.154-0.95,1.73c-0.341,0.575-0.7,1.121-1.079,1.642c-0.377,0.519-0.75,0.916-1.113,1.19
						c-0.074,0.072-0.232,0.15-0.477,0.244c-0.268,0.185-0.512,0.363-0.73,0.535c-0.22,0.174-0.427,0.376-0.623,0.605
						c-0.705,0.209-1.382,0.484-2.029,0.83c-0.643,0.348-1.283,0.682-1.916,1.004c-0.295-0.066-0.611-0.102-0.951-0.102
						c-0.293,0-0.586,0.018-0.878,0.053c-0.293,0.033-0.608,0.054-0.95,0.054c-0.098-0.116-0.238-0.19-0.421-0.226
						c-0.183-0.033-0.249-0.155-0.2-0.362c-0.828-0.046-1.5-0.257-2.01-0.637c-0.513-0.381-0.945-0.847-1.299-1.397
						c-0.354-0.554-0.639-1.152-0.859-1.797c-0.219-0.645-0.451-1.268-0.693-1.864v-0.103c0-0.117,0.049-0.186,0.147-0.209
						c0.095-0.023,0.144-0.093,0.144-0.208c0-0.046-0.01-0.081-0.035-0.103c-0.074-0.253-0.134-0.471-0.182-0.656
						c-0.051-0.185-0.074-0.402-0.074-0.656c0-0.369,0.023-0.732,0.074-1.09c0.048-0.355,0.073-0.719,0.073-1.086
						c0-0.369-0.05-0.692-0.147-0.967c0.098-0.117,0.176-0.271,0.236-0.468c0.062-0.196,0.105-0.398,0.129-0.605
						c0.024-0.207,0.043-0.413,0.055-0.622c0.012-0.207,0.043-0.393,0.09-0.553c-0.096-0.254-0.182-0.478-0.254-0.674
						c-0.074-0.193-0.108-0.43-0.108-0.707v-0.242c0.242-0.392,0.449-0.795,0.62-1.21c0.17-0.414,0.354-0.841,0.548-1.278v-0.104
						c0-0.669-0.024-1.336-0.073-2.004s-0.074-1.335-0.074-2.003v-0.655c0-0.231,0.014-0.451,0.037-0.658
						c0.195-0.093,0.342-0.219,0.439-0.381c0.098-0.16,0.244-0.287,0.438-0.381h1.205l0.221-0.347
						c0.071-0.114,0.122-0.24,0.146-0.38c0.268-0.068,0.531-0.167,0.787-0.293c0.254-0.129,0.493-0.26,0.713-0.398
						c0.34-0.186,0.651-0.353,0.93-0.502c0.281-0.148,0.563-0.277,0.842-0.381c0.281-0.104,0.58-0.189,0.896-0.26
						c0.317-0.069,0.685-0.126,1.099-0.174c0.193,0,0.32-0.034,0.383-0.104c0.061-0.07,0.152-0.15,0.273-0.242
						c0.293,0.045,0.586,0.086,0.878,0.12c0.291,0.033,0.583,0.051,0.878,0.051c0.585-0.002,1.133-0.104,1.643-0.313
						c0.732,0,1.457-0.012,2.176-0.035c0.72-0.024,1.443-0.035,2.176-0.037c0.633-0.002,1.268,0.022,1.9,0.066
						c0.634,0.047,1.256,0.127,1.863,0.24c0.221-0.068,0.464-0.103,0.731-0.103c0.292-0.002,0.591,0.026,0.896,0.085
						c0.305,0.057,0.604,0.062,0.896,0.016c0.023,0.253,0.09,0.467,0.2,0.639C159.795,9.117,159.849,9.319,159.849,9.549"/>
					<path id="Fill-16" fill="#FFFFFE" d="M172.986,23.176c-0.044-0.389-0.12-0.666-0.223-0.837c-0.105-0.172-0.19-0.382-0.26-0.633
						c-0.094-0.319-0.157-0.66-0.19-1.024c-0.036-0.365-0.087-0.719-0.157-1.062c-0.162-0.774-0.34-1.55-0.536-2.323
						s-0.443-1.525-0.746-2.256c0.094-0.138,0.14-0.263,0.14-0.375v-0.104c-0.207-0.229-0.356-0.508-0.449-0.836
						c-0.092-0.33-0.18-0.662-0.26-0.992c-0.081-0.331-0.184-0.637-0.313-0.924c-0.127-0.284-0.328-0.518-0.605-0.698
						c-0.068,0.136-0.104,0.296-0.104,0.478c0,0.16,0.018,0.309,0.052,0.445c0.033,0.135,0.052,0.283,0.052,0.443
						c-0.232,0.114-0.398,0.291-0.502,0.529c-0.104,0.24-0.27,0.43-0.503,0.566c-0.184,0.729-0.45,1.418-0.796,2.068
						c-0.348,0.65-0.71,1.295-1.09,1.933c-0.381,0.64-0.746,1.282-1.092,1.933c-0.345,0.65-0.623,1.328-0.83,2.035
						c-0.302,0.205-0.503,0.468-0.607,0.787c-0.103,0.318-0.156,0.638-0.156,0.957c0.209,0.113,0.446,0.176,0.713,0.188
						c0.264,0.009,0.523,0.016,0.777,0.016s0.495,0.022,0.729,0.067c0.229,0.045,0.437,0.159,0.621,0.342
						c0.302-0.092,0.629-0.154,0.987-0.188c0.358-0.036,0.653-0.132,0.884-0.291c0.461,0.158,0.957,0.237,1.488,0.236
						c0.277,0,0.548-0.022,0.814-0.069c0.266-0.045,0.525-0.104,0.778-0.17c0.208,0.043,0.37,0.117,0.485,0.221
						c0.115,0.103,0.289,0.143,0.519,0.118c0.116-0.091,0.186-0.188,0.208-0.29C172.838,23.365,172.896,23.266,172.986,23.176z
						 M183.826,28.637c-0.07,0.318-0.215,0.574-0.433,0.77c-0.22,0.193-0.479,0.347-0.78,0.461c-0.3,0.115-0.604,0.189-0.918,0.224
						c-0.31,0.034-0.594,0.052-0.848,0.052c-0.114,0-0.224-0.005-0.328-0.018c-0.104-0.01-0.214-0.016-0.33-0.016
						c-0.115,0-0.172,0.058-0.172,0.17c0,0.116-0.057,0.194-0.174,0.241c-0.116-0.047-0.23-0.081-0.346-0.102
						c-0.117-0.023-0.231-0.034-0.347-0.034c-0.161,0-0.317,0.011-0.468,0.034c-0.15,0.022-0.294,0.034-0.432,0.034
						c-0.186,0-0.318-0.021-0.397-0.068c-0.083-0.045-0.152-0.098-0.209-0.153c-0.058-0.058-0.114-0.119-0.175-0.188
						c-0.057-0.066-0.143-0.125-0.26-0.17c-0.159-0.068-0.293-0.08-0.396-0.034s-0.26-0.022-0.469-0.205
						c-0.275-0.227-0.514-0.507-0.71-0.836c-0.194-0.33-0.386-0.679-0.569-1.043s-0.381-0.729-0.59-1.093
						c-0.207-0.364-0.449-0.684-0.727-0.957l-0.277,0.002c-0.416,0-0.703,0.17-0.866,0.513c-0.115-0.069-0.229-0.153-0.347-0.257
						c-0.113-0.102-0.242-0.188-0.38-0.256c-0.53,0.16-1.085,0.297-1.663,0.412c-0.576,0.114-1.152,0.172-1.73,0.172h-0.484
						c-0.14,0-0.29-0.021-0.449-0.066c-0.232,0.09-0.441,0.199-0.625,0.324c-0.186,0.125-0.393,0.189-0.622,0.189
						c-0.14,0-0.301-0.047-0.485-0.137c-0.139,0.001-0.201,0.057-0.19,0.172c0.013,0.113-0.063,0.172-0.226,0.172h-0.312
						c-0.323,0-0.64,0.011-0.953,0.034c-0.311,0.023-0.629,0.034-0.952,0.034c-0.437,0.002-0.888-0.055-1.35-0.169
						c-0.116,0.069-0.243,0.104-0.381,0.104c-0.092,0.045-0.162,0.12-0.209,0.222c-0.045,0.104-0.09,0.193-0.138,0.273
						c-0.046,0.08-0.109,0.148-0.19,0.205c-0.082,0.059-0.189,0.075-0.329,0.053c-0.046,0.273-0.159,0.49-0.347,0.649
						c-0.184,0.159-0.275,0.398-0.275,0.718c-0.254,0.137-0.463,0.309-0.624,0.514s-0.323,0.422-0.486,0.65
						c-0.159,0.229-0.327,0.444-0.5,0.65c-0.173,0.205-0.387,0.365-0.642,0.479c-0.113,0.138-0.15,0.354-0.104,0.65
						c-0.253,0.205-0.563,0.389-0.933,0.547c-0.371,0.16-0.717,0.24-1.041,0.241c-0.669,0-1.131-0.352-1.385-1.058
						c0-0.229,0.018-0.475,0.053-0.735c0.034-0.263,0.086-0.513,0.156-0.754c0.068-0.239,0.174-0.454,0.311-0.648
						c0.139-0.195,0.336-0.338,0.589-0.429c0-0.205-0.068-0.347-0.208-0.427c-0.137-0.079-0.194-0.222-0.174-0.427
						c0.625-0.297,1.167-0.687,1.629-1.164c0.461-0.479,0.883-0.987,1.263-1.523c0.384-0.536,0.77-1.077,1.161-1.625
						c0.393-0.549,0.831-1.037,1.315-1.471v-0.717c0.692-0.732,1.144-1.552,1.351-2.465c0.256-0.045,0.422-0.159,0.502-0.342
						c0.081-0.182,0.122-0.398,0.122-0.649c0.114,0,0.19-0.052,0.226-0.155c0.034-0.102,0.133-0.129,0.293-0.086
						c0.209-0.547,0.438-1.047,0.693-1.504c0.254-0.456,0.508-0.917,0.762-1.385c0.253-0.467,0.479-0.953,0.676-1.454
						c0.196-0.502,0.34-1.06,0.432-1.676c0.324-0.022,0.502-0.177,0.537-0.463c0.035-0.284,0.074-0.541,0.121-0.769
						c0.346-0.319,0.605-0.695,0.78-1.129c0.173-0.434,0.329-0.884,0.466-1.352c0.139-0.466,0.294-0.934,0.467-1.402
						c0.174-0.466,0.423-0.883,0.746-1.248V5.643c0-0.115-0.047-0.188-0.14-0.222c-0.091-0.034-0.138-0.109-0.138-0.224
						c0.023-0.021,0.035-0.045,0.035-0.068c0.277-0.113,0.484-0.302,0.622-0.564c0.14-0.263,0.347-0.45,0.624-0.564
						c0.484,0.387,0.912,0.621,1.281,0.699c0.37,0.079,0.854,0.143,1.453,0.188c0.301,0.318,0.467,0.699,0.504,1.145
						c0.033,0.443,0.109,0.883,0.223,1.316c0.188,0.729,0.389,1.441,0.607,2.137c0.22,0.693,0.386,1.406,0.503,2.135
						c0.069,0.434,0.196,0.844,0.38,1.231c0.186,0.386,0.313,0.784,0.382,1.196c0.044,0.318,0.044,0.677,0,1.077
						c-0.046,0.397,0,0.745,0.138,1.042l0.242,0.547c0.115,0.25,0.214,0.512,0.295,0.785c0.08,0.272,0.154,0.547,0.225,0.82
						c0.186,0.683,0.352,1.419,0.502,2.205c0.15,0.787,0.389,1.498,0.711,2.137c0.114,0.228,0.295,0.387,0.537,0.479
						c0.24,0.09,0.513,0.152,0.813,0.188c0.3,0.032,0.595,0.043,0.882,0.032c0.289-0.011,0.537-0.019,0.744-0.019h0.348
						c0.139,0,0.275,0.023,0.414,0.066c0.094,0.184,0.139,0.343,0.139,0.479c0,0.275-0.091,0.491-0.277,0.65
						c-0.184,0.162-0.275,0.343-0.275,0.549c0,0.113,0.045,0.24,0.139,0.375c-0.094-0.021-0.232-0.033-0.416-0.033
						c-0.531,0.001-1.05,0.092-1.561,0.276c0.188,0.386,0.435,0.71,0.746,0.972c0.311,0.262,0.641,0.508,0.986,0.734
						c0.232-0.182,0.475-0.273,0.728-0.273c0.276,0,0.536,0.063,0.778,0.188c0.244,0.125,0.504,0.188,0.781,0.186
						c0.206,0,0.356-0.034,0.449-0.102c0.184,0.205,0.334,0.416,0.45,0.631C183.492,28.254,183.643,28.453,183.826,28.637z"/>
					<path id="Fill-17" fill="#FFFFFE" d="M211,9.732c-0.092,0.303-0.242,0.578-0.449,0.834l-0.588,0.73
						c-0.185,0.231-0.34,0.479-0.466,0.746c-0.126,0.266-0.167,0.572-0.122,0.92c-0.045,0-0.103-0.006-0.172-0.018
						c-0.07-0.012-0.127-0.018-0.172-0.018c-0.371,0-0.652,0.089-0.848,0.26c-0.196,0.176-0.455,0.32-0.777,0.438
						c-0.047-0.141-0.104-0.273-0.173-0.4c-0.069-0.127-0.172-0.215-0.312-0.26c-0.553,0.117-1.105,0.203-1.659,0.262
						s-1.104,0.135-1.659,0.227c-0.254,0.048-0.506,0.111-0.76,0.192s-0.52,0.157-0.795,0.227c-0.139,0.046-0.289,0.063-0.449,0.051
						c-0.162-0.009-0.323-0.005-0.484,0.019c-0.553,0.024-1.152,0.066-1.797,0.125c-0.645,0.057-1.221,0.237-1.729,0.539
						c-0.229-0.046-0.471-0.081-0.726-0.104c-0.252-0.023-0.506-0.035-0.76-0.035c-0.553,0.002-1.157,0.053-1.814,0.159
						c-0.658,0.104-1.239,0.308-1.745,0.608c-0.115-0.045-0.235-0.08-0.362-0.104s-0.271-0.035-0.433-0.035
						c-0.046,0.002-0.081,0.006-0.103,0.02c-0.023,0.011-0.059,0.018-0.104,0.018c-0.022,0.207,0.005,0.409,0.087,0.605
						c0.08,0.195,0.225,0.353,0.43,0.469c-0.09,0.254-0.137,0.531-0.137,0.833c0,0.394,0.029,0.786,0.086,1.179
						c0.057,0.395,0.088,0.787,0.088,1.18c0,0.441-0.059,0.789-0.174,1.043c0.23,0.693,0.346,1.435,0.346,2.221
						c0,0.277-0.018,0.549-0.053,0.814c-0.033,0.268-0.051,0.55-0.051,0.852c0,0.254,0.091,0.457,0.277,0.605
						c0.184,0.151,0.275,0.354,0.275,0.608c0,0.093-0.022,0.185-0.07,0.278c0.324-0.07,0.636-0.169,0.935-0.296
						c0.3-0.128,0.61-0.192,0.933-0.192c0.185-0.001,0.363,0.033,0.535,0.104s0.329,0.162,0.469,0.276
						c-0.024,0.117-0.041,0.244-0.053,0.382c-0.012,0.141-0.018,0.278-0.018,0.416c0,0.256,0.006,0.492,0.018,0.713
						c0.012,0.219,0.028,0.457,0.053,0.711c-0.186,0.324-0.398,0.614-0.641,0.868c-0.242,0.256-0.41,0.579-0.501,0.974
						c-0.347,0-0.651,0.074-0.917,0.227c-0.264,0.148-0.512,0.311-0.742,0.485c-0.229,0.175-0.462,0.337-0.691,0.485
						c-0.23,0.151-0.483,0.228-0.762,0.228c-0.345,0-0.586-0.051-0.726-0.155c-0.136-0.104-0.241-0.213-0.31-0.329
						c-0.07-0.116-0.133-0.221-0.191-0.313c-0.057-0.094-0.177-0.128-0.361-0.103c-0.047-0.303-0.139-0.585-0.277-0.852
						c-0.137-0.265-0.283-0.527-0.433-0.781s-0.299-0.514-0.449-0.779c-0.149-0.266-0.259-0.537-0.329-0.814
						c-0.137-0.602-0.193-1.228-0.17-1.875c0.02-0.647-0.082-1.273-0.313-1.873c0.048-0.325,0.081-0.655,0.104-0.99
						c0.023-0.334,0.035-0.665,0.035-0.988c0-0.649-0.018-1.291-0.053-1.927c-0.033-0.636-0.063-1.289-0.087-1.96
						c-0.159-0.208-0.259-0.445-0.292-0.711c-0.037-0.268-0.063-0.527-0.087-0.781c-0.069-0.07-0.146-0.14-0.225-0.209
						c-0.081-0.068-0.133-0.162-0.156-0.277c-0.184-0.045-0.323-0.067-0.415-0.067c-0.322,0-0.594,0.074-0.812,0.226
						c-0.218,0.15-0.421,0.225-0.604,0.225c-0.185,0-0.358-0.021-0.518-0.068c-0.163-0.045-0.322-0.069-0.485-0.069
						c-0.138,0-0.214,0.03-0.225,0.087c-0.011,0.059-0.063,0.111-0.155,0.157c-0.069,0.048-0.23,0.093-0.484,0.14
						s-0.536,0.088-0.846,0.123c-0.312,0.034-0.611,0.063-0.898,0.087c-0.289,0.023-0.479,0.034-0.572,0.034
						c-0.367,0-0.65-0.074-0.846-0.225c-0.195-0.149-0.432-0.316-0.709-0.502c0.046-0.138,0.069-0.23,0.069-0.277
						c0-0.232-0.069-0.422-0.207-0.573c-0.14-0.149-0.207-0.282-0.207-0.398c0-0.255,0.099-0.45,0.294-0.591
						c0.196-0.139,0.305-0.357,0.328-0.658c0.53-0.232,1.07-0.406,1.624-0.523c0.554-0.116,1.117-0.209,1.692-0.279
						c0.577-0.07,1.148-0.15,1.712-0.243c0.564-0.093,1.122-0.244,1.677-0.454c0.162,0.024,0.316,0.04,0.467,0.051
						c0.15,0.014,0.305,0.018,0.466,0.018c0.69-0.002,1.377-0.076,2.058-0.227c0.679-0.15,1.377-0.227,2.09-0.229
						c0.186,0,0.368,0.011,0.553,0.035c0.186,0.021,0.369,0.057,0.554,0.103c0.921-0.14,1.837-0.29,2.747-0.454
						c0.91-0.162,1.85-0.301,2.818-0.418c0.461-0.047,0.915-0.088,1.365-0.123c0.449-0.036,0.902-0.087,1.364-0.158
						c0.163-0.022,0.282-0.063,0.363-0.121c0.079-0.059,0.122-0.18,0.122-0.365c0.207,0.092,0.436,0.139,0.689,0.139
						c0.391,0,0.771-0.07,1.141-0.209c0.368-0.141,0.749-0.21,1.141-0.21c0.092,0,0.173,0.007,0.242,0.017
						c0.069,0.012,0.139,0.018,0.207,0.018c0.161,0,0.248-0.076,0.26-0.225c0.012-0.15,0.121-0.25,0.328-0.295
						c0.161-0.048,0.393-0.083,0.691-0.107c0.3-0.021,0.615-0.052,0.951-0.087c0.333-0.034,0.645-0.083,0.932-0.14
						c0.288-0.057,0.502-0.146,0.639-0.26L208.787,8c0.416,0.023,0.721,0.201,0.917,0.537s0.305,0.699,0.327,1.093
						c0.094,0.093,0.227,0.134,0.398,0.12c0.174-0.011,0.328-0.018,0.466-0.018H211"/>
					<path id="Fill-18" fill="#FFFFFE" d="M211,27.084c0,0.316-0.06,0.615-0.18,0.9c-0.119,0.285-0.254,0.565-0.404,0.838
						l-0.455,0.823c-0.15,0.273-0.27,0.56-0.355,0.854l-0.131-0.031c-0.303,0-0.594,0.037-0.876,0.111
						c-0.28,0.073-0.563,0.152-0.845,0.238c-0.281,0.084-0.566,0.168-0.859,0.253c-0.292,0.085-0.59,0.128-0.894,0.129
						c-0.043-0.297-0.135-0.56-0.274-0.791c-0.141-0.233-0.396-0.349-0.763-0.347c-0.065-0.17-0.103-0.349-0.114-0.538
						c-0.011-0.189-0.017-0.374-0.017-0.554c0-0.178-0.017-0.357-0.049-0.538c-0.032-0.179-0.092-0.353-0.179-0.521
						c0.391-0.295,0.715-0.649,0.975-1.061c0.26-0.412,0.552-0.786,0.877-1.123c0.26,0.063,0.528,0.094,0.811,0.094
						c0.324,0,0.648-0.039,0.973-0.111c0.326-0.074,0.65-0.111,0.975-0.111c0.348,0,0.67,0.083,0.975,0.252
						c0.064,0.105,0.107,0.221,0.128,0.348c0.022,0.125,0.06,0.246,0.116,0.363c0.053,0.116,0.118,0.216,0.192,0.301
						c0.075,0.083,0.2,0.125,0.374,0.125V27.084"/>
				</g>
			</g>
		</g>
	</g>
</g>
</svg>