<svg version="1.1" id="Layer_1" xmlns="http://www.w3.org/2000/svg" xmlns:xlink="http://www.w3.org/1999/xlink" x="0px" y="0px"
	 width="612px" height="66.5px" viewBox="0 363.167 612 66.5" enable-background="new 0 363.167 612 66.5" xml:space="preserve">
<g>
	<path fill="#FFFFFF" d="M61.868,407.424c0,0.514-0.257,1.026-0.514,1.283c-0.257,0.514-0.257,0.771-0.257,1.284
		c-0.256,0.256-0.256,0.513-0.513,0.513c-0.257,0.257-0.257,0.514-0.257,0.771c-0.77,0.514-1.54,1.026-2.054,1.54
		c-0.77,0.514-1.284,1.283-2.054,1.797c-0.513,0.257-0.77,0.514-1.027,0.771s-0.77,0.257-1.027,0.514l-1.284,1.026
		c-0.513,0.257-1.283,0.771-2.053,1.027c-0.771,0.256-1.284,0.77-1.797,1.283c-0.77,0-1.54,0.257-2.31,0.771
		c-0.771,0.513-1.541,0.77-2.311,1.026c-0.257,0-0.514,0.257-0.77,0.257c-0.257,0-0.514,0.257-0.771,0.257l-0.77,0.514
		c-0.513,0.256-1.027,0.513-1.797,0.77s-1.284,0.514-1.797,0.514c-0.257,0.257-0.514,0.514-0.77,0.771
		c-1.284,0.513-2.567,0.77-3.851,1.026c-1.283,0.257-2.567,0.514-3.851,1.027c-0.513,0.256-0.77,0.513-1.284,0.77
		c-0.513,0.257-0.77,0.514-1.283,0.514c0,0.257-0.257,0.514-0.257,0.77c0,0.257,0,0.514-0.257,0.771h-1.284
		c-0.256,0-0.256,0-0.256-0.257c0.256-0.514,0.256-0.514,0-0.514h-0.257c-0.513,0-1.027,0.257-1.284,0.257c-0.513,0-1.027,0-1.54,0
		c-0.257,0-0.77,0-1.541,0c-0.77,0-1.027-0.257-1.54-0.257c-0.257,0-0.514-0.256-0.514-0.513c-0.256-0.257-0.256-0.514-0.513-1.027
		c-0.257-0.257-0.257-0.77-0.257-1.026s0-0.771,0-0.771c0-0.514,0.257-0.77,0.514-1.026c0.256-0.257,0.513-0.514,0.513-1.027
		c0.257,0,0.77,0,1.027-0.257c0.257,0,0.77,0,1.027,0c1.284-0.257,2.311-0.77,3.594-1.026c1.283-0.257,2.31-0.771,3.594-1.027
		s2.311-0.77,3.337-1.026c1.027-0.514,2.31-1.027,3.337-1.54h1.284c0.77-0.257,1.541-0.771,2.311-1.027s1.54-0.77,2.054-1.283
		c1.283-0.257,2.567-0.514,3.851-1.027c1.284-0.513,2.567-1.026,3.337-2.054c0.513,0,1.027-0.257,1.54-0.513
		c0.514-0.257,0.77-0.514,1.284-0.771l1.027-0.771c0.256-0.257,0.77-0.513,1.283-0.513c0.257-0.257,0.514-0.514,0.771-1.027
		c0.256-0.257,0.513-0.514,1.027-0.771c0-0.513-0.514-1.026-0.771-1.283c-0.513-0.257-1.027-0.77-1.283-1.026h-1.284
		c-1.027-0.514-2.054-1.027-3.081-1.284s-2.311-0.77-3.337-1.026h-0.256c-0.257,0-0.514,0-0.514,0.257
		c0,0.256-0.257,0.256-0.513,0.256c-0.257-0.256-0.771-0.256-1.027-0.513c-0.257,0-0.771,0-1.284,0c-0.514,0-1.027,0-1.541,0
		c-0.513,0-1.027,0-1.54,0c-0.257,0-0.514,0-0.77,0c-0.257,0-0.514-0.257-0.77-0.257h-0.771c-0.77,0-1.54,0-2.31,0
		c-0.771,0-1.541,0-2.311,0c-0.514,0-0.77,0-1.284,0c-0.257,0-0.77,0-1.027-0.257c-0.77,0.257-1.54,0.514-2.567,0.771
		c-0.771,0.256-1.797,0.256-2.824,0.256s-1.797,0.257-2.824,0.257s-1.797,0.257-2.567,0.257c-0.257,0-0.514,0-0.77,0
		c-0.257,0-0.514,0-0.514,0s-0.257,0-0.513,0c-0.257,0-0.514,0-0.514,0c-0.513-0.514-1.027-1.026-1.797-1.026
		c-0.77-0.257-1.284-0.514-2.054-0.514c-0.513-0.514-1.027-1.283-1.027-2.054s-0.77-1.026-1.027-1.797h0.257
		c0.257,0,0.257-0.257,0.257-0.514s0-0.514,0.256-0.77c0.257-0.257,0.514-0.257,0.771-0.514c0.256,0,0.513-0.257,1.027-0.257
		c0.256,0,0.513-0.257,0.77-0.514c0.256-0.257,0.513-0.514,0.77-0.77h0.77c0.257,0,0.257,0,0.514,0c0.256,0,0.256,0,0.513,0.256
		c0.257-0.256,0.257-0.256,0.514-0.513c0.256,0,0.513-0.256,0.77-0.256s0.257-0.257,0.513-0.514c0,0,0,0,0-0.513l0.257,0.256
		c0.257,0,0.257,0,0.514,0c0.256,0,0.256,0,0.513,0c0.257-0.513,0.514-0.77,1.027-0.77c0.514,0,0.77-0.257,1.284-0.513
		c0.257-0.257,0.513-0.257,0.77-0.514s0.514-0.513,0.77-0.513l3.337-2.567l5.134-3.851c1.797-1.284,3.594-2.567,5.391-3.594
		c0-0.257,0.256-0.514,0.256-0.514s0.257-0.257,0.514-0.257c0.257-0.256,0.257-0.256,0.257-0.513s0-0.257,0-0.77
		c0.513,0,1.026-0.257,1.283-0.514c0.257-0.256,0.514-0.513,0.77-1.027c0.257-0.257,0.514-0.77,0.771-1.027
		c0.256-0.256,0.513-0.513,1.027-0.77c0,0,0-0.257,0-0.514c0-0.256,0-0.513,0-0.77c0-0.256,0.256-0.513,0.513-0.77
		c-0.257-0.77-1.027-1.284-1.797-1.797c-1.027-0.77-1.797-1.027-2.567-1.284H37.48c-0.257,0-0.257,0-0.257,0.257
		s0,0.257-0.257,0.257c-0.513-0.257-1.283-0.257-2.054-0.257c-0.77,0-1.54,0-2.31,0.257c-0.771,0-1.541,0.256-2.311,0
		c0,0.256-0.257,0.256-0.257,0.513c-0.257,0.257-0.257,0.257-0.513,0.514c-0.771,0-1.541,0.256-2.311,0.256l-2.311,0.514
		l-1.283,0.257c-0.257,0-0.514,0.256-0.514,0.256c0,0.257,0,0.514,0,0.771c-0.257,0-0.257-0.257-0.513-0.257
		c0-0.257-0.257-0.257-0.514-0.257c-0.77,0.257-1.797,0.77-2.824,1.027c-0.77,0.513-1.797,1.027-2.567,1.797
		c-0.256-0.513-0.513-0.513-1.027-0.513c-0.513,0-0.77,0.257-1.283,0.513c-0.514,0-1.027,0.514-1.027,0.77c-0.257,0-0.77,0-0.77,0
		c-0.514,0-0.771,0-1.027,0.257c-0.257,0.257-0.771,0.514-1.027,0.77c-0.257,0.257-0.514,0.514-0.771,0.771
		c-0.256,0.256-0.513,0.513-1.027,0.513c0,0.257,0,0.257,0,0.514c0,0.256,0,0.513,0,0.77c0,1.797,0,3.337-0.256,5.134
		c-0.257,1.54-0.257,3.337-0.257,5.134c0,0.256,0,0.77,0,1.027c0,0.256,0,0.77,0,1.027c0,0,0,0.256-0.257,0.77
		c0,0.257-0.257,0.513-0.257,0.77c0.257,0.513,0.257,0.77,0.257,1.284s0,0.771,0.257,1.283c-0.514,0-0.514,0.514-0.514,1.027
		c0,0.257,0,0.514,0,0.77c0,0.257,0,0.514,0,0.771v0.771c0,0.77-0.256,1.54-0.256,2.31c0,0.771,0,1.541,0,2.311
		c0,0.257,0,1.027,0,1.797c0,0.771,0,1.798,0.256,2.567c0,1.027,0.257,2.054,0.257,3.081c0.257,1.026,0.257,2.054,0.514,2.823
		c0.256,0.771,0.513,1.54,1.027,2.054c0.256,0.514,0.77,0.771,1.283,0.771c0,0,0.257,0,0.514,0s0.257-0.257,0.257-0.257
		s0-0.257,0-0.514c0,0,0-0.257,0-0.514l0,0c0.256,0.257,0.513,0.257,1.027,0.257c0.256,0,0.77,0,1.026,0
		c0.257,0,0.771,0,1.027,0.257c0.257,0.257,0.514,0.257,0.771,0.514c-0.257,0.257-0.257,0.514-0.257,1.026
		c0,0.514,0,0.771,0.257,1.284c0.256,0.514,0.256,0.77,0.513,1.283c-0.77,0.257-1.284,0.514-2.054,0.771s-1.027,0.514-1.54,0.77
		c-0.514,0.257-1.284,0.514-1.797,0.771c-0.514,0.257-1.284,0.257-2.311,0.514c-0.514-0.257-1.027-0.514-1.284-0.771
		s-0.77-0.514-1.54-0.514c-1.027-1.283-1.797-2.823-2.311-4.363c-0.514-1.541-1.027-3.338-1.541-5.135
		c-0.513-1.797-0.513-3.594-0.77-5.391s-0.257-3.338-0.257-5.135s0-3.337,0.257-5.134s0.257-3.337,0.514-5.134
		c0-0.514,0.256-1.027,0.256-1.541c0-0.513,0.257-1.026,0.257-1.54c0-0.257,0.257-0.514,0.257-0.77c0-0.257,0-0.514,0-0.77
		c0-0.514,0-1.284,0-1.797c0-0.513,0-1.283,0-1.797c0-1.027,0-1.797,0.257-2.824c0-0.257,0-0.514,0.256-0.77
		c-0.256-0.514,0-0.771,0-1.027c0-0.257,0-0.514-0.256-0.514c-0.257,0-0.257-0.257-0.514-0.513c0-0.257,0.257-0.771,0.257-1.027
		c0-0.257,0-0.771,0-1.027c0-0.77-0.257-1.284-0.514-1.797c0.514-1.283,0.771-2.31,1.027-3.08c0.257-1.027,1.027-1.541,2.054-2.054
		c0.771,0,1.541,0,2.311,0.256c0.77,0,1.284,0.257,2.054,0.771c0.257-0.257,0.514-0.257,0.77-0.257h1.027
		c0.514-0.257,0.771-0.257,1.027-0.257c0.257,0,0.514-0.257,0.771-0.513c0.77-0.257,1.54-0.257,2.31-0.771
		c0.77-0.256,1.541-0.513,2.311-1.027h1.284c0.256-0.256,0.513-0.256,1.027-0.256l1.027-0.514c0.256,0,0.77-0.257,1.027-0.257
		c0.256,0,0.513-0.256,0.77-0.513h0.257c0.77,0,1.797-0.257,2.567-0.514c0.77-0.256,1.54-0.77,2.311-1.027
		c0.256,0,0.513-0.256,0.77-0.513c0.513-0.257,0.77-0.257,0.77-0.257c0.514,0,1.027,0,1.541-0.256c0.513,0,1.027,0,1.54-0.257
		c1.284-0.257,2.311-0.514,3.594-0.771c1.283-0.256,2.31-0.256,3.594-0.256c0.513,0,0.77,0,1.027,0s0.77,0,1.027,0
		c0,0.256,0.257,0.256,0.257,0.256c0.256,0,0.256,0.257,0.513,0.257s0.257,0.257,0.257,0.257s0.257,0.257,0,0.514h0.257
		c0,0,0.256,0,0.256-0.257s0.257-0.257,0.514-0.257h0.257c0.513,0.514,1.027,1.027,1.54,1.54c0.514,0.514,1.027,0.771,1.797,1.027
		c0.257,1.027,0.771,2.311,1.027,3.337c0.514,1.027,0.514,2.311,0.514,3.594c0,0.77,0,1.54-0.257,2.31
		c-0.513,0.257-0.77,0.771-1.027,1.284s-0.513,1.027-0.513,1.54c-1.027,0.514-2.054,1.284-2.567,2.054
		c-0.77,0.771-1.54,1.797-2.311,2.567h-0.77c-0.257,0-0.257,0-0.257,0.257l-0.513,0.513c-0.257,0.257-0.77,0.514-1.027,0.77
		c-0.257,1.027-0.77,1.541-0.77,2.054c-1.284,0.514-2.311,1.284-3.337,2.054s-2.054,1.541-3.081,2.567
		c-0.513,0.256-0.77,0.77-1.284,1.027c-0.513,0.513-0.77,0.77-1.283,1.027c-0.257,0.256-0.514,0.256-0.771,0.513
		c-0.256,0.257-0.513,0.257-0.77,0.514c-0.513,0.256-1.027,0.77-1.284,1.026c-0.513,0.514-0.77,0.771-1.283,1.027
		c1.797,0,3.337,0,5.134-0.257c1.797-0.257,3.337,0,5.134,0c0.77,0,1.797,0,2.567,0s1.54,0,2.567,0c0.257,0,0.257,0,0.514,0
		c0,0,0.257,0,0.513,0.257c0.514,0,1.284,0.257,1.797,0.514c1.797,0.256,3.594,0.513,5.391,0.77
		c1.797,0.257,3.594,0.771,5.391,1.284c0.513,0.256,0.77,0.513,1.027,0.513c0.257,0.257,0.77,0.257,1.284,0.257
		c0.513,0.514,1.027,1.027,1.797,1.284c0.513,0.256,1.284,0.513,1.797,0.77c0.514,0.771,1.027,1.54,1.284,2.054
		C61.611,405.627,61.868,406.396,61.868,407.424z"/>
	<path fill="#FFFFFF" d="M100.374,381.239L100.374,381.239c-0.256,0.256-0.256,0.513-0.256,0.77
		c-0.514,0.257-0.771,0.257-1.284,0.513c-0.514,0.257-1.027,0-1.284,0.257c-0.513,0-0.77,0-1.284,0c-0.513,0-0.77,0-1.283,0
		c-1.027,0-2.311,0-3.337,0s-2.311,0-3.337,0c-0.513,0.257-1.027,0.514-1.797,0.77c-0.513,0.257-1.284,0.257-1.797,0.257
		c-0.514,0-0.77,0-1.284-0.257c-0.77,0.514-1.797,0.771-2.824,1.027c-1.027,0.257-2.054,0.514-3.337,0.771
		c-1.027,0.256-2.054,0.513-3.081,1.027c-1.027,0.256-1.797,0.77-2.567,1.54c0,0.514-0.257,1.027-0.257,1.541
		c0,0.513,0,1.026,0,1.54s0,1.027,0,1.54c0,0.514,0.257,0.771,0.257,1.284c0.257,0,0.513,0.257,0.77,0.257s0.514,0,0.77,0
		c0.257,0,0.257,0,0.514,0s0.257-0.257,0.513-0.257c0.514,0,1.027,0,1.797,0c0.513,0,1.026,0,1.797,0c0.513,0,1.027,0,1.54,0
		c0.514,0,1.027-0.257,1.541-0.257c0.513-0.256,1.283-0.256,1.797-0.256c0.513,0,1.027,0,1.797,0c0.514,0,1.027,0,1.797-0.257
		c0.514,0,1.284-0.257,1.797-0.514c0.513,0.257,1.027,0.257,1.54,0.257s1.027,0,1.54,0c0.257,0.257,0.514,0.514,0.771,0.514
		c0.256,0.256,0.256,0.513,0.256,0.77c0,0.513-0.256,1.027-0.513,1.54s-0.77,1.027-0.77,1.541h-0.514c-0.77,0-1.797,0-2.567,0.257
		s-1.797,0.514-2.567,0.77c-0.77,0.257-1.797,0.514-2.567,0.771s-1.797,0.257-2.567,0.257c-0.256,0-0.256,0-0.256,0.257
		s0,0.257-0.257,0.257s-0.514,0-0.77,0c-0.771,0-1.797,0-2.567,0.257c-0.77,0.256-1.54,0.256-2.31,0.256c-0.257,0-0.514,0-0.771,0
		c-0.256,0-0.513,0-0.77,0c-0.257,0.257-0.513,0.514-0.77,0.514s-0.514,0.257-0.77,0.514c0,0.257-0.257,0.771-0.257,1.283
		c0,0.514,0,1.027,0,1.54c0,0.514,0,1.027-0.257,1.541c0,0.514-0.257,0.77-0.513,1.026c0,0.257,0.256,0.257,0.513,0.257
		s0.514,0,0.514,0.257s0,0.771,0,1.026c0,0.257,0,0.771,0,1.027c0,0.771,0,1.54,0.256,2.311c0.257,0.77,0.514,1.54,0.771,2.311
		c0.256,0.77,0.77,1.283,1.54,1.797c0.514,0.514,1.284,0.77,2.311,0.77c0.513,0,1.283,0,1.797-0.256
		c0.513-0.257,1.027-0.514,1.284-1.027h0.256c0.257,0,0.257,0,0.514,0s0.257,0,0.513,0c0.257,0,0.514-0.257,0.771-0.514
		c0.256-0.257,0.77-0.513,1.283-1.026c0.514-0.257,0.771-0.771,1.284-1.027c0.514-0.257,0.77-0.513,1.284-0.77
		c0.257-0.514,0.513-1.027,0.77-1.541c0.257-0.513,0.514-1.026,1.027-1.283v-1.54c0.257-0.514,0.77-0.771,1.284-1.027
		c0.513-0.257,0.77-0.77,1.027-1.283c0.257,0,0.257,0.257,0.513,0.257c0.257,0,0.257,0,0.514,0s0.256,0,0.513,0s0.514,0,0.514-0.257
		c0.256,0.514,0.513,0.771,0.77,1.283c0.257,0.514,0.257,1.027,0.77,1.541c-0.257,0.77-0.77,1.54-1.284,2.31
		c-0.513,1.027-1.027,1.798-1.54,2.824c-0.513,1.027-1.027,1.797-1.54,2.567c-0.514,0.77-1.027,1.54-1.797,2.054
		c0,0-0.256,0.257-0.77,0.513c-0.513,0.257-0.77,0.514-1.027,0.771s-0.77,0.514-1.027,1.027c-1.027,0.256-2.054,0.77-3.081,1.283
		s-2.054,1.026-2.824,1.54c-0.513,0-1.027-0.257-1.54-0.257c-0.514,0-0.771,0-1.284,0c-0.514,0-1.027,0-1.541,0
		c-0.256-0.257-0.256-0.257-0.77-0.257c-0.513,0-0.257-0.256-0.257-0.513c-1.283,0-2.31-0.514-3.081-1.027
		c-0.77-0.514-1.54-1.283-2.054-2.311c-0.513-0.77-1.027-1.797-1.283-2.823c-0.257-1.027-0.77-2.054-1.027-3.081v-0.257
		c0-0.256,0-0.256,0.257-0.256c0.256,0,0.256-0.257,0.256-0.257v-0.257c0-0.514-0.256-0.771-0.256-1.027s0-0.77,0-1.026
		c0-0.514,0-1.284,0-1.797c0-0.514,0-1.284,0-1.797c0-0.514,0-1.027-0.257-1.541c0.257-0.257,0.257-0.513,0.257-0.77
		s0.256-0.771,0.256-1.027s0-0.77,0-1.026s0-0.514,0.257-1.027c-1.284-0.257-1.284-0.513-1.541-0.77
		c0-0.257-0.256-0.771-0.256-1.027v-0.514c0.256-0.513,0.77-1.283,1.027-2.054c0.256-0.77,0.513-1.283,0.77-2.053v-0.257
		c0-1.027,0-2.054,0-3.337c0-1.283,0-2.054,0-3.337v-0.77c0-0.257,0-0.771,0-1.027c0.257-0.257,0.513-0.257,0.77-0.514
		s0.257-0.513,0.77-0.513h1.797l0.256-0.514c0-0.257,0.257-0.513,0.257-0.513c0.514,0,0.77-0.257,1.284-0.514
		c0.257-0.77,0.513-0.77,0.77-1.027c0.514-0.257,1.027-0.513,1.541-0.77c0.513-0.257,0.77-0.514,1.283-0.514
		c0.514-0.256,0.771-0.256,1.284-0.513c0.514,0,1.027-0.257,1.797-0.257c0.257,0,0.514,0,0.514-0.257c0,0,0.256-0.256,0.513-0.513
		c0.514,0,0.77,0.257,1.284,0.257c0.513,0,0.77,0,1.284,0c0.77,0,1.797-0.257,2.567-0.514c1.027,0,2.311,0,3.337,0s2.311,0,3.337,0
		c1.027,0,2.054,0,2.824,0c1.027,0,2.054,0.257,2.824,0.514c0.257,0,0.77-0.257,1.027-0.257c0.513,0,1.027,0,1.284,0.257
		c0.256,0.256,1.027,0,1.283,0c0,0.513,0.257,0.77,0.257,1.027C100.374,380.469,100.374,380.726,100.374,381.239z"/>
	<path fill="#FFFFFF" d="M150.946,378.159c0,0.256-0.257,0.513-0.513,0.77c-0.257,0.257-0.257,0.513-0.257,0.513
		c0,0.257,0,0.257,0,0.514v0.257v0.256c-0.257,0.257-0.77,0.771-0.77,1.284c0,0.514-0.257,0.77-0.514,1.284
		c-0.257,0.513,0,1.027-0.257,1.54c-0.256,0.514-0.256,1.027-0.256,1.284c-0.257,0.514-0.514,0.77-0.771,1.027
		c-0.256,0.257-0.513,0.77-0.77,1.027c-0.257,1.027-0.513,1.797-0.513,2.311c-0.257,0.77-0.514,1.284-1.027,2.054v0.256
		c0,0.257,0,0.514,0.256,0.771c-0.77,1.027-1.283,2.054-1.797,3.337c-0.513,1.284-0.77,2.567-1.027,4.107
		c-0.257,1.284-0.513,2.824-0.77,4.107s-0.514,2.567-0.77,3.851c0.256,0.771,0.513,1.54,0.77,2.311
		c0.513,0.771,0.77,1.54,1.027,2.311c0.77,0.257,1.54,0.514,2.054,0.77c0.77,0.257,1.284,0.771,1.54,1.541
		c0,0.77-0.256,1.283-0.77,1.797c-0.513,0.514-1.027,0.77-1.54,1.283c-0.514-0.257-0.771-0.257-1.027-0.257
		c-0.257,0-0.771,0-1.284,0c-0.77-0.513-1.284-1.026-2.054-1.283c-0.513-0.257-1.284-1.026-1.54-1.797l-0.257-0.257h-0.514
		c-0.256-0.514-0.513-1.027-0.77-1.54c-0.257-0.514-0.513-1.027-0.77-1.54c-0.257-0.514-0.514-1.027-0.77-1.541
		c-0.257-0.513-0.257-1.026-0.257-1.54c0-1.797,0.257-3.851,0.513-5.647c0.257-1.797,0.514-3.851,0.514-5.647v-0.514
		c-0.77,0.257-1.541,0.514-2.311,0.771c-0.77,0.256-1.54,0.513-2.311,0.77c-0.256,0-0.513,0.257-0.513,0.514
		s-0.257,0.257-0.257,0.514c-0.257,0-0.77,0-1.027,0s-0.77,0-1.027,0c-0.513,0-1.283,0-2.054,0c-0.77,0-1.283-0.257-2.054-0.257
		c-0.77-0.257-1.283-0.514-1.797-0.771c-0.513-0.257-1.027-0.77-1.54-1.283h-0.257h-0.257h-0.257h-0.256
		c-0.257-0.514-0.514-0.771-0.771-1.284l-0.513-1.54c-0.257-0.513-0.514-1.027-0.514-1.283c-0.256-0.514-0.513-0.771-0.77-1.284
		c0-0.77-0.256-1.284-0.256-2.054s0-1.284,0.256-2.054c0-0.513,0.257-1.284,0.514-1.797c-0.257-0.514-0.257-1.027-0.257-1.284
		c0-0.513,0-1.027,0-1.54c0-0.514,0-1.027,0.257-1.797c0-0.513,0.256-1.027,0.513-1.54c0.257-0.514,0.514-1.027,1.027-1.284
		c0.514-0.257,1.027-0.513,1.797-0.513c0.771,0,1.541,0.256,2.054,0.513c0.514,0.514,1.284,0.77,1.797,1.284
		c0.513,0,0.513,0.257,0.513,0.77c0,0.514,0,0.77,0,1.284c0,0.77,0,1.797-0.257,2.824c0,1.027-0.256,1.797-0.256,2.824
		s0,1.797,0.256,2.824c0.257,0.771,0.771,1.541,1.284,2.311h0.257c0.257,0,0.513,0,0.77,0.257s0.513,0.257,0.77,0.257
		s0.514,0,0.514-0.257c0.256-0.257,0.256-0.257,0.513-0.257s0.514,0,0.514,0h0.256c0.514,0,0.771-0.257,1.284-0.513
		c0.514-0.257,0.77-0.514,1.027-1.027c0.257,0,0.257,0.257,0.514,0.257c0.256,0,0.513,0,0.77-0.257s0.513-0.257,1.027-0.257
		c0.257,0,0.257-0.257,0.257-0.514c0-0.256,0-0.513,0.256-0.513c0.514-0.257,1.027-0.513,1.541-0.77
		c0.513-0.257,1.027-0.514,1.284-0.77c0.256-0.514,0.513-1.027,0.77-1.284c0.257-0.514,0.513-0.77,0.77-1.284
		c0-0.77,0.257-1.797,0.77-2.567c0.257-0.771,0.77-1.541,1.027-2.311s0.77-1.541,1.027-2.311s0.514-1.54,0.77-2.567
		c0.514-0.514,0.771-0.77,1.027-1.284c0.257-0.513,0.514-1.027,0.771-1.54c0.256,0,0.77-0.257,1.283-0.257c0.514,0,1.027,0,1.541,0
		h1.027c0,0.257,0.257,0.513,0.513,0.513l1.027,0.771c-0.256,0.513-0.513,1.027-0.513,1.54s0,0.77,0.257,1.284
		C150.433,377.389,150.689,377.902,150.946,378.159z"/>
	<path fill="#FFFFFF" d="M187.399,384.32c0,0.256-0.257,0.77-0.257,1.027c0,0.513,0,0.77,0,1.027c0,0.513,0,0.77,0,1.283
		c0,0.514,0,0.771,0,1.284v0.77c0,0.257-0.257,0.514-0.257,0.77c-0.256,0.257-0.256,0.514-0.256,0.771
		c-0.514,1.283-0.771,2.824-0.771,4.107l0,0c-0.256,0.513-0.256,0.77-0.513,1.283c-0.257,0.257-0.257,0.771-0.514,1.027
		c-0.256,0.257-0.256,0.77-0.256,1.026c0,0.514,0,0.771,0,1.284c-0.514,1.283-1.284,2.566-2.054,3.594
		c-0.771,1.026-1.797,2.054-2.567,3.337c-0.77,0.257-1.54,0.771-2.054,1.283c-0.77,0.514-1.283,1.027-1.797,1.541
		c-1.284,0.257-2.311,0.77-3.337,1.283s-2.054,1.027-3.081,2.054c-0.77,0-1.54,0.257-2.054,0.257
		c-0.77,0.257-1.283,0.257-2.053,0.77h-0.771c-0.256,0-0.513,0-0.77-0.256c-0.513,0.256-1.027,0.513-1.54,0.513
		c-0.514,0-1.027,0.257-1.541,0.257c-0.77,0-1.284,0-2.054-0.257c-0.77,0-1.284-0.257-2.054-0.257
		c-0.257-0.513-0.77-1.026-1.54-1.283c-0.771-0.257-1.284-0.514-1.797-0.77c-1.027-1.541-1.797-2.824-2.311-4.364
		c-0.514-1.284-1.027-3.081-1.541-4.621c0-0.514,0.257-1.026,0.514-1.54s0.257-1.027,0.257-1.54c0.77-2.054,1.54-3.595,2.567-5.392
		c1.027-1.54,2.311-3.081,3.851-4.621c0-0.257,0-0.513,0.257-0.513c0-0.257,0-0.257,0-0.771c0,0,0,0,0.257,0
		c0.256,0,0.513,0,0.513-0.257c0-0.256,0-0.256,0-0.513c1.284-0.77,2.567-1.797,3.594-3.081c1.027-1.027,2.31-2.054,3.851-2.824
		c0-0.257,0.257-0.514,0.513-0.77c0.257-0.257,0.514-0.514,0.514-0.771c1.283-0.256,2.31-0.77,3.337-1.54s2.054-1.284,3.081-1.797
		c0.514-0.257,1.284-0.514,1.797-0.771c0,0.514,0.513,0.257,1.283,0c0.257,0,0.514-0.256,0.514-0.256h0.513
		c0.771,0,1.284,0,2.054,0.256c0.77,0.514,1.284,0.514,2.054,0.514c0.257,0,0.257,0,0.514,0c0.256,0,0.256,0,0.513,0
		c0.514,0.77,1.541,1.284,2.311,1.797c0.257,0.514,0.513,1.027,0.77,1.541c0.257,0.513,0.77,0.77,1.027,1.283
		c0.257,0.514,0.77,0.771,1.027,1.284C187.143,383.036,187.399,383.549,187.399,384.32z M182.008,387.144c0-0.257,0-0.257,0-0.514
		c-0.257,0-0.77-0.256-1.027-0.513s-0.77-0.257-1.027-0.257s-0.513,0-0.77,0.257c0-0.257-0.257-0.514-0.257-0.514
		c-0.257,0-0.257-0.256-0.513-0.256c-0.257,0-0.514-0.257-0.514-0.257c-0.256,0-0.256-0.257-0.513-0.257
		c0-0.257-0.257-0.513-0.257-1.027c-0.257-0.257-0.257-0.513-0.77-0.77c-0.257,0.257-0.77,0.513-1.284,0.77
		c-0.513,0.257-1.027,0.514-1.284,0.514c-1.027,0.256-1.54,0.513-1.797,0.77c-0.513,0.257-0.77,0.513-1.027,1.027h-1.027
		c-0.513,0.513-0.77,0.77-1.027,1.027s-0.77,0.513-1.027,0.77c-0.513,0.257-1.027,0.77-1.54,1.027
		c-0.514,0.514-1.027,0.77-1.541,1.284c-0.513,0.513-1.027,1.027-1.54,1.54c-0.514,0.514-1.027,1.027-1.541,1.284
		c-0.513,1.027-1.027,2.054-1.54,2.824c-0.514,0.77-1.027,1.541-1.541,2.31c-0.513,0.771-1.027,1.541-1.283,2.567
		c-0.257,1.027-0.514,2.054-0.514,3.337v0.514c0,0.257,0,0.257,0,0.514c0.514,0.514,0.77,1.026,1.284,1.797
		c0.257,0.514,0.77,1.027,1.54,1.283c0.771,0.257,1.541,0.514,2.311,0.514s1.541,0,2.567,0.257c1.797-0.257,3.594-0.771,5.134-1.54
		c1.541-0.771,3.337-1.797,4.621-2.824c0.257-0.257,0.513-0.514,0.77-0.514c0.257-0.256,0.514-0.513,0.77-0.77
		c0.257-0.257,0.257-0.514,0.514-0.514s0.257-0.514,0.513-0.514c0.257-0.513,0.514-1.026,1.027-1.54
		c0.257-0.514,0.771-1.026,1.284-1.283c0.257-0.771,0.514-1.54,0.77-2.311c0.257-0.771,0.514-1.541,0.771-2.311
		c0.256-0.77,0.513-1.54,0.77-2.311c0.257-0.77,0.257-1.54,0.257-2.567c0-0.257,0-0.513,0-0.513c0-0.257,0-0.514,0-0.514
		C181.751,388.17,182.008,387.657,182.008,387.144z"/>
	<path fill="#FFFFFF" d="M226.419,407.681c-0.257,0.513-0.513,1.026-0.77,1.283s-0.77,0.771-1.027,1.027
		c-0.514,0.256-0.77,0.513-1.284,0.77c-0.513,0.257-1.027,0.514-1.284,0.771h-0.77c-1.54,0-2.824-0.257-3.594-1.027
		c-0.771-0.77-1.541-1.797-2.054-2.823c-0.514-1.027-0.771-2.311-1.027-3.595c-0.257-1.283-0.514-2.566-0.771-3.594
		c-0.513,0.257-0.77,0.771-1.027,1.284c-0.256,0.513-0.513,1.026-1.027,1.54c-0.256,0.514-0.77,1.026-1.027,1.283
		c-0.256,0.257-1.026,0.771-1.54,0.771c0,0.257-0.257,0.514-0.257,0.77c-0.256,0.257-0.256,0.514-0.256,0.771
		c-0.771,0.514-1.541,1.027-2.311,1.54c-0.77,0.514-1.284,1.284-2.054,1.797c-0.77,0.514-1.284,1.284-2.054,1.798
		c-0.77,0.513-1.541,1.026-2.311,1.54c0,0,0,0-0.257,0c-0.513,0-0.77,0-1.283,0.257c-0.257,0.256-0.771,0.256-1.284,0.256
		c-0.257,0-0.513,0-0.77-0.256c-0.257,0-0.514-0.257-0.77-0.514c-0.257-0.257-0.514-0.257-0.771-0.257s-0.513,0-0.77,0
		c-0.257-0.771-0.77-1.283-1.54-1.797c-0.514-0.514-1.027-1.283-1.027-2.054c0-0.257,0-0.771-0.257-1.027
		c0-0.256,0-0.77-0.257-1.026c0-0.514-0.257-1.027-0.513-1.797c-0.257-0.514-0.257-1.284-0.514-1.797
		c0.257-1.027,0.257-2.054,0.514-3.338c0.256-1.283,0.256-2.31,0.513-3.594c0.257-1.283,0.514-2.31,1.027-3.594
		c0.514-1.027,1.027-2.054,1.541-2.824v-0.514c0-0.513,0-1.284,0.256-1.797c0.257-0.513,0.514-1.027,0.77-1.54
		c0.257-0.514,0.514-1.027,0.771-1.541c0.257-0.513,0.257-1.027,0-1.54c0.513-0.257,1.027-0.514,1.283-0.514
		c0.514-0.257,1.027-0.257,1.541-0.257c0.513,0,1.027,0,1.284,0.257c0,0.257,0,0.514,0.513,0.514v0.256c0,0.771,0,1.541-0.257,2.311
		c-0.256,0.77-0.513,1.541-0.77,2.311s-0.513,1.54-0.77,2.31c-0.257,0.771-0.514,1.541-0.514,2.311c-0.256,0-0.256,0-0.256,0.257
		c0,0,0,0.257-0.257,0.257c0,0,0,0.256-0.257,0.256s-0.257,0-0.257,0c-0.256,1.284-0.513,2.567-0.77,3.851
		c-0.256,1.283-0.256,2.567-0.256,3.851c0,0.771,0,1.54,0.256,2.311c0.257,0.77,0.514,1.54,0.77,2.311h0.257
		c0.514,0,0.77,0,1.027,0.256c0.257,0.257,0.514,0.257,1.027,0.514c0.257,0,0.514-0.257,0.77-0.257
		c0.257-0.257,0.257-0.257,0.257-0.77c0.514,0,0.77-0.257,1.284-0.257c0.257-0.257,0.513-0.514,0.77-0.771l0.77-0.77
		c0.257-0.257,0.771-0.514,1.027-0.514c0-0.257,0-0.514,0.257-0.514l0.257-0.257l0.257-0.257c0-0.256,0-0.256,0-0.513
		c0.513,0,0.77-0.257,1.027-0.257c0.256-0.257,0.513-0.514,0.77-0.771s0.513-0.514,0.513-0.77c0.257-0.257,0.514-0.514,0.771-0.771
		c0.256-0.514,0.513-1.283,1.027-2.311c0.513-1.027,1.027-1.797,1.283-2.824c0.514-1.027,0.771-2.054,1.284-2.824
		c0.257-1.027,0.513-1.541,0.513-2.054c0-0.257,0-0.257-0.256-0.514c0-0.257,0-0.257,0-0.513v-0.257
		c0.256-0.257,0.513-0.77,0.77-1.284c0.257-0.513,0.513-0.77,0.77-1.283c0.257-0.514,0.514-0.771,1.027-1.027
		c0.257-0.257,0.77-0.514,1.284-0.771c0.513,0.257,1.284,0.257,1.797,0.514c0.514,0,1.284,0.257,1.797,0.513
		c0,1.027,0.257,2.054,0.257,3.337s0.514,2.311,0.77,3.081c0,0.513,0,1.027,0,1.284c0,0.513,0,0.77,0,1.283c0,0.771,0,1.541,0,2.311
		s0.257,1.541,0.257,2.31c-0.257,0.514-0.513,1.284-0.513,1.797c0,0.771,0.256,1.798,0.513,2.567
		c0.257,0.771,0.514,1.54,0.514,2.567c0.513,0.771,1.027,1.026,1.797,1.026c0.256,0,0.256,0,0.513,0s0.257,0,0.514-0.256
		c0.256,0.256,0.513,0.77,0.77,1.026C225.649,407.167,225.906,407.424,226.419,407.681z"/>
	<path fill="#FFFFFF" d="M235.661,409.478c0,0.514,0,1.026-0.257,1.54s-0.513,1.027-0.77,1.54l-0.77,1.541
		c-0.257,0.513-0.514,1.026-0.514,1.54h-0.257c-0.513,0-1.027,0-1.54,0.257c-0.514,0.257-1.027,0.257-1.54,0.513
		c-0.514,0.257-1.027,0.257-1.541,0.514c-0.513,0.257-1.027,0.257-1.54,0.257c0-0.514-0.257-1.026-0.514-1.283
		c-0.257-0.514-0.77-0.514-1.284-0.514c0-0.257-0.256-0.514-0.256-1.027c0-0.256,0-0.77,0-1.026s0-0.514,0-1.027
		c0-0.256-0.257-0.513-0.257-1.026c0.77-0.514,1.284-1.027,1.797-1.797c0.514-0.771,1.027-1.284,1.541-2.054
		c0.513,0,1.027,0.257,1.283,0.257c0.514,0,1.027,0,1.797-0.257c0.771-0.257,1.027-0.257,1.797-0.257
		c0.513,0,1.283,0.257,1.797,0.514c0,0.257,0.257,0.513,0.257,0.513c0,0.257,0,0.514,0.256,0.771c0,0.257,0.257,0.257,0.257,0.514
		C235.147,409.221,235.404,409.221,235.661,409.478L235.661,409.478z"/>
	<path fill="#FFFFFF" d="M331.928,407.167c0,0.514-0.257,1.026-0.514,1.283c-0.256,0.514-0.256,0.771-0.256,1.284
		c-0.257,0.257-0.257,0.513-0.514,0.513c-0.257,0.257-0.257,0.514-0.257,0.771c-0.771,0.514-1.54,1.027-2.054,1.54
		c-0.514,0.514-1.283,1.284-2.054,1.797c-0.514,0.257-0.771,0.514-1.027,0.771c-0.256,0.257-0.77,0.257-1.026,0.514l-1.283,1.026
		c-0.514,0.257-1.284,0.771-2.054,1.027c-0.771,0.257-1.284,0.77-1.798,1.283c-0.77,0-1.54,0.257-2.31,0.771
		c-0.771,0.513-1.541,0.77-2.311,1.026c-0.257,0-0.514,0.257-0.771,0.257s-0.514,0.257-0.77,0.257l-0.771,0.514
		c-0.514,0.257-1.027,0.513-1.797,0.77c-0.771,0.257-1.284,0.514-1.797,0.514c-0.257,0.257-0.514,0.514-0.771,0.771
		c-1.283,0.513-2.567,0.77-3.851,1.026s-2.567,0.514-3.851,1.027c-0.514,0.257-0.771,0.513-1.284,0.77s-0.77,0.514-1.284,0.514
		c0,0.257-0.256,0.514-0.256,0.771c0,0.256,0,0.513-0.257,0.77h-0.257c-0.257,0-0.257,0-0.257-0.257s0-0.257-0.256-0.257h-0.257
		c-0.514,0-1.027,0.257-1.284,0.257s-1.027,0-1.54,0c-0.257,0-0.771,0-1.541,0s-1.027-0.257-1.54-0.257
		c-0.257,0-0.514-0.256-0.514-0.513c-0.256-0.257-0.256-0.514-0.513-1.027c-0.257-0.257-0.257-0.77-0.257-1.026
		s-0.257-0.771-0.257-0.771c0-0.514,0.257-0.77,0.514-1.026s0.513-0.514,0.513-1.027c0.257,0,0.771,0,1.027-0.257
		c0.257,0,0.771,0,1.027,0c1.284-0.257,2.311-0.77,3.594-1.026c1.283-0.257,2.31-0.771,3.594-1.027s2.311-0.77,3.337-1.026
		c1.027-0.514,2.311-1.027,3.337-1.54h1.284c0.77-0.257,1.54-0.771,2.31-1.027c0.771-0.257,1.541-0.77,2.054-1.283
		c1.284-0.257,2.567-0.514,3.852-1.027c1.283-0.514,2.566-1.026,3.337-2.054c0.514,0,1.026-0.257,1.54-0.513
		c0.514-0.257,0.771-0.514,1.284-0.771l1.026-0.771c0.257-0.257,0.771-0.513,1.283-0.513c0.257-0.257,0.514-0.514,0.771-1.027
		c0.257-0.257,0.514-0.514,1.027-0.771c0-0.513-0.514-1.026-0.771-1.283c-0.514-0.257-1.027-0.771-1.284-1.026h-1.283
		c-1.026-0.514-2.054-1.027-3.08-1.284c-1.027-0.257-2.311-0.77-3.338-1.026h-0.257c-0.256,0-0.513,0-0.513,0.257
		c0,0.256-0.257,0.256-0.514,0.256c-0.257-0.256-0.771-0.256-1.027-0.513c-0.256-0.257-0.77,0-1.283,0s-1.026,0-1.54,0
		s-1.027,0-1.54,0c-0.257,0-0.514,0-0.771,0s-0.514-0.257-0.771-0.257h-0.77c-0.771,0-1.541,0-2.311,0s-1.541,0-2.311,0
		c-0.513,0-0.77,0-1.284,0c-0.256,0-0.77,0-1.027-0.257c-0.77,0.257-1.54,0.514-2.567,0.771c-0.77,0.256-1.797,0.256-2.824,0.256
		s-1.797,0.257-2.824,0.257s-1.797,0.257-2.567,0.257c-0.257,0-0.513,0-0.77,0s-0.514,0-0.514,0s-0.256,0-0.513,0s-0.513,0-0.513,0
		c-0.514-0.514-1.027-1.026-1.797-1.026c-0.77-0.257-1.283-0.514-2.054-0.514c-0.513-0.514-1.027-1.283-1.027-2.054
		c-0.256-0.771-0.513-1.283-0.513-2.311h0.257c0.256,0,0.256-0.257,0.256-0.514c0-0.256,0-0.513,0.257-0.77s0.514-0.514,0.77-0.514
		c0.257,0,0.514-0.257,1.027-0.257c0.257,0,0.514-0.257,0.771-0.514c0.256-0.256,0.513-0.513,0.77-0.77h0.77
		c0.257,0,0.257,0,0.514,0c0.256,0,0.256,0,0.513,0.256c0.257-0.256,0.257-0.256,0.513-0.513c0.257-0.257,0.514-0.257,0.771-0.257
		s0.257-0.257,0.513-0.513c0.257-0.257,0.257-0.257,0.257-0.771l0.257,0.257c0,0,0.256,0,0.513,0s0.257,0,0.514,0
		c0.256-0.513,0.513-0.77,1.027-0.77c0.513,0,0.77-0.257,1.283-0.514c0.257-0.256,0.514-0.256,0.771-0.513
		c0.256-0.257,0.513-0.513,0.77-0.513l3.337-2.567l5.134-3.851c1.797-1.284,3.594-2.567,5.391-3.594
		c0-0.256,0.257-0.513,0.257-0.513c0.257,0,0.257-0.257,0.514-0.257c0.257-0.257,0.257-0.257,0.257-0.513c0-0.257,0-0.257,0-0.77
		c0.513,0,1.026-0.257,1.283-0.514s0.514-0.514,0.771-1.027c0.256-0.257,0.513-0.77,0.77-1.027s0.514-0.514,1.027-0.77
		c0,0,0-0.257,0-0.514c0-0.256,0-0.513,0-0.77s0.256-0.513,0.513-0.77c-0.257-0.77-1.026-1.284-1.797-1.797
		c-0.77-0.257-1.54-0.771-2.311-1.027h-0.256c-0.257,0-0.257,0-0.257,0.256c0,0.257,0,0.257-0.257,0.257c-2.054,0-2.824,0-3.594,0
		s-1.54,0-2.311,0.257c-0.77,0-1.54,0.257-2.31,0c0,0.257-0.257,0.257-0.257,0.513c0,0.257-0.257,0.257-0.514,0.514
		c-0.77,0-1.54,0.257-2.31,0.257l-2.311,0.513l-1.284,0.257c-0.257,0-0.257,0.257-0.513,0.513c-0.257,0.257-0.257,0.514-0.257,0.514
		c-0.257,0-0.257-0.257-0.513-0.257c-0.257,0,0.256-0.257,0-0.513c-0.771,0.513-1.797,1.027-2.824,1.283
		c-1.027,0.257-1.797,0.77-2.567,1.541c-0.257-0.257-0.77-0.257-1.284-0.257c-0.513,0-0.77,0.257-1.284,0.514
		c-0.513,0.256-0.77,0.513-0.77,1.026c-0.257,0-0.77,0-0.77,0c-0.514,0-0.77,0-1.027,0.257s-0.514,0.514-0.77,0.77
		c-0.257,0.257-0.514,0.514-0.771,0.771c-0.256,0.256-0.77,0.513-1.027,0.513c0,0.257,0,0.257,0,0.514c0,0.256,0,0.513,0,0.77
		c0,1.797,0,3.337-0.256,5.134c-0.257,1.54-0.257,3.337-0.257,5.134c0,0.256,0,0.77,0,1.027c0,0.256,0,0.77,0,1.027
		c0,0,0,0.256-0.257,0.77c-0.256,0.257-0.256,0.77-0.256,0.77c0.256,0.513,0.256,0.77,0.256,1.284s0,0.771,0.257,1.283
		c-0.257,0.257-0.513,0.771-0.513,1.284c0,0.257,0,0.513,0,0.77s0,0.514,0,0.771v0.771c0,0.77-0.257,1.54-0.257,2.31
		c0,0.771,0,1.541,0,2.311c0,0.257,0,1.027,0,1.797c0,0.771,0,1.797,0.257,2.567c0,1.027,0.256,2.054,0.256,3.081
		c0.257,1.026,0.257,2.054,0.514,2.823c0.256,0.771,0.513,1.54,1.027,2.054c0.256,0.514,0.77,0.771,1.283,0.771c0,0,0.257,0,0.514,0
		s0.257-0.257,0.257-0.257s0-0.257,0-0.514c0,0,0-0.257,0-0.514l0,0c0.256,0.257,0.513,0.257,1.027,0.257c0.256,0,0.77,0,1.027,0
		c0.256,0,0.77,0,1.027,0.257c0.256,0,0.513,0.257,0.77,0.514c-0.257,0.257-0.257,0.514-0.257,1.026c0,0.514,0,0.771,0.257,1.284
		c0.257,0.513,0.257,0.77,0.513,1.283c-0.77,0.257-1.283,0.514-2.054,0.771c-0.513,0.257-1.027,0.513-1.797,0.77
		s-1.284,0.514-1.797,0.771s-1.284,0.257-2.311,0.514c-0.513-0.257-1.027-0.514-1.284-0.771c-0.256-0.257-0.77-0.514-1.54-0.514
		c-1.027-1.283-1.797-2.823-2.311-4.364c-0.513-1.54-1.027-3.337-1.54-5.134c-0.257-1.797-0.514-3.594-0.77-5.391
		c-0.257-1.797-0.257-3.338-0.257-5.135s0-3.337,0.257-5.134c0.256-1.797,0.256-3.338,0.513-5.134c0-0.514,0.257-1.027,0.257-1.541
		c0-0.513,0.257-1.027,0.257-1.54c0-0.257,0.256-0.514,0.256-0.771c0-0.256,0-0.513,0-0.77c0-0.513,0-1.284,0-1.797s0-1.284,0-1.797
		c0-1.027,0-1.797,0.257-2.824c0-0.257,0-0.514,0.257-0.771c0-0.256,0.257-0.513,0.257-0.77s0-0.513-0.257-0.513
		s-0.257-0.257-0.514-0.514c0-0.257,0.257-0.77,0.257-1.027s0-0.77,0-1.027c0-0.77-0.257-1.283-0.513-1.797
		c0.256-1.027,0.513-2.054,0.77-2.824c0.257-1.027,1.027-1.541,2.054-2.054c0.77,0,1.54,0,2.31,0.257
		c0.771,0,1.541,0.513,2.054,1.027c0.257-0.257,0.514-0.257,0.771-0.257h1.027c0.256,0,0.77,0,1.027-0.257
		c0.256,0,0.513-0.257,0.77-0.513c0.77-0.257,1.54-0.257,2.311-0.771c0.77-0.256,1.54-0.513,2.31-1.027h1.284
		c0.257-0.256,0.514-0.256,0.77-0.513l1.027-0.257c0.257,0,0.771-0.257,1.027-0.257c0.257,0,0.514-0.256,0.771-0.513h0.256
		c0.771,0,1.797-0.257,2.567-0.514c0.77-0.256,1.54-0.77,2.31-1.027c0.257,0,0.514-0.256,0.771-0.513
		c0.513-0.257,0.77-0.257,0.77-0.257c0.513,0,1.027,0,1.541-0.257c0.513,0,1.026,0,1.54-0.256c1.284-0.257,2.311-0.514,3.594-0.771
		c1.284-0.256,2.311-0.256,3.594-0.256c0.514,0,0.771,0,1.027,0s0.771,0,1.026,0c0,0.256,0.257,0.256,0.257,0.256
		c0.257,0,0.257,0.257,0.514,0.257s0.257,0.257,0.257,0.257c0,0.257,0.257,0.257,0,0.513h0.257c0,0,0.257,0,0.257-0.256
		c0,0,0.256-0.257,0.513-0.257h0.257c0.514,0.513,1.027,1.027,1.54,1.54c0.514,0.514,1.027,0.771,1.798,1.027
		c0.256,1.027,0.77,2.311,1.026,3.337s0.514,2.311,0.514,3.594c0,0.77,0,1.54-0.257,2.31c-0.514,0.257-0.771,0.77-1.027,1.284
		c-0.256,0.513-0.513,1.027-0.513,1.54c-1.027,0.514-2.054,1.284-2.567,2.054c-0.771,0.771-1.54,1.797-2.311,2.567h-0.771
		c-0.256,0-0.256,0-0.256,0.257h-0.257c-0.257,0.256-0.771,0.513-1.027,1.027c-0.257,0.513-0.77,0.77-0.77,1.283
		c-1.284,0.514-2.311,1.284-3.338,2.054c-1.026,0.77-2.054,1.541-3.08,2.567c-0.514,0.256-0.771,0.77-1.284,1.027
		c-0.514,0.513-0.77,0.77-1.284,1.027c-0.257,0.256-0.513,0.256-0.77,0.513s-0.514,0.257-0.77,0.514
		c-0.514,0.256-1.027,0.77-1.284,1.026c-0.514,0.514-0.77,0.771-1.284,1.027c1.797,0,3.337,0,5.134-0.257c1.797,0,3.337,0,5.134,0
		c0.771,0,1.797,0,2.567,0c0.77,0,1.54,0,2.566,0c0.257,0,0.257,0,0.514,0c0,0,0.257,0,0.514,0.257c0.514,0,1.283,0.257,1.797,0.514
		c1.797,0.256,3.594,0.513,5.391,0.77s3.595,0.771,5.392,1.284c0.513,0.256,0.77,0.513,1.026,0.513s0.771,0.257,1.284,0.257
		c0.513,0.514,1.026,1.027,1.797,1.284c0.513,0.256,1.283,0.513,1.797,0.77c0.513,0.771,1.026,1.54,1.283,2.054
		C331.928,405.37,331.928,406.14,331.928,407.167z"/>
	<path fill="#FFFFFF" d="M370.691,380.982L370.691,380.982c-0.257,0.257-0.514,0.513-0.514,0.77c-0.514,0-0.77,0.257-1.283,0.257
		s-0.771,0.257-1.284,0.513c-0.513,0-0.77,0-1.283,0s-0.771,0-1.283,0c-1.027,0-2.311,0-3.338,0c-1.026,0-2.311,0-3.337,0
		c-0.514,0.257-1.027,0.514-1.797,0.771c-0.514,0.256-1.283,0.256-1.797,0.256s-0.771,0-1.284-0.256
		c-0.77,0.513-1.797,0.77-2.823,1.027c-1.027,0.256-2.054,0.513-3.338,0.77c-1.026,0.257-2.054,0.513-3.08,1.027
		c-1.027,0.257-1.797,0.77-2.567,1.54c0,0.514-0.257,1.027-0.257,1.541c0,0.513,0,1.027,0,1.54c0,0.514,0,1.027,0,1.541
		c0,0.513,0.257,0.77,0.257,1.283c0.257,0,0.514,0.257,0.771,0.257s0.514,0,0.77,0c0.257,0,0.257,0,0.514,0s0.257-0.257,0.514-0.257
		c0.514,0,1.026,0,1.797,0s1.027,0,1.797,0c0.771,0,1.027,0,1.54,0c0.514,0,1.027-0.256,1.541-0.256
		c0.513-0.257,1.283-0.257,1.797-0.257s1.026,0,1.797,0c0.514,0,1.026,0,1.797-0.257c0.514,0,1.283-0.257,1.797-0.513
		c0.514,0.256,1.027,0.256,1.54,0.256c0.514,0,1.027,0,1.541,0c0.256,0.257,0.513,0.514,0.77,0.514
		c0.257,0.257,0.257,0.513,0.257,0.77c0,0.514-0.257,1.027-0.514,1.541c-0.257,0.513-0.77,1.026-0.77,1.54h-0.514
		c-0.771,0-1.797,0-2.567,0.257c-0.77,0.257-1.797,0.514-2.566,0.771c-0.771,0.256-1.798,0.513-2.567,0.77
		c-0.771,0.257-1.797,0.257-2.567,0.257c-0.257,0-0.257,0-0.257,0.257s0,0.257-0.257,0.257s-0.513,0-0.77,0
		c-0.771,0-1.797,0-2.567,0.257s-1.54,0.257-2.311,0.257c-0.257,0-0.514,0-0.771,0c-0.256,0-0.513,0-0.77,0
		c-0.257,0.256-0.514,0.513-0.771,0.513s-0.513,0.257-0.77,0.514c0,0.257-0.257,0.771-0.257,1.283c0,0.514,0,1.027,0,1.541
		c0,0.513,0,1.026-0.257,1.54c0,0.514-0.257,0.77-0.514,1.026c0,0.257,0.257,0.257,0.514,0.257s0.514,0,0.514,0.257s0,0.771,0,1.027
		c0,0.256,0,0.77,0,1.026c0,0.771,0,1.54,0.256,2.311c0.257,0.771,0.514,1.54,0.771,2.311c0.257,0.77,0.771,1.283,1.54,1.797
		c0.771,0.514,1.284,0.771,2.311,0.771c0.514,0,1.284,0,1.797-0.257c0.514-0.257,1.027-0.514,1.284-1.027h0.257
		c0.256,0,0.256,0,0.513,0s0.257,0,0.514,0s0.514-0.257,0.771-0.514c0.257-0.256,0.77-0.513,1.283-1.026
		c0.514-0.257,0.771-0.771,1.283-1.027c0.514-0.256,0.771-0.513,1.284-0.77c0.257-0.514,0.513-1.027,0.77-1.54
		c0.257-0.514,0.514-1.027,1.027-1.284v-1.54c0.257-0.514,0.77-0.771,1.283-1.027c0.514-0.256,0.771-0.77,1.027-1.283
		c0.257,0,0.257,0.257,0.513,0.257c0.257,0,0.257,0,0.514,0s0.257,0,0.514,0s0.514,0,0.514-0.257
		c0.257,0.514,0.513,0.771,0.77,1.283c0.257,0.514,0.257,1.027,0.771,1.541c-0.257,0.77-0.771,1.54-1.283,2.311
		c-0.514,0.77-1.027,1.797-1.541,2.823c-0.514,1.027-1.026,1.797-1.54,2.567s-1.026,1.54-1.797,2.054c0,0-0.257,0.257-0.771,0.514
		c-0.513,0.256-0.77,0.513-1.026,0.77s-0.771,0.514-1.027,1.027c-1.026,0.257-2.054,0.77-3.08,1.283
		c-1.027,0.514-2.054,1.027-2.824,1.54c-0.513,0-1.026-0.257-1.54-0.257s-0.771,0-1.283,0c-0.514,0-1.027,0-1.541,0
		c-0.256-0.256-0.256-0.256-0.77-0.256c-0.257,0-0.257-0.257-0.257-0.514c-1.284,0-2.311-0.514-3.081-1.027
		c-0.77-0.513-1.54-1.283-2.054-2.311c-0.513-0.77-1.026-1.797-1.283-2.823c-0.257-1.027-0.771-2.054-1.026-3.081v-0.256
		c0-0.257,0-0.257,0.256-0.257c0.257,0,0.257-0.257,0.257-0.257v-0.257c0-0.514-0.257-0.771-0.257-1.027c0-0.256,0-0.77,0-1.026
		c0-0.514,0-1.283,0-1.797s0-1.284,0-1.797c0-0.514,0-1.027-0.256-1.541c0.256-0.256,0.256-0.513,0.256-0.77
		s0.257-0.771,0.257-1.027c0-0.256,0-0.77,0-1.026s0-0.514,0.257-0.771c-0.257-0.513-0.257-0.77-0.514-1.026
		c0-0.257-0.256-0.771-0.256-1.027v-0.513c0.256-0.514,0.77-1.284,1.026-2.054s0.514-1.284,0.771-2.054v-0.257
		c0-1.027,0-2.053,0-3.337c0-1.027,0-2.054,0-3.337v-0.77c0-0.257,0-0.77,0-1.027c0.257-0.257,0.513-0.257,0.77-0.514
		c0.257-0.256,0.257-0.513,0.771-0.513h1.797l0.257-0.514c0-0.256,0.257-0.513,0.257-0.513c0.514,0,0.77-0.257,1.283-0.514
		c0.514-0.256,0.771-0.513,1.027-0.77c0.513-0.257,1.026-0.513,1.54-0.77s0.771-0.514,1.283-0.514
		c0.514-0.256,0.771-0.256,1.284-0.513c0.513,0,1.026-0.257,1.797-0.257c0.257,0,0.513,0,0.513-0.256c0,0,0.257-0.257,0.514-0.514
		c0.514,0,0.771,0.257,1.284,0.257c0.513,0,0.77,0,1.283,0c0.771,0,1.797-0.257,2.567-0.514c1.026,0,2.311,0,3.337,0
		c1.027,0,2.311,0,3.337,0c1.027,0,2.054,0,2.824,0c1.026,0,2.054,0.257,2.824,0.514c0.256,0,0.77-0.257,1.026-0.257
		c0.514,0,1.027,0,1.283,0.257c0.514,0,1.027,0,1.284,0c0,0.513,0.257,0.77,0.257,1.027
		C370.435,380.212,370.691,380.469,370.691,380.982z"/>
	<path fill="#FFFFFF" d="M450.015,385.603c0,0.257-0.256,0.514-0.77,0.771c-0.257,0.256-0.771,0.256-1.027,0.256
		s-0.77,0.257-1.026,0.257c-0.257,0.257-0.514,0.514-0.514,0.77l0,0c-0.257,0-0.257,0-0.257-0.256c0,0,0-0.257-0.257-0.257
		c0,0,0-0.257-0.256-0.257c-0.257,0-0.257-0.257-0.257-0.257c-0.514,0-0.771,0-1.284,0s-0.77,0-1.026,0c-0.514,0-1.027,0-1.54-0.256
		c-0.257,0-0.514,0.256-0.514,0.513s-0.257,0.514-0.257,0.514c-0.257,0-0.514,0-0.771,0s-0.513,0-0.77,0l-1.797,0.513
		c-0.514,0.257-1.284,0.257-1.798,0.257c-0.256,0-0.513,0-0.77,0c-0.514,0.513-1.284,0.77-1.797,1.027
		c-0.771,0.257-1.541,0.513-2.311,0.513c-0.771,0.257-1.54,0.514-2.311,0.77c-0.771,0.257-1.283,0.771-2.054,1.284
		c-0.257,0-0.514,0-0.771,0c-0.513,0-1.026,0-1.283,0.257s-0.771,0.513-1.283,0.513c-0.257,0-0.257,0-0.514,0s-0.514,0-0.514,0
		c-0.257,0-0.257,0.257-0.513,0.257c0,0.257-0.257,0.257-0.257,0.514c0,1.283,0.257,2.567,0.513,4.107
		c0.257,1.283,0.514,2.567,0.514,4.107v0.257c0,0.513,0.257,1.283,0.514,1.797c0.257,0.513,0.514,1.026,0.514,1.54
		c0,0.257,0,0.514,0,0.514c1.026,0.257,1.54,0.77,2.054,1.54c0.256,0.771,0.513,1.54,0.77,2.567c0.257,0.77,0.514,1.797,0.771,2.566
		c0.257,0.771,1.026,1.284,2.054,1.284c0,0.257,0.257,0.77,0.257,1.026c0,0.514,0,0.771,0,1.027c0,0.514,0,1.026-0.257,1.54
		s-0.257,1.026-0.771,1.283c-0.514,0-1.026,0-1.283,0s-0.771,0-1.284,0.257c-0.77-0.514-1.54-1.026-2.054-1.54
		c-0.513-0.514-1.026-1.283-1.54-1.797c-0.514-0.771-1.026-1.284-1.54-2.054c-0.514-0.771-1.027-1.283-1.54-2.054
		c-2.054,0.514-3.851,0.771-5.904,1.026c-2.054,0.257-4.107,0.257-6.161,0.257h-0.257c-0.257,0-0.257,0-0.514,0s-0.257,0-0.257,0
		v0.257c-0.257-0.257-0.514-0.257-0.77-0.257c-0.257,0-0.514,0-0.771,0s-0.257,0-0.514,0s-0.257,0-0.514,0.257
		c-1.54-0.257-2.823-0.514-4.107-1.026c-1.283-0.514-2.566-0.771-4.106-1.027c0-0.257,0-0.514-0.257-0.77
		c-0.257-0.257-0.257-0.257-0.514-0.514c-1.54-1.027-2.824-2.054-3.851-3.594c-1.027-1.284-1.54-3.081-1.284-5.135l-0.513-0.77
		c0-0.514,0.257-1.027,0.513-1.284c-0.256-0.257-0.513-0.514-0.77-0.77c0.257-0.514,0.514-1.027,0.77-1.541
		c0.257-0.513,0.514-1.283,0.514-1.797c0-0.256,0-0.256,0-0.513s0-0.257,0-0.514c0-0.256,0.257-0.513,0.257-0.77
		s0.257-0.513,0.257-0.77c0.514-1.284,1.283-2.567,2.054-3.594c0.771-1.284,1.54-2.311,2.824-3.081c0-0.514,0.256-1.284,0.513-1.541
		c0.257-0.513,0.514-0.77,1.027-1.284c0.513-0.513,0.77-0.77,1.026-1.027c0.257-0.256,0.514-0.77,0.771-1.283
		c0.77-0.514,1.54-1.284,2.311-1.797c0.77-0.513,1.54-1.283,2.054-2.053c0.77-0.257,1.283-0.514,1.797-0.771
		c0.514-0.256,1.026-0.77,1.54-1.283c0.771,0,1.797-0.257,2.567-0.514c0.77-0.257,1.797-0.513,2.823-0.513
		c0.514,0,1.027,0,1.541,0.256c0.513,0.257,1.026,0.514,1.283,0.771v0.256v0.257c0,0,0,0.257,0.257,0.257s0.257,0,0.257,0
		c0,0.77,0,1.54-0.257,2.567c-0.257,0.77-0.771,1.541-1.54,2.054c-0.514-0.256-1.027-0.256-1.541-0.256
		c-0.77,0-1.54,0.256-2.054,0.513c-0.513,0.257-1.283,0.513-1.797,1.027c-0.513,0.257-1.283,0.77-1.797,1.027
		s-1.283,0.513-1.797,0.77c0,0.257-0.257,0.514-0.257,0.77c0,0.257,0,0.514,0,0.771c-0.257,0-0.257,0-0.514,0c0,0-0.256,0-0.513,0
		s-0.514,0.256-0.514,0.513s-0.257,0.514-0.257,0.77c-0.771,0.257-1.283,0.771-1.797,1.284c-0.514,0.514-0.771,1.027-1.283,1.797
		c-0.514,0.514-0.771,1.284-1.284,1.797c-0.513,0.514-1.026,1.027-1.797,1.284c-0.257,1.284-0.514,2.311-0.77,3.594
		c-0.257,1.283-0.514,2.311-1.027,3.594c0,0.514,0.257,1.027,0.257,1.283c0,0.514,0,1.027-0.257,1.541
		c0.257,0.257,0.257,0.77,0.514,1.026l0.77,1.283c0.257,0.514,0.514,0.771,0.771,1.284c0.257,0.257,0.514,0.77,0.771,0.77
		c0.513,0.257,1.026,0.514,1.797,0.771c0.77,0.257,1.54,0.771,2.311,1.283h0.256h0.257c0.514,0,1.027,0,1.541,0.257
		c0.513,0.257,0.77,0.257,1.026,0.257c2.054,0,4.364-0.257,6.932-0.514c2.566-0.256,4.877-0.513,6.931-1.026
		c0-0.257,0-0.771,0-1.027c0-0.513,0-1.026-0.257-1.54s-0.513-0.77-0.77-1.283c0-0.514,0-1.027,0-1.797c0-0.514,0-1.027,0-1.797
		c0-1.027,0-2.054,0-3.081c0-1.027-0.257-2.054-0.514-2.824l0,0c-0.514,0-1.027,0-1.283,0.257c-0.514,0.257-0.771,0.257-1.284,0.257
		c-0.257,0-0.513,0-0.513-0.257c-0.514,0.513-1.027,1.027-1.541,1.284c-0.513,0.256-1.283,0.513-2.054,0.77
		c-0.77,0.257-1.54,0.514-2.054,0.771c-0.77,0.257-1.283,0.514-1.797,1.027c-0.257,0-0.514-0.257-0.77-0.257
		c-0.257,0-0.514,0-0.771,0s-0.514,0-0.771,0c-0.77-0.771-1.283-1.541-1.283-2.567c0-0.514,0-1.027,0.257-1.541
		c0.257-0.513,0.514-1.027,0.77-1.54c0.257,0,0.514-0.257,0.771-0.257s0.514,0,0.771,0s0.513-0.256,0.77-0.256
		s0.257-0.257,0.257-0.514l0.257,0.257h0.257h0.257h0.257v0.257c1.54-0.771,3.337-1.541,4.877-2.311
		c1.541-0.77,3.338-1.027,5.135-1.541c1.797-0.513,3.594-1.027,5.134-1.283c1.54-0.257,3.594-1.027,5.135-1.541
		c0.257-0.257,0.513-0.513,0.77-0.513s0.514-0.257,0.771-0.514c0.257,0.257,0.514,0.257,1.026,0.257c0.514,0,1.027,0,1.798-0.257
		c0.77-0.257,1.026-0.513,1.54-0.77c0.257,0,0.257,0,0.513,0h0.514c0.771,0,1.541,0,2.054-0.257
		c0.771-0.257,1.284-0.513,2.054-1.027h0.257c1.283,0,2.311-0.257,3.337-0.513c1.027-0.257,2.311-0.514,3.595-0.514
		c1.54,0,2.823,0.514,4.107,1.284v0.77c0,0.257,0,0.514,0,0.77C449.759,385.09,449.759,385.09,450.015,385.603z"/>
	<path fill="#FFFFFF" d="M505.465,406.653c0,0.514-0.257,1.027-0.514,1.284c-0.257,0.256-0.77,0.513-1.026,0.77
		c-0.257,0-0.257,0-0.514,0s-0.257,0-0.514,0c-1.283,0-2.311,0-3.337,0.514c-1.027,0.257-2.054,0.514-3.081,0.771
		c-0.256,0-0.77,0-1.026,0s-0.771,0-1.027,0c-1.283,0.256-2.566,0.256-3.851,0.513c-1.283,0-2.566,0.257-4.107,0.514
		c-1.283,0.257-2.566,0.257-3.851,0.514c-1.283,0.257-2.566,0.514-3.594,1.026l-0.257-0.257c0,0-0.257-0.256-0.513-0.256
		c-0.257,0-0.771,0-1.027,0.256c-0.257,0.257-0.771,0.257-1.026,0c-0.257,0.257-0.771,0.514-1.284,0.514s-0.77,0.257-1.283,0.257
		s-0.771,0.257-1.284,0.257c-0.513,0-0.77,0.257-1.283,0.514c-0.257-0.257-0.771-0.257-1.026-0.257
		c-0.257,0-0.771-0.257-0.771-0.514c-0.771,0.514-1.797,0.771-2.824,0.771c-1.026,0-1.797,0.257-2.823,0
		c-0.514,0-1.284-0.257-2.311-0.257c-0.771-0.257-1.54-0.257-2.567-0.771c-0.77-0.257-1.54-0.514-2.311-1.026
		c-0.77-0.514-1.283-0.771-1.54-1.541c-0.257-0.256-0.514-0.77-0.514-1.283s-0.256-0.771-0.77-1.026
		c0-0.771,0.257-1.798,0.514-2.567c0.256-0.771,0.256-1.54,0.513-2.567c0.771-0.514,1.54-1.283,2.054-2.054
		c0.771-0.77,1.284-1.54,1.797-2.311c0.771-0.257,1.284-0.77,2.054-1.283c0.514-0.514,1.284-1.027,1.797-1.541
		c0.514-0.513,1.284-1.027,1.798-1.54c0.513-0.514,1.283-1.027,2.053-1.284c0-0.257,0.257-0.513,0.514-0.77s0.514-0.257,0.771-0.513
		c0.257-0.257,0.514-0.257,0.514-0.514c0.256-0.257,0.256-0.514,0.513-0.77c1.284-0.77,2.567-1.797,3.338-3.081
		c1.026-1.284,1.54-2.567,1.797-4.107c-0.514-0.514-1.284-0.77-2.054-1.027c-0.771-0.257-1.54-0.257-2.567-0.257
		c-0.771,0-1.54,0-2.311,0c-0.77,0-1.54,0-2.566,0c-0.771,0.257-1.798,0.514-2.567,0.514c-0.771,0-1.797,0.256-2.567,0.256
		s-1.797,0.257-2.567,0.257c-0.77,0.257-1.54,0.514-2.566,1.027c-0.257,0-0.257,0-0.514,0s-0.257,0-0.514,0
		c-1.283,0-2.311,0.257-3.337,0.77c-1.027,0.514-2.054,1.027-3.081,1.541c0,0.257,0,0.257,0,0.257c0,0.256,0,0.513,0.257,0.77
		c0,0.257,0.257,0.513,0.257,0.77l0,0l0,0c0,0.257,0,0.257-0.257,0.514c0,0.256,0,0.256-0.257,0.513
		c-0.513,1.284-0.513,2.311-0.77,3.594c0,1.027,0,2.054,0,2.824c0,1.026,0,1.797,0,2.823c0,1.284-0.257,2.311-0.514,3.338
		c0.257,0.77,0.257,1.797,0.514,2.823c0.257,1.027,0.257,2.054,0.513,2.824c0.257,1.026,0.514,1.797,0.771,2.824
		c0.257,1.026,0.771,1.797,1.283,2.566v0.257h0.257h0.514c0.257,0,0.257,0,0.257,0.257l0.257,0.257c0,0,0,0.257,0.257,0.257
		c0,0,0,0.257,0,0.514c0,0.77-0.257,1.54-0.514,2.054c-0.257,0.513-0.514,1.283-0.514,2.053c-0.513,0-0.77,0.257-1.283,0.257
		s-1.284-0.257-1.797-0.513c-0.514-0.257-1.027-0.771-1.284-1.027c-0.513-0.514-0.77-1.026-1.283-1.283
		c-0.257-0.514-0.771-0.771-1.283-1.284c-0.257-1.026-0.514-2.31-0.771-3.594c-0.257-1.283-0.771-2.311-1.283-3.337
		c0.257-0.257,0.257-0.771,0.257-1.283c0-0.771,0-1.541-0.257-2.311c-0.257-0.771-0.257-1.541-0.257-2.311
		c0-0.514,0-0.771,0.257-1.284c0-0.513,0.257-0.77,0.257-1.283s0-1.283-0.257-1.797s-0.257-1.284-0.257-1.797
		c0-0.257,0-0.514,0.257-0.771c0-0.256,0.257-0.513,0.513-0.77c-0.256-0.513-0.256-0.77-0.256-1.284c0-0.513,0-1.283,0.256-1.797
		c0-0.513,0.257-1.027,0.257-1.797c0-0.257,0-0.513,0-0.77s0-0.514-0.257-0.77l-0.513-0.257c-0.257,0-0.514,0-0.771,0.257
		c-0.257,0-0.257,0.256-0.514,0.513s-0.257,0.257-0.513,0.257c-0.257,0-0.257,0.257-0.257,0.257h-0.257h-0.257
		c0,0-0.257,0-0.514,0.256c-0.257,0.257-0.514,0.257-0.77,0.514c-0.257,0.257-0.514,0.257-0.771,0.513
		c-0.257,0.257-0.514,0.257-0.514,0.257c-0.514,0-0.77-0.257-1.026-0.513c-0.257-0.257-0.514-0.514-0.771-0.514
		c-0.257-0.257-0.514-0.513-0.771-0.513c-0.256-0.257-0.513-0.257-0.77-0.257c0-0.257-0.257-0.514-0.257-0.77
		c0-0.257,0-0.514,0-0.771l0,0c0.257-0.513,0.514-0.77,1.026-1.283c0.514-0.257,0.771-0.514,1.284-0.771l1.54-0.77
		c0.514-0.257,1.027-0.513,1.283-0.77h0.514c0.771,0,1.284,0,1.797-0.514c0.514-0.256,1.027-0.77,1.541-1.027
		c0.513-0.513,1.026-0.77,1.283-1.283c0.514-0.514,1.026-0.771,1.54-1.027c0.514,0.256,0.771,0.256,1.283,0.513
		c0.514,0.257,1.027,0.257,1.284,0.257c0.514,0,1.026,0,1.54-0.257s1.027-0.513,1.283-0.77c0.257,0,0.257,0,0.514,0.257
		c0.257,0,0.257,0,0.514,0c0.514,0,1.026,0,1.797-0.257c0.514-0.257,1.026-0.514,1.54-0.77c0.771,0,1.541,0,2.311-0.257
		c0.771-0.257,1.54-0.257,2.311-0.513c0.771-0.257,1.54-0.257,2.311-0.514c0.77-0.257,1.54-0.257,2.311-0.257
		c1.283,0,2.566,0,3.594-0.257c1.026-0.256,2.311-0.256,3.594-0.256c0.771,0,1.797,0,2.567,0.256c0.77,0,1.797,0,2.566,0
		c0.514,0.257,1.027,0.514,1.284,0.514c0.514,0.257,0.77,0.257,1.54,0.257c1.283,1.027,2.311,2.31,3.337,3.594v1.284
		c0,0.77-0.256,1.797-0.513,2.567c-0.257,0.771-0.514,1.541-1.027,2.567c-0.257,0.77-0.77,1.54-1.026,2.311
		c-0.514,0.77-0.771,1.54-1.284,2.31c-2.31,2.311-4.877,4.364-7.188,6.674c-2.311,2.054-4.878,4.364-7.444,6.418
		c0,0.257-0.257,0.771-0.257,1.027c-0.257,0.256-0.257,0.513-0.257,1.026c0,0.257,0,0.257,0,0.514c0.257,0,0.514,0.257,0.77,0.514
		c0.257,0.256,0.257,0.513,0.257,0.77h0.514c0.257,0,0.257,0,0.257,0.257h0.771c1.54,0,2.823,0,4.363,0
		c1.541-0.257,2.824-0.257,4.364-0.514c1.541-0.257,2.824-0.257,4.364-0.513c1.54-0.257,2.824-0.257,4.364-0.257
		c0.257,0,0.771-0.257,1.026-0.257c0.257,0,0.771-0.257,1.027-0.514h0.257c0.257,0,0.514,0,0.514,0.257
		c0.256,0.257,0.256,0.257,0.513,0.257s0.257,0,0.514,0s0.514-0.257,0.771-0.257c0.513-0.257,1.026-0.257,1.54-0.257
		s1.026,0,1.797-0.257c2.054-0.257,4.364-0.257,6.418-0.257s4.364-0.257,6.418-0.77c0.257,0.257,0.513,0.513,0.77,0.513
		s0.771,0.257,1.027,0.257s0.77,0.257,1.026,0.257C505.208,406.14,505.465,406.396,505.465,406.653z"/>
	<path fill="#FFFFFF" d="M525.231,380.726L525.231,380.726c-0.257,0.257-0.514,0.514-0.514,0.77
		c-0.513,0.257-0.77,0.257-1.283,0.514c-0.514,0-0.771,0.257-1.283,0.513c-0.514,0-0.771,0-1.284,0c-0.513,0-0.77,0-1.283,0
		c-1.027,0-2.311,0-3.337,0c-1.027,0-2.311,0-3.338,0c-0.513,0.257-1.026,0.514-1.797,0.771c-0.514,0.256-1.283,0.256-1.797,0.256
		s-0.771,0-1.283-0.256c-0.771,0.513-1.797,0.77-2.824,1.027c-1.026,0.256-2.054,0.513-3.337,0.77
		c-1.027,0.257-2.054,0.513-3.081,1.027c-1.026,0.257-1.797,0.77-2.566,1.54c0,0.514-0.257,1.027-0.257,1.541
		c0,0.513,0,1.027,0,1.54c0,0.514,0,1.027,0,1.541c0,0.513,0.257,0.77,0.257,1.283c0.256,0,0.513,0.257,0.77,0.257s0.514,0,0.771,0
		s0.257,0,0.514,0c0.256,0,0.256-0.257,0.513-0.257c0.514,0,1.027,0,1.797,0c0.514,0,1.027,0,1.797,0c0.771,0,1.027,0,1.541,0
		c0.513,0,1.026-0.256,1.54-0.256c0.514-0.257,1.283-0.257,1.797-0.257s1.027,0,1.797,0c0.514,0,1.027,0,1.797-0.257
		c0.514,0,1.284-0.257,1.797-0.513c0.514,0.256,1.027,0.256,1.541,0.256c0.513,0,1.026,0,1.54,0
		c0.257,0.257,0.514,0.514,0.771,0.514c0.256,0.257,0.256,0.513,0.256,0.77c0,0.514-0.256,1.027-0.513,1.541
		c-0.257,0.513-0.771,1.026-0.771,1.54h-0.514c-0.77,0-1.797,0-2.566,0.257c-0.771,0.257-1.798,0.514-2.567,0.771
		c-0.771,0.256-1.797,0.513-2.567,0.77s-1.797,0.257-2.567,0.257c-0.257,0-0.257,0-0.257,0.257s0,0.257-0.256,0.257
		c-0.257,0-0.514,0-0.771,0c-0.771,0-1.797,0-2.567,0.257c-0.77,0.257-1.54,0.257-2.311,0.257c-0.256,0-0.513,0-0.77,0
		s-0.514,0-0.771,0c-0.257,0.256-0.514,0.513-0.77,0.513c-0.257,0-0.514,0.257-0.771,0.514c0,0.257-0.257,0.771-0.257,1.283
		c0,0.514,0,1.027,0,1.541c0,0.513,0,1.026-0.257,1.54c0,0.514-0.257,0.77-0.514,1.026c0,0.257,0.257,0.257,0.514,0.257
		s0.514,0,0.514,0.257s0,0.771,0,1.027c0,0.256,0,0.77,0,1.026c0,0.771,0,1.54,0.257,2.311s0.513,1.54,0.77,2.311
		c0.257,0.77,0.771,1.283,1.541,1.797c0.513,0.514,1.283,0.771,2.31,0.771c0.514,0,1.284,0,1.798-0.257
		c0.513-0.257,1.026-0.514,1.283-1.027h0.257c0.257,0,0.257,0,0.514,0c0.256,0,0.256,0,0.513,0s0.514-0.257,0.771-0.514
		c0.257-0.256,0.771-0.513,1.283-1.026c0.514-0.514,0.771-0.771,1.284-1.027c0.513-0.256,0.77-0.513,1.283-0.77
		c0.257-0.514,0.514-1.027,0.771-1.54c0.256-0.514,0.513-1.027,1.026-1.284v-1.54c0.257-0.514,0.771-0.771,1.283-1.027
		c0.514-0.256,0.771-0.77,1.027-1.283c0.257,0,0.257,0.257,0.514,0.257s0.257,0,0.513,0c0.257,0,0.257,0,0.514,0
		s0.514,0,0.514-0.257c0.257,0.514,0.514,0.771,0.77,1.283c0.257,0.514,0.257,1.027,0.771,1.541c-0.257,0.77-0.771,1.54-1.283,2.311
		c-0.514,1.026-1.027,1.797-1.54,2.823c-0.514,1.027-1.027,1.797-1.541,2.567s-1.026,1.54-1.797,2.054c0,0-0.257,0.257-0.77,0.514
		c-0.514,0.256-0.771,0.513-1.027,0.77s-0.771,0.514-1.026,1.027c-1.027,0.257-2.054,0.77-3.081,1.283
		c-1.026,0.514-2.054,1.027-2.823,1.54c-0.514,0-1.027-0.257-1.541-0.257c-0.513,0-0.77,0-1.283,0s-1.027,0-1.54,0
		c-0.257-0.256-0.257-0.256-0.771-0.256c-0.257,0-0.257-0.257-0.257-0.514c-1.283,0-2.311-0.514-3.08-1.027
		c-0.771-0.513-1.541-1.283-2.054-2.311c-0.514-0.77-1.027-1.797-1.284-2.823c-0.257-1.027-0.77-2.054-1.026-3.081v-0.256
		c0-0.257,0-0.257,0.257-0.257s0.257-0.257,0.257-0.257v-0.257c0-0.514-0.257-0.771-0.257-1.027c0-0.256,0-0.77,0-1.026
		c0-0.514,0-1.283,0-1.797s0-1.284,0-1.797c0-0.514,0-1.027-0.257-1.541c0.257-0.256,0.257-0.513,0.257-0.77
		s0.257-0.771,0.257-1.027c0-0.256,0-0.77,0-1.026s0-0.514,0.257-0.771c-0.257-0.513-0.257-0.77-0.514-1.026
		c0-0.257-0.257-0.771-0.257-1.027v-0.513c0.257-0.514,0.771-1.284,1.026-2.054c0.257-0.77,0.514-1.284,0.771-2.054v-0.257
		c0-1.027,0-2.053,0-3.337c0-1.027,0-2.054,0-3.337v-1.027c0-0.257,0-0.77,0-1.027c0.257-0.257,0.514-0.257,0.771-0.513
		c0.256-0.257,0.256-0.514,0.77-0.514h1.797l0.257-0.513c0-0.257,0.257-0.514,0.257-0.514c0.514,0,0.771-0.257,1.283-0.513
		c0.514-0.257,0.771-0.514,1.027-0.771c0.514-0.256,1.026-0.513,1.54-0.77s0.771-0.513,1.284-0.513
		c0.513-0.257,0.77-0.257,1.283-0.514c0.514,0,1.026-0.256,1.797-0.256c0.257,0,0.514,0,0.514-0.257c0,0,0.257-0.257,0.514-0.514
		c0.513,0,0.77,0.257,1.283,0.257s0.77,0,1.283,0c0.771,0,1.797-0.257,2.567-0.514c1.026,0,2.311,0,3.337,0c1.027,0,2.311,0,3.338,0
		c1.026,0,2.054,0,2.823,0c1.027,0,2.054,0.257,2.824,0.514c0.257,0,0.771-0.257,1.026-0.257c0.514,0,1.027,0,1.284,0.257
		c0.513,0,1.026,0,1.283,0c0,0.514,0.257,0.77,0.257,1.027S525.231,380.469,525.231,380.726z"/>
	<path fill="#FFFFFF" d="M564.252,412.301c0,0.514-0.257,1.027-0.771,1.284c-0.257,0.257-0.771,0.513-1.283,0.77
		c-0.514,0.257-1.027,0.257-1.54,0.257c-0.514,0-1.027,0-1.284,0s-0.257,0-0.514,0s-0.257,0-0.513,0c-0.257,0-0.257,0-0.257,0.257
		s0,0.257-0.257,0.514c-0.257,0-0.257-0.257-0.514-0.257s-0.257,0-0.514,0c-0.256,0-0.513,0-0.77,0s-0.514,0-0.771,0
		s-0.514,0-0.771,0c-0.256,0-0.256-0.257-0.256-0.257l-0.257-0.257c0,0-0.257-0.257-0.514-0.257s-0.514-0.257-0.771,0
		c-0.256,0-0.513,0-0.77-0.257c-0.514-0.256-0.771-0.77-1.027-1.283s-0.513-1.026-1.026-1.797c-0.257-0.514-0.514-1.283-1.027-1.797
		c-0.257-0.514-0.77-1.027-1.283-1.54h-0.514c-0.77,0-1.026,0.257-1.283,0.77c-0.257,0-0.257-0.257-0.514-0.513
		c-0.257-0.257-0.514-0.257-0.514-0.514c-0.77,0.257-1.797,0.514-2.566,0.77c-1.027,0.257-1.797,0.257-2.824,0.257h-0.771
		c-0.256,0-0.513,0-0.77,0c-0.257,0.257-0.771,0.257-1.027,0.514s-0.513,0.257-1.026,0.257c-0.257,0-0.514,0-0.771-0.257
		c-0.257,0-0.257,0-0.257,0.257s0,0.257-0.257,0.257h-0.513c-0.514,0-1.027,0-1.54,0c-0.514,0-1.027,0-1.541,0
		c-0.77,0-1.54,0-2.311-0.257c-0.256,0-0.513,0.257-0.513,0.257c-0.257,0-0.257,0.257-0.257,0.257c0,0.257-0.257,0.257-0.257,0.513
		c0,0.257-0.257,0.257-0.257,0.257s-0.257,0-0.514,0c0,0.514-0.257,0.771-0.514,1.027c-0.256,0.257-0.513,0.77-0.513,1.283
		c-0.514,0.257-0.771,0.514-1.027,0.771s-0.513,0.77-0.77,1.026s-0.514,0.771-0.771,1.027s-0.514,0.514-1.026,0.77
		c-0.257,0.257-0.257,0.514-0.257,1.027c-0.514,0.257-1.027,0.514-1.541,1.026c-0.513,0.257-1.283,0.514-1.797,0.514
		c-1.026,0-1.797-0.514-2.311-1.797c0-0.257,0-0.771,0-1.283c0-0.514,0.257-0.771,0.257-1.284s0.257-0.77,0.514-1.026
		s0.514-0.514,1.027-0.771c0-0.257,0-0.514-0.257-0.77c-0.257-0.257-0.257-0.257-0.257-0.771c1.026-0.514,1.797-1.027,2.567-1.797
		c0.77-0.771,1.54-1.54,2.054-2.567c0.513-0.771,1.283-1.797,1.797-2.567c0.513-0.77,1.283-1.797,2.054-2.31v-1.284
		c1.026-1.283,1.797-2.567,2.31-4.107c0.514,0,0.771-0.257,0.771-0.514c0.257-0.256,0.257-0.77,0.257-1.026
		c0.257,0,0.257,0,0.257-0.257s0.257-0.257,0.514-0.257c0.256-0.77,0.77-1.797,1.026-2.567c0.514-0.77,0.771-1.541,1.283-2.311
		c0.514-0.77,0.771-1.54,1.027-2.31c0.257-0.771,0.514-1.797,0.771-2.824c0.513,0,0.77-0.256,0.77-0.77c0-0.513,0-0.77,0.257-1.284
		c0.514-0.513,1.026-1.027,1.283-1.797s0.514-1.54,0.771-2.311c0.257-0.77,0.514-1.54,0.771-2.31s0.77-1.541,1.283-2.054v0.513
		c0-0.256,0-0.256-0.257-0.256s-0.257-0.257-0.257-0.257l0,0c0.514-0.257,0.771-0.514,1.027-1.027
		c0.257-0.514,0.513-0.77,1.026-1.027c0.771,0.513,1.54,1.027,2.054,1.027c0.514,0.257,1.284,0.257,2.311,0.257
		c0.514,0.513,0.771,1.027,0.771,1.797s0.257,1.54,0.257,2.054c0.256,1.283,0.513,2.31,1.026,3.594
		c0.257,1.027,0.514,2.311,0.771,3.594c0,0.77,0.257,1.283,0.513,2.054c0.257,0.513,0.514,1.283,0.514,2.054
		c0,0.513,0,1.027,0,1.797s0,1.284,0.257,1.797l0.514,0.77c0.257,0.514,0.257,0.77,0.513,1.284c0.257,0.513,0.257,0.77,0.257,1.284
		c0.257,1.026,0.514,2.311,0.771,3.594s0.514,2.567,1.026,3.594c0.257,0.257,0.514,0.514,0.771,0.771
		c0.514,0.257,0.771,0.257,1.283,0.257c0.514,0,1.027,0,1.541,0c0.513,0,0.77,0,1.283,0h0.514c0.257,0,0.514,0,0.77,0
		c0.257,0.257,0.257,0.513,0.257,0.77c0,0.514-0.257,0.771-0.513,1.027c-0.257,0.257-0.514,0.514-0.514,1.026
		c0,0.257,0,0.514,0.257,0.514c-0.257,0-0.257,0-0.771,0c-0.77,0-1.797,0.257-2.567,0.514c0.257,0.514,0.771,1.283,1.284,1.54
		c0.514,0.514,1.026,0.771,1.54,1.283c0.257-0.256,0.771-0.513,1.283-0.513c0.514,0,0.771,0,1.284,0.257
		c0.513,0.256,0.77,0.256,1.283,0.256c0.257,0,0.514,0,0.771-0.256c0.257,0.256,0.513,0.77,0.77,1.026
		C563.738,411.788,563.995,412.045,564.252,412.301z M546.539,403.316c0-0.514-0.257-1.027-0.257-1.283
		c-0.257-0.257-0.257-0.514-0.514-1.027s-0.257-1.026-0.257-1.797s-0.257-1.283-0.257-1.797c-0.257-1.284-0.514-2.567-0.771-3.851
		c-0.256-1.283-0.77-2.567-1.283-3.594c0.257-0.257,0.257-0.513,0.257-0.513v-0.257c-0.257-0.257-0.514-0.77-0.771-1.284
		c-0.256-0.513-0.256-1.027-0.513-1.54c-0.257-0.514-0.257-1.027-0.514-1.541c-0.257-0.513-0.514-0.77-1.027-1.027
		c0,0.257-0.256,0.514-0.256,0.77c0,0.257,0,0.514,0,0.771c0,0.256,0,0.513,0,0.77c-0.257,0.257-0.771,0.513-0.771,0.77
		c-0.257,0.514-0.514,0.77-0.771,1.027c-0.257,1.284-0.77,2.311-1.283,3.337s-1.027,2.054-1.797,3.081
		c-0.514,1.027-1.284,2.053-1.797,3.081c-0.514,1.026-1.027,2.054-1.284,3.337c-0.513,0.257-0.77,0.771-1.026,1.284
		c-0.257,0.513-0.257,1.026-0.257,1.54c0.257,0.257,0.771,0.257,1.027,0.257c0.513,0,0.77,0,1.283,0s0.77,0,1.283,0
		c0.257,0,0.771,0.256,1.027,0.513c0.513-0.257,1.026-0.257,1.54-0.257s1.026-0.256,1.54-0.513c0.771,0.257,1.54,0.513,2.311,0.513
		c0.514,0,0.771,0,1.283,0c0.514,0,0.771-0.256,1.284-0.256c0.257,0,0.513,0.256,0.77,0.256s0.514,0.257,0.771,0.257
		c0.257-0.257,0.257-0.257,0.257-0.513C546.282,403.573,546.539,403.573,546.539,403.316z"/>
	<path fill="#FFFFFF" d="M609.176,380.212c-0.256,0.513-0.513,1.027-0.77,1.283l-1.027,1.284c-0.257,0.257-0.513,0.77-0.77,1.284
		c-0.257,0.513-0.257,1.027-0.257,1.54h-0.257h-0.257c-0.514,0-1.026,0.257-1.283,0.514s-0.771,0.513-1.284,0.77
		c0-0.257-0.257-0.513-0.257-0.77s-0.257-0.257-0.513-0.514c-0.771,0.257-1.797,0.257-2.567,0.514c-0.771,0-1.797,0.257-2.567,0.257
		c-0.514,0-0.77,0.256-1.283,0.256c-0.514,0.257-0.771,0.257-1.283,0.257c-0.257,0-0.514,0-0.771,0s-0.514,0-0.771,0
		c-0.77,0-1.797,0-2.823,0.257c-1.027,0-2.054,0.513-2.824,0.77c-0.257,0-0.771-0.257-1.283-0.257c-0.514,0-0.771,0-1.284,0
		c-0.77,0-1.797,0-2.823,0.257c-1.027,0.257-2.054,0.514-2.824,1.027c-0.257,0-0.257-0.257-0.514-0.257s-0.513,0-0.77,0h-0.257
		c0,0,0,0-0.257,0c0,0.257,0,0.771,0.257,1.027c0.257,0.257,0.257,0.514,0.77,0.77c-0.256,0.514-0.256,0.771-0.256,1.284
		c0,0.514,0,1.284,0.256,1.797c0,0.514,0.257,1.284,0.257,1.797c0,0.77,0,1.283-0.257,1.797c0.257,1.026,0.514,2.311,0.514,3.594
		c0,0.514,0,0.771,0,1.284c0,0.513,0,0.77,0,1.283s0.257,0.77,0.514,1.026s0.514,0.514,0.514,1.027c0,0.257,0,0.257,0,0.514
		c0.513,0,1.026-0.257,1.54-0.514s1.026-0.257,1.54-0.257c0.257,0,0.514,0,0.771,0.257c0.257,0,0.513,0.257,0.77,0.514
		c0,0.256,0,0.513,0,0.513c0,0.257,0,0.514,0,0.771c0,0.514,0,0.771,0,1.026c0,0.257,0,0.771,0,1.027
		c-0.257,0.514-0.77,1.026-1.026,1.283c-0.514,0.514-0.771,1.027-0.771,1.541c-0.513,0-1.026,0-1.54,0.256
		c-0.514,0.257-0.771,0.514-1.283,0.771c-0.257,0.257-0.771,0.514-1.027,0.771c-0.257,0.256-0.77,0.256-1.283,0.256
		s-1.027,0-1.283-0.256c-0.257-0.257-0.514-0.257-0.514-0.514s-0.257-0.257-0.257-0.514s-0.257-0.257-0.514-0.257
		c0-0.513-0.257-1.026-0.514-1.283c-0.257-0.514-0.513-0.771-0.77-1.283c-0.257-0.514-0.514-0.771-0.771-1.284
		s-0.514-0.77-0.514-1.283c-0.256-1.027-0.256-2.054-0.256-3.081c0-1.026-0.257-2.054-0.514-3.08c0-0.514,0.257-1.027,0.257-1.54
		c0-0.514,0-1.027,0-1.541c0-1.026,0-2.054,0-3.08c0-1.027,0-2.054-0.257-3.081c-0.257-0.257-0.514-0.77-0.514-1.027
		c0-0.514,0-0.77-0.257-1.284l-0.257-0.256c0,0-0.257-0.257-0.257-0.514c-0.257,0-0.513,0-0.77,0c-0.514,0-1.027,0-1.284,0.257
		c-0.256,0.257-0.77,0.257-1.026,0.257s-0.514,0-0.771,0s-0.513,0-0.77,0s-0.257,0-0.257,0.256c0,0.257,0,0.257-0.257,0.257
		c0,0-0.257,0.257-0.771,0.257c-0.513,0-0.77,0.256-1.283,0.256s-1.027,0-1.54,0.257c-0.514,0-0.771,0-1.027,0
		c-0.514,0-1.026,0-1.283-0.257c-0.257-0.256-0.771-0.513-1.027-0.77c0-0.256,0-0.256,0-0.513s0-0.771-0.257-1.027
		c-0.256-0.257-0.256-0.514-0.256-0.77c0-0.514,0.256-0.771,0.513-1.027c0.257-0.257,0.514-0.514,0.514-1.027
		c0.771-0.257,1.797-0.771,2.567-0.771c0.77-0.256,1.797-0.256,2.823-0.513c1.027,0,1.797-0.257,2.824-0.514
		c1.026-0.256,1.797-0.513,2.824-0.77c0.256,0,0.513,0,0.77,0s0.514,0,0.771,0c1.026,0,2.311,0,3.337-0.257
		c1.027-0.256,2.311-0.256,3.338-0.256c0.256,0,0.513,0,0.77,0s0.514,0,0.771,0.256c1.54-0.256,3.08-0.513,4.364-0.77
		c1.54-0.257,3.08-0.513,4.62-0.77c0.771,0,1.541-0.257,2.311-0.257c0.771,0,1.54-0.257,2.311-0.257c0.257,0,0.514,0,0.514-0.256
		c0-0.257,0.257-0.257,0.257-0.514c0.257,0.257,0.77,0.257,1.026,0.257c0.514,0,1.284,0,1.797-0.257
		c0.514-0.257,1.284-0.257,1.797-0.257c0.257,0,0.257,0,0.514,0h0.257c0.257,0,0.514,0,0.514-0.256c0-0.257,0.257-0.514,0.513-0.514
		c0.257,0,0.514-0.257,1.027-0.257s1.026,0,1.54-0.256c0.514,0,1.027-0.257,1.54-0.257c0.514,0,0.771-0.257,1.027-0.513l0.514-0.514
		c0.77,0,1.283,0.257,1.54,0.77c0.257,0.514,0.514,1.027,0.514,1.797c0.256,0.257,0.256,0.257,0.77,0.257
		C608.663,380.212,608.92,380.212,609.176,380.212L609.176,380.212z"/>
	<path fill="#FFFFFF" d="M608.92,408.964c0,0.514,0,1.027-0.257,1.54c-0.257,0.514-0.514,1.027-0.771,1.541l-0.771,1.54
		c-0.257,0.514-0.513,1.026-0.513,1.54h-0.257c-0.514,0-1.027,0-1.54,0.257c-0.514,0.257-1.027,0.257-1.541,0.514
		s-1.026,0.257-1.54,0.513c-0.514,0.257-1.026,0.257-1.54,0.257c0-0.513-0.257-1.026-0.514-1.283s-0.771-0.514-1.283-0.514
		c0-0.257-0.257-0.514-0.257-1.026c0-0.257,0-0.771,0-1.027s0-0.514,0-1.026c0-0.514-0.257-0.514-0.257-1.027
		c0.77-0.514,1.283-1.026,1.797-1.797s1.026-1.283,1.54-2.054c0.514,0,1.027,0.257,1.284,0.257c0.513,0,1.026,0,1.797-0.257
		c0.77-0.257,1.026-0.257,1.797-0.257c0.514,0,1.283,0.257,1.797,0.514c0,0.257,0.257,0.514,0.257,0.514c0,0.257,0,0.513,0.257,0.77
		c0,0.257,0.257,0.257,0.257,0.514C608.406,408.707,608.663,408.964,608.92,408.964L608.92,408.964z"/>
</g>
</svg>