<svg version="1.1" id="Layer_1" xmlns="http://www.w3.org/2000/svg" xmlns:xlink="http://www.w3.org/1999/xlink" x="0px" y="0px"
	 width="62px" viewBox="0 0 612 792" enable-background="new 0 0 612 792" xml:space="preserve">
<g>
	<path fill="#FFFFFF" d="M306,129.484c147.077,0,266.516,119.439,266.516,266.516S453.077,662.516,306,662.516
		C158.922,662.516,39.484,543.077,39.484,396C39.484,248.922,158.922,129.484,306,129.484 M306,90C137.207,90,0,227.207,0,396
		c0,168.794,137.207,306,306,306c168.794,0,306-137.206,306-306C612,227.207,474.794,90,306,90L306,90z"/>
</g>
<path fill="#FFFFFF" d="M217.161,559.858V232.142c0-14.807,16.781-22.704,28.626-13.819l201.368,163.858
	c8.884,6.91,8.884,19.742,0,26.651L245.787,573.678C233.942,582.562,217.161,574.664,217.161,559.858z"/>
</svg>